<svg width="320" height="496" viewBox="0 0 320 496" fill="none" xmlns="http://www.w3.org/2000/svg">
<path d="M32.4268 42.9302C32.2357 43.291 32.0446 44.5541 34.3377 45.2759C36.6309 45.9976 37.3953 45.8172 37.7775 45.8172C37.9686 45.8172 37.9686 46.178 39.1152 46.5389C40.2618 46.7194 41.7905 47.0802 42.3638 47.0802C42.3638 47.0802 42.9371 47.4411 43.5104 47.4411C44.0837 47.4411 46.1858 47.9824 46.568 47.9824C47.1412 47.9824 47.5234 47.4411 47.5234 47.0802C47.5234 46.7194 47.1412 46.178 45.6125 45.8172C44.0837 45.4563 43.1282 44.915 43.1282 45.0954C42.9371 45.2759 43.1282 45.0954 42.3638 44.7345C41.7905 44.3737 39.1152 43.4715 38.5419 43.6519C38.3508 43.6519 38.1597 43.1106 36.2487 42.9302C34.1466 42.3888 32.6179 42.028 32.4268 42.9302Z" fill="#1CBFFC"/>
<path d="M37.9666 34.0887C37.7755 34.4496 38.3488 35.5322 39.1132 36.0735C40.0687 36.6148 40.2598 37.1562 40.8331 36.6148C40.8331 36.6148 40.642 36.9757 41.2153 37.517C41.7886 38.0584 43.5084 38.9605 43.8906 39.3214C44.2728 39.6823 44.655 39.6823 45.2283 39.5019C45.2283 39.5019 45.2283 40.0432 45.6105 40.404C45.9927 40.7649 47.1393 41.8475 47.3304 42.2084C47.5215 42.3889 48.477 42.3889 48.8592 42.2084C49.2414 42.028 49.2414 41.3062 49.0503 41.1258C49.0503 40.9454 48.0948 39.6823 47.5215 39.3214C47.1393 38.9605 46.3749 38.4192 46.1838 38.2388C45.9927 38.0584 44.4639 36.7953 43.8906 36.4344C43.3173 36.0735 42.5529 35.7127 42.5529 35.7127C42.5529 35.7127 42.1708 35.5322 41.9797 35.1713C41.7886 34.8105 40.0687 33.5474 39.3043 33.5474C38.5399 33.1865 38.1577 33.5474 37.9666 34.0887Z" fill="#1CBFFC"/>
<path d="M46.9475 27.4118C46.5653 27.5923 45.8009 28.314 46.3742 29.3966C46.9475 30.4793 48.6674 32.1032 48.8585 31.9228C48.8585 31.9228 48.6674 32.6445 49.6228 33.7272C50.9605 35.3511 51.1516 35.1707 51.3427 35.3511C51.3427 35.3511 51.3427 36.2533 51.7249 36.7946C52.1071 37.3359 52.8715 38.4185 53.6359 38.599C54.4003 38.7794 54.7825 38.599 54.9736 37.8772C55.1647 37.1555 53.827 35.3511 53.6359 34.8098C53.4448 34.6293 53.2537 34.4489 53.2537 34.4489C53.2537 34.4489 53.2537 34.2685 52.8715 33.1858C52.2982 32.2837 51.7249 31.3815 51.7249 31.201C51.3427 30.6597 50.7694 30.2988 50.7694 30.2988C50.7694 30.2988 49.8139 28.314 48.6674 27.5923C46.9475 27.2314 46.9475 27.4118 46.9475 27.4118Z" fill="#1CBFFC"/>
<path d="M58.9856 35.8937C58.9856 35.8937 59.1767 36.435 59.5589 36.9763C59.75 37.5177 60.7055 38.2394 60.8966 38.4198C61.0877 38.6003 61.8521 38.2394 61.661 37.5176C61.2788 35.172 60.8966 34.8111 60.8966 34.8111C60.8966 34.8111 61.0877 34.4502 60.3233 32.4654C60.1322 31.9241 59.75 31.5632 59.75 31.5632C59.75 31.5632 59.5589 31.2023 59.1767 30.4806C58.9856 29.9392 58.0301 28.6762 57.0747 28.3153C56.1192 27.9544 55.1637 27.5936 54.9726 28.4957C54.7815 29.2175 55.9281 30.4806 56.3103 31.0219C56.6925 31.5632 57.2658 32.1045 57.2658 32.1045C57.2658 32.1045 57.2658 32.4654 57.648 33.0067C57.8391 33.548 58.6034 34.9915 58.6034 34.9915C58.6034 34.9915 58.6034 35.172 58.9856 35.8937Z" fill="#1CBFFC"/>
<path d="M54.7831 55.5607C54.592 55.0194 52.6811 53.5759 54.0188 51.7715C54.592 51.0498 55.7386 49.7867 56.6941 49.4258C57.2674 49.2454 59.1784 50.5084 60.5161 50.6889C62.2359 50.8693 63.9558 50.328 63.9558 49.4258C63.7647 48.7041 63.7647 47.8019 63.1914 46.8997C62.2359 45.4562 60.5161 44.0127 59.5606 44.9149C58.0318 46.1779 56.3119 48.8845 53.6366 50.5084C50.9612 52.1324 47.5214 49.6063 49.2413 47.6214C49.6235 47.2606 49.8146 43.8322 51.1523 43.4714C52.6811 43.1105 53.2544 42.5692 53.8277 42.0279C54.4009 41.3061 53.8277 40.9452 55.1653 40.043C55.7386 39.6822 59.9428 39.6822 60.7072 39.3213C61.4715 38.9604 63.7647 39.5017 65.2935 42.0279C66.8223 44.554 68.1599 45.2757 69.1154 46.5388C70.0709 47.6214 71.2175 50.328 70.0709 52.1324C69.1154 53.9368 67.5867 55.1998 66.8223 55.1998C66.0579 55.0194 65.2935 54.839 65.1024 55.9216C64.9113 57.0042 62.0448 58.6282 59.9428 58.8086C58.7962 58.6282 55.7386 57.726 54.7831 55.5607Z" fill="#1CBFFC"/>
<path d="M44.272 54.6579C45.0364 54.1166 46.3741 54.1166 47.7118 54.6579C48.6673 55.0188 48.8584 55.5601 49.0495 55.3796C49.2405 55.1992 49.4317 55.1992 49.6227 55.3796C50.5782 55.5601 51.5337 55.5601 52.107 55.9209C52.2981 55.9209 52.4892 56.1014 52.6803 56.1014C52.8714 56.1014 53.0625 56.1014 53.0625 56.1014C54.9735 56.8231 54.9735 57.7253 53.8269 57.9058C52.4892 58.2666 51.3426 57.5449 50.196 57.7253C48.2851 57.9058 47.3296 58.0862 46.3741 58.0862C45.6097 58.2666 44.8453 57.9058 44.272 57.9058C42.5521 57.184 42.9343 55.7405 44.272 54.6579Z" fill="#1CBFFC"/>
<path d="M243.067 59.8873C243.113 60.0475 243.42 60.4849 244.333 60.1141C245.247 59.7434 245.43 59.4905 245.547 59.3918C245.606 59.3424 245.71 59.4533 246.167 59.2679C246.571 59.0271 247.146 58.743 247.322 58.5949C247.322 58.5949 247.602 58.5576 247.778 58.4095C247.955 58.2614 248.757 57.8846 248.874 57.7859C249.051 57.6378 249.011 57.3728 248.907 57.2619C248.802 57.1511 248.528 57.0835 247.954 57.3676C247.379 57.6517 246.929 57.7323 246.981 57.7877C246.975 57.8925 246.981 57.7877 246.642 57.8743C246.361 57.9116 245.278 58.3256 245.154 58.5292C245.096 58.5785 244.88 58.4616 244.241 58.8999C243.438 59.2767 242.864 59.5608 243.067 59.8873Z" fill="#1CBFFC"/>
<path d="M242.212 55.7429C242.258 55.9031 242.747 56.0875 243.139 56.0564C243.589 55.9758 243.805 56.0927 243.824 55.7783C243.824 55.7783 243.87 55.9385 244.203 55.9567C244.536 55.9749 245.326 55.8077 245.548 55.8198C245.77 55.8319 245.887 55.7332 246.011 55.5296C246.011 55.5296 246.168 55.6959 246.39 55.708C246.612 55.7202 247.278 55.7565 247.441 55.818C247.552 55.8241 247.845 55.5772 247.91 55.423C247.976 55.2689 247.766 55.0472 247.655 55.0411C247.603 54.9857 246.944 54.8445 246.663 54.8818C246.441 54.8697 246.049 54.9009 245.938 54.8948C245.827 54.8888 244.992 54.8957 244.711 54.933C244.431 54.9702 244.091 55.0568 244.091 55.0568C244.091 55.0568 243.921 55.1002 243.758 55.0387C243.595 54.9772 242.701 55.0335 242.466 55.231C242.127 55.3176 242.114 55.5272 242.212 55.7429Z" fill="#1CBFFC"/>
<path d="M243.038 51.3709C242.973 51.525 242.947 51.9442 243.437 52.1287C243.927 52.3131 244.926 52.3676 244.932 52.2629C244.932 52.2629 245.083 52.5339 245.69 52.6196C246.571 52.7729 246.578 52.6681 246.689 52.6742C246.689 52.6742 246.95 52.9513 247.224 53.0189C247.498 53.0864 248.047 53.2215 248.334 53.0794C248.621 52.9374 248.686 52.7832 248.536 52.5121C248.385 52.2411 247.452 52.0324 247.236 51.9155C247.125 51.9094 247.014 51.9033 247.014 51.9033C247.014 51.9033 246.962 51.8479 246.531 51.6141C246.093 51.4851 245.656 51.356 245.603 51.3006C245.329 51.2331 245.049 51.2703 245.049 51.2703C245.049 51.2703 244.18 50.9075 243.619 50.982C242.986 51.3154 243.038 51.3709 243.038 51.3709Z" fill="#1CBFFC"/>
<path d="M249.193 50.866C249.193 50.866 249.409 50.9829 249.683 51.0504C249.898 51.1673 250.401 51.1422 250.512 51.1482C250.623 51.1543 250.753 50.846 250.485 50.6736C249.688 50.0518 249.466 50.0397 249.466 50.0397C249.466 50.0397 249.421 49.8795 248.611 49.4672C248.395 49.3503 248.173 49.3382 248.173 49.3382C248.173 49.3382 248.01 49.2767 247.683 49.1538C247.468 49.0368 246.808 48.8957 246.41 49.0317C246.012 49.1677 245.614 49.3037 245.817 49.6302C245.967 49.9013 246.685 49.993 246.96 50.0606C247.234 50.1281 247.567 50.1463 247.567 50.1463C247.567 50.1463 247.671 50.2572 247.946 50.3247C248.161 50.4416 248.814 50.6876 248.814 50.6876C248.814 50.6876 248.867 50.743 249.193 50.866Z" fill="#1CBFFC"/>
<path d="M253.598 57.9928C253.383 57.8759 252.378 57.9262 252.266 57.0263C252.233 56.6565 252.219 55.9723 252.408 55.6146C252.532 55.4111 253.485 55.3054 253.948 55.0152C254.528 54.6263 254.9 54.0157 254.638 53.7386C254.37 53.5662 254.109 53.2891 253.672 53.1601C252.96 52.9635 252.013 52.9644 251.981 53.4884C251.878 54.2713 252.134 55.5471 251.782 56.7371C251.431 57.9271 249.642 58.0398 249.596 56.9857C249.608 56.7761 248.674 55.6737 248.98 55.2172C249.345 54.7114 249.364 54.397 249.384 54.0826C249.351 53.7128 249.07 53.7501 249.219 53.1273C249.291 52.8684 250.582 51.7822 250.713 51.4739C250.843 51.1656 251.704 50.7394 252.906 51.1204C254.107 51.5015 254.727 51.3776 255.387 51.5187C255.994 51.6045 257.13 52.1397 257.301 52.9901C257.53 53.7913 257.427 54.5742 257.192 54.7717C256.905 54.9137 256.618 55.0558 256.873 55.4377C257.128 55.8197 256.718 57.0591 256.124 57.6576C255.72 57.8983 254.519 58.4111 253.598 57.9928Z" fill="#1CBFFC"/>
<path d="M250.11 60.4311C250.188 60.0673 250.598 59.7217 251.166 59.5424C251.564 59.4064 251.78 59.5234 251.786 59.4186C251.793 59.3138 251.851 59.2644 251.962 59.2705C252.308 59.079 252.602 58.8322 252.882 58.7949C252.941 58.7456 253.052 58.7516 253.111 58.7023C253.169 58.6529 253.228 58.6035 253.228 58.6035C254.024 58.3315 254.286 58.6087 253.986 58.9603C253.679 59.4168 253.118 59.4913 252.818 59.8429C252.283 60.392 252.042 60.6943 251.749 60.9412C251.566 61.1941 251.227 61.2807 251.051 61.4288C250.313 61.6514 250.012 61.1092 250.11 60.4311Z" fill="#1CBFFC"/>
<path d="M161.08 36.0516C160.795 35.8818 159.76 35.6417 158.981 37.2851C158.202 38.9286 158.293 39.5093 158.263 39.7926C158.248 39.9342 157.948 39.9061 157.559 40.7278C157.319 41.5636 156.9 42.6686 156.855 43.0936C156.855 43.0936 156.511 43.4904 156.466 43.9153C156.421 44.3402 155.807 45.8561 155.778 46.1394C155.733 46.5644 156.153 46.8899 156.453 46.918C156.753 46.9461 157.233 46.705 157.652 45.6C158.071 44.495 158.596 43.829 158.446 43.8149C158.311 43.6592 158.446 43.8149 158.806 43.2764C159.15 42.8796 160.109 40.9669 160.004 40.5279C160.018 40.3863 160.483 40.2869 160.782 38.8845C161.396 37.3686 161.815 36.2635 161.08 36.0516Z" fill="#1CBFFC"/>
<path d="M167.995 40.8458C167.71 40.6761 166.765 41.0166 166.255 41.541C165.731 42.207 165.266 42.3064 165.671 42.7736C165.671 42.7736 165.386 42.6038 164.891 42.9865C164.396 43.3693 163.512 44.5738 163.183 44.8289C162.853 45.0841 162.823 45.3674 162.928 45.8064C162.928 45.8064 162.478 45.7641 162.148 46.0193C161.819 46.2745 160.829 47.0399 160.514 47.1534C160.349 47.281 160.275 47.9893 160.395 48.2866C160.515 48.584 161.115 48.6402 161.28 48.5127C161.43 48.5267 162.555 47.917 162.899 47.5202C163.229 47.265 163.739 46.7406 163.904 46.6131C164.069 46.4855 165.238 45.4508 165.583 45.054C165.927 44.6572 166.287 44.1187 166.287 44.1187C166.287 44.1187 166.467 43.8495 166.782 43.736C167.097 43.6225 168.281 42.4462 168.34 41.8796C168.7 41.3411 168.43 41.0297 167.995 40.8458Z" fill="#1CBFFC"/>
<path d="M172.849 48.0227C172.729 47.7254 172.189 47.1025 171.244 47.4431C170.299 47.7836 168.815 48.9318 168.95 49.0875C168.95 49.0875 168.365 48.8896 167.39 49.5134C165.936 50.3783 166.071 50.534 165.906 50.6616C165.906 50.6616 165.156 50.5913 164.676 50.8324C164.196 51.0735 163.237 51.5556 163.027 52.1082C162.817 52.6607 162.938 52.958 163.523 53.1559C164.108 53.3538 165.712 52.503 166.177 52.4036C166.342 52.276 166.507 52.1484 166.507 52.1484C166.507 52.1484 166.657 52.1625 167.587 51.9636C168.382 51.609 169.177 51.2544 169.327 51.2685C169.806 51.0274 170.151 50.6306 170.151 50.6306C170.151 50.6306 171.876 50.0771 172.565 49.2835C172.999 48.0368 172.849 48.0227 172.849 48.0227Z" fill="#1CBFFC"/>
<path d="M164.857 56.2858C164.857 56.2858 164.392 56.3852 163.912 56.6263C163.447 56.7257 162.773 57.3777 162.608 57.5053C162.443 57.6329 162.684 58.2276 163.298 58.1422C165.278 58.0418 165.608 57.7866 165.608 57.7866C165.608 57.7866 165.893 57.9564 167.603 57.5446C168.068 57.4451 168.398 57.19 168.398 57.19C168.398 57.19 168.713 57.0765 169.343 56.8494C169.808 56.75 170.932 56.1402 171.307 55.4601C171.681 54.78 172.056 54.1 171.321 53.888C170.735 53.6901 169.596 54.4415 169.116 54.6826C168.636 54.9236 168.141 55.3064 168.141 55.3064C168.141 55.3064 167.841 55.2782 167.362 55.5193C166.897 55.6188 165.637 56.0728 165.637 56.0728C165.637 56.0728 165.487 56.0587 164.857 56.2858Z" fill="#1CBFFC"/>
<path d="M148.836 51.6362C149.301 51.5368 150.65 50.2329 152.045 51.365C152.601 51.8462 153.562 52.7946 153.787 53.531C153.892 53.97 152.693 55.2879 152.439 56.2654C152.155 57.5261 152.471 58.8431 153.221 58.9135C153.836 58.8281 154.586 58.8984 155.381 58.5438C156.655 57.9482 157.99 56.7859 157.314 56.0073C156.383 54.7757 154.267 53.2899 153.125 51.1802C151.984 49.0706 154.352 46.7179 155.868 48.1475C156.138 48.4589 158.974 48.8678 159.17 49.8875C159.35 51.0488 159.756 51.5159 160.161 51.983C160.716 52.4642 161.061 52.0674 161.707 53.1293C161.962 53.5824 161.635 56.6986 161.875 57.2933C162.115 57.888 161.487 59.5455 159.267 60.4818C157.048 61.418 156.344 62.3532 155.219 62.963C154.244 63.5868 151.905 64.2257 150.494 63.2351C149.068 62.3862 148.138 61.1546 148.197 60.588C148.407 60.0355 148.616 59.483 147.731 59.2569C146.846 59.0309 145.719 56.7796 145.733 55.2074C145.973 54.3716 146.961 52.1756 148.836 51.6362Z" fill="#1CBFFC"/>
<path d="M150.401 43.9166C150.792 44.5253 150.687 45.5169 150.133 46.4662C149.759 47.1463 149.294 47.2457 149.429 47.4014C149.564 47.5571 149.549 47.6988 149.384 47.8264C149.16 48.5205 149.085 49.2288 148.74 49.6256C148.725 49.7672 148.561 49.8948 148.546 50.0364C148.531 50.1781 148.516 50.3197 148.516 50.3197C147.767 51.6799 147.017 51.6096 146.956 50.7456C146.76 49.726 147.45 48.9324 147.389 48.0684C147.388 46.6379 147.313 45.9156 147.387 45.2074C147.297 44.6267 147.656 44.0883 147.701 43.6634C148.435 42.4448 149.605 42.8406 150.401 43.9166Z" fill="#1CBFFC"/>
<path d="M81.5164 75.4801C91.9688 72.013 94.2686 56.3226 101.442 53.4418C106.556 51.234 111.492 56.1351 111.125 60.7436C110.255 72.0141 94.796 77.8379 81.5164 75.4801Z" fill="#1CBFFC"/>
<path d="M242.506 0.0444003C250.75 9.63687 242.485 14.3014 246.232 19.74C249.67 24.6609 259.23 18.8992 251.191 7.83444C249.066 4.87411 245.693 1.75872 242.506 0.0444003Z" fill="#1CBFFC"/>
<path d="M204.14 30.5623C211.688 39.3449 204.121 43.6156 207.552 48.5951C210.7 53.1006 219.452 47.8253 212.092 37.6947C210.146 34.9843 207.058 32.1319 204.14 30.5623Z" fill="#1CBFFC"/>
<path d="M311.943 57.0646C297.629 46.279 307.45 37.5644 300.602 31.1871C294.34 25.4305 283.096 36.0115 297.596 48.8684C301.441 52.3153 307.041 55.6217 311.943 57.0646Z" fill="#1CBFFC"/>
<path d="M17.4606 42.3702C16.6204 39.1089 15.2417 35.8914 12.5864 33.5461C10.0774 31.3171 5.7996 30.5126 4.69018 27.2732C3.19549 22.7845 8.68725 20.5447 12.5193 22.4099C16.2284 24.4133 18.4612 28.0735 19.2016 31.7272C20.1114 35.7512 18.967 39.5582 17.5534 43.3872" fill="#1CBFFC"/>
<path d="M143.782 4.21184C146.266 8.18147 148.368 11.4294 155.248 12.8729C160.025 13.9555 167.287 11.9707 170.727 15.7599C176.842 22.6165 161.936 30.3753 150.661 17.9251C147.222 14.1359 145.12 9.44454 143.782 4.21184Z" fill="#1CBFFC"/>
<path d="M295.227 120.714C295.609 120.895 297.329 121.256 298.476 118.549C299.622 115.843 299.431 114.94 299.622 114.399C299.622 114.219 300.195 114.038 300.769 112.775C301.342 111.512 301.915 109.527 301.724 108.806C301.724 108.806 302.298 108.264 302.298 107.362C302.298 106.64 303.062 104.295 303.253 103.573C303.253 103.032 302.489 102.31 302.106 102.49C301.724 102.49 300.96 102.851 300.387 104.655C299.813 106.46 299.049 107.542 299.24 107.723C299.622 108.084 299.24 107.903 298.667 108.625C298.093 109.347 296.565 112.595 296.756 113.136C296.756 113.497 296.182 113.497 295.418 115.843C294.654 118.549 294.271 120.354 295.227 120.714Z" fill="#1CBFFC"/>
<path d="M283.568 113.316C284.141 113.496 285.479 112.955 286.435 112.053C287.39 110.97 287.963 110.609 287.39 109.888C287.39 109.888 287.772 110.249 288.537 109.527C289.301 108.805 290.83 106.82 291.212 106.279C291.594 105.738 291.785 105.377 291.594 104.835C291.594 104.835 292.167 105.016 292.932 104.475C293.505 103.933 295.034 102.851 295.416 102.49C295.798 102.129 295.798 101.046 295.607 100.505C295.416 99.9636 294.461 99.9636 294.078 100.144C293.696 100.144 292.167 101.227 291.403 101.948C291.021 102.309 290.065 103.392 289.874 103.392C289.683 103.572 287.581 105.377 287.199 106.098C286.626 106.82 286.243 107.722 286.243 107.722C286.243 107.722 286.052 108.083 285.479 108.444C284.906 108.805 283.186 110.79 282.995 111.692C282.421 112.414 282.804 112.955 283.568 113.316Z" fill="#1CBFFC"/>
<path d="M275.162 101.586C275.353 101.947 276.309 103.21 277.837 102.488C279.557 101.947 281.659 99.9619 281.468 99.601C281.468 99.601 282.615 99.9619 283.952 98.8793C286.246 97.4358 286.054 97.0749 286.437 96.8945C286.437 96.8945 287.583 97.0749 288.348 96.5336C289.112 96.1727 290.641 95.2705 290.832 94.3683C291.023 93.4661 291.023 92.9248 290.068 92.7444C289.112 92.7444 286.437 93.827 285.672 94.1879C285.29 94.3683 285.099 94.5488 285.099 94.5488C285.099 94.5488 284.717 94.3683 283.379 95.0901C282.041 95.6314 280.895 96.3532 280.704 96.3532C279.939 96.8945 279.366 97.4358 279.366 97.4358C279.366 97.4358 276.5 98.338 275.544 99.7815C274.78 101.405 275.162 101.586 275.162 101.586Z" fill="#1CBFFC"/>
<path d="M314.719 94.1883C313.954 94.3688 311.852 96.534 309.559 94.9101C308.603 94.1883 306.884 92.5644 306.501 91.4818C306.31 90.9405 308.221 88.4143 308.603 86.7904C308.986 84.6251 308.412 82.4599 307.075 82.4599C306.119 82.4599 304.973 82.4599 303.635 83.1816C301.533 84.2643 299.622 86.4295 300.386 87.5121C301.915 89.4969 305.546 91.8426 307.648 95.271C309.75 98.6993 305.928 102.669 303.253 100.504C302.679 100.143 297.902 99.421 297.711 97.7971C297.52 95.8123 296.755 95.0905 295.991 94.5492C295.036 93.8275 294.462 94.5492 293.316 92.7448C292.742 91.8426 293.316 86.7904 292.742 85.8882C292.169 84.986 293.316 82.2794 296.755 80.4751C300.195 78.6707 301.533 77.2272 303.253 76.1445C304.973 75.0619 308.795 73.9793 311.088 75.4228C313.381 76.8663 315.101 78.6707 314.91 79.7533C314.719 80.6555 314.336 81.7381 315.674 81.9186C317.012 82.099 319.114 85.8882 319.114 88.5948C319.305 89.6774 317.776 93.2861 314.719 94.1883Z" fill="#1CBFFC"/>
<path d="M312.612 107.182C311.848 106.099 312.039 104.656 312.994 103.032C313.568 101.949 314.141 101.588 314.141 101.408C313.95 101.227 313.95 101.047 314.141 100.686C314.332 99.4231 314.714 98.3405 314.905 97.6187C314.905 97.4383 315.097 97.2579 315.097 97.0774C315.097 96.897 315.097 96.7165 315.097 96.5361C316.243 94.1904 317.39 94.1904 317.581 95.6339C317.581 95.6339 317.581 95.6339 317.581 95.8144C317.963 97.4383 317.008 98.7014 317.008 100.145C317.008 102.491 317.199 103.754 317.199 105.017C317.199 105.919 317.008 107.002 316.816 107.543C316.052 109.347 313.759 108.806 312.612 107.182Z" fill="#1CBFFC"/>
<path d="M183.302 121.415C183.175 121.264 182.506 120.782 181.434 121.739C180.363 122.696 180.255 123.123 180.057 123.322C180.019 123.4 179.732 123.37 179.215 123.809C178.699 124.248 178.029 125.001 177.959 125.35C177.959 125.35 177.595 125.476 177.404 125.867C177.251 126.18 176.422 127.053 176.186 127.33C176.071 127.564 176.25 128.022 176.454 128.016C176.619 128.088 177.027 128.076 177.659 127.402C178.29 126.728 178.851 126.403 178.806 126.289C178.717 126.06 178.845 126.211 179.246 126.006C179.648 125.802 181 124.682 181.032 124.412C181.108 124.255 181.357 124.364 182.186 123.491C183.092 122.462 183.64 121.752 183.302 121.415Z" fill="#1CBFFC"/>
<path d="M186.788 126.828C186.578 126.641 185.883 126.623 185.278 126.833C184.634 127.122 184.309 127.17 184.404 127.591C184.404 127.591 184.315 127.362 183.83 127.531C183.346 127.699 182.262 128.271 181.981 128.433C181.701 128.596 181.541 128.716 181.509 128.987C181.509 128.987 181.299 128.8 180.853 128.89C180.489 129.017 179.597 129.197 179.355 129.281C179.112 129.365 178.883 129.835 178.851 130.106C178.819 130.377 179.233 130.557 179.437 130.551C179.603 130.624 180.495 130.443 180.98 130.275C181.222 130.191 181.866 129.902 181.949 129.938C182.07 129.896 183.364 129.511 183.683 129.27C184.085 129.066 184.442 128.747 184.442 128.747C184.442 128.747 184.601 128.627 184.926 128.579C185.252 128.531 186.418 127.995 186.693 127.64C187.094 127.436 187.043 127.129 186.788 126.828Z" fill="#1CBFFC"/>
<path d="M187.951 133.503C187.945 133.31 187.799 132.582 186.983 132.606C186.122 132.515 184.789 132.978 184.796 133.171C184.796 133.171 184.375 132.797 183.565 133.014C182.265 133.206 182.271 133.399 182.067 133.405C182.067 133.405 181.608 133.11 181.162 133.2C180.754 133.212 179.9 133.314 179.626 133.669C179.351 134.024 179.237 134.259 179.613 134.517C180.027 134.698 181.417 134.735 181.825 134.723C182.029 134.717 182.15 134.675 182.15 134.675C182.15 134.675 182.277 134.825 183.01 134.765C183.705 134.784 184.355 134.687 184.438 134.724C184.885 134.633 185.248 134.507 185.248 134.507C185.248 134.507 186.682 134.658 187.403 134.213C188.079 133.653 187.951 133.503 187.951 133.503Z" fill="#1CBFFC"/>
<path d="M179.378 137.262C179.378 137.262 179.009 137.196 178.601 137.208C178.231 137.141 177.504 137.394 177.345 137.514C177.185 137.635 177.115 137.984 177.612 138.201C179.059 138.737 179.34 138.574 179.34 138.574C179.34 138.574 179.512 138.839 180.946 138.99C181.316 139.057 181.596 138.894 181.596 138.894C181.596 138.894 181.883 138.924 182.374 138.949C182.744 139.015 183.719 138.871 184.319 138.468C184.88 138.143 185.313 137.667 184.854 137.372C184.478 137.113 183.382 137.3 182.891 137.275C182.483 137.287 181.96 137.534 181.96 137.534C181.96 137.534 181.794 137.462 181.386 137.473C180.978 137.485 179.997 137.437 179.997 137.437C179.997 137.437 179.952 137.323 179.378 137.262Z" fill="#1CBFFC"/>
<path d="M169.225 129.229C169.594 129.296 170.965 128.754 171.615 129.892C171.876 130.386 172.278 131.416 172.214 131.957C172.182 132.228 170.817 132.962 170.307 133.594C169.682 134.461 169.471 135.508 170.051 135.761C170.466 135.942 170.963 136.158 171.696 136.098C172.837 136.027 174.125 135.449 174.023 134.835C173.781 133.685 172.704 131.981 172.52 130.097C172.336 128.213 174.835 127.215 175.536 128.66C175.708 128.924 177.626 130.141 177.365 130.881C177.027 131.778 177.205 132.236 177.422 132.615C177.683 133.109 178.085 132.904 178.199 133.903C178.256 134.403 176.936 136.485 176.993 136.985C177.05 137.485 175.979 138.441 174.105 138.573C172.231 138.705 171.344 139.078 170.369 139.222C169.394 139.366 167.507 139.113 166.818 138.053C166.13 136.994 165.767 135.886 166.08 135.453C166.354 135.098 166.749 134.7 166.208 134.369C165.666 134.038 165.558 131.997 166.132 130.824C166.279 130.318 167.707 129.042 169.225 129.229Z" fill="#1CBFFC"/>
<path d="M172.89 123.994C172.992 124.608 172.603 125.198 171.844 125.721C171.366 126.082 171.041 126.13 171.002 126.209C171.047 126.323 171.009 126.401 170.849 126.522C170.498 127.033 170.103 127.43 169.867 127.707C169.829 127.785 169.708 127.827 169.669 127.906C169.631 127.984 169.593 128.062 169.555 128.14C168.56 128.941 168.063 128.724 168.286 128.062C168.286 128.062 168.286 128.062 168.324 127.984C168.503 127.207 169.185 126.84 169.491 126.214C169.989 125.197 170.174 124.613 170.442 124.065C170.633 123.674 170.946 123.241 171.144 123.042C171.858 122.405 172.737 123.073 172.89 123.994Z" fill="#1CBFFC"/>
<path d="M38.9372 125.017C38.7547 124.943 37.9387 124.825 37.4309 126.17C36.9231 127.514 37.0243 127.943 36.9407 128.211C36.943 128.298 36.6747 128.404 36.4196 129.032C36.1646 129.661 35.9184 130.638 36.0175 130.98C36.0175 130.98 35.7536 131.26 35.7647 131.695C35.7735 132.044 35.4416 133.201 35.3603 133.556C35.3669 133.817 35.7364 134.14 35.9145 134.04C36.0949 134.028 36.4511 133.828 36.6995 132.939C36.9479 132.049 37.2953 131.501 37.2029 131.42C37.0182 131.259 37.2007 131.333 37.4624 130.966C37.724 130.599 38.4055 128.98 38.3087 128.725C38.3043 128.551 38.5748 128.532 38.9067 127.375C39.2342 126.043 39.3925 125.16 38.9372 125.017Z" fill="#1CBFFC"/>
<path d="M44.5294 128.202C44.2567 128.134 43.6321 128.44 43.1923 128.907C42.7548 129.461 42.4887 129.654 42.768 129.983C42.768 129.983 42.5833 129.822 42.2315 130.195C41.8796 130.569 41.1826 131.577 41.0089 131.851C40.8352 132.125 40.7495 132.306 40.8463 132.561C40.8463 132.561 40.5736 132.493 40.2195 132.779C39.9557 133.059 39.2476 133.632 39.0717 133.819C38.8958 134.006 38.909 134.528 39.0058 134.783C39.1026 135.038 39.5535 135.007 39.7316 134.907C39.9119 134.894 40.62 134.321 40.9718 133.948C41.1477 133.761 41.5853 133.207 41.6755 133.201C41.7634 133.107 42.7332 132.167 42.9046 131.806C43.1663 131.439 43.3356 130.991 43.3356 130.991C43.3356 130.991 43.4213 130.81 43.6874 130.617C43.9535 130.424 44.7407 129.409 44.8198 128.967C45.0814 128.6 44.8945 128.351 44.5294 128.202Z" fill="#1CBFFC"/>
<path d="M48.6405 133.584C48.5459 133.416 48.0796 132.838 47.3671 133.237C46.5623 133.555 45.5947 134.582 45.6893 134.75C45.6893 134.75 45.1439 134.614 44.526 135.181C43.4617 135.953 43.5563 136.121 43.3781 136.221C43.3781 136.221 42.8349 136.171 42.4809 136.458C42.1246 136.657 41.4144 137.143 41.3353 137.585C41.2561 138.027 41.2628 138.288 41.7158 138.343C42.1667 138.312 43.4157 137.701 43.772 137.502C43.9501 137.402 44.0381 137.309 44.0381 137.309C44.0381 137.309 44.2206 137.383 44.8429 136.99C45.4675 136.685 45.9996 136.299 46.0898 136.292C46.4438 136.006 46.7077 135.726 46.7077 135.726C46.7077 135.726 48.0492 135.196 48.4823 134.467C48.8231 133.658 48.6405 133.584 48.6405 133.584Z" fill="#1CBFFC"/>
<path d="M42.7761 140.887C42.7761 140.887 42.4176 140.999 42.0614 141.199C41.7029 141.311 41.1752 141.872 41.0894 142.052C41.0037 142.233 41.1027 142.575 41.6437 142.537C43.1743 142.342 43.348 142.068 43.348 142.068C43.348 142.068 43.623 142.224 44.9644 141.694C45.3229 141.581 45.4966 141.307 45.4966 141.307C45.4966 141.307 45.7649 141.201 46.2113 140.996C46.5697 140.883 47.368 140.304 47.7132 139.669C48.0606 139.121 48.2254 138.499 47.6822 138.45C47.2292 138.394 46.343 139.067 45.8965 139.273C45.5403 139.472 45.1907 139.933 45.1907 139.933C45.1907 139.933 45.0104 139.946 44.6541 140.145C44.2979 140.344 43.405 140.756 43.405 140.756C43.405 140.756 43.3126 140.675 42.7761 140.887Z" fill="#1CBFFC"/>
<path d="M30.0633 138.463C30.4218 138.351 31.3871 137.236 32.489 137.945C32.9487 138.261 33.7801 138.988 33.9737 139.498C34.0705 139.753 33.1998 141.036 33.0394 141.832C32.8856 142.89 33.1826 143.916 33.8138 143.872C34.2646 143.84 34.8056 143.802 35.428 143.41C36.4065 142.818 37.2817 141.71 36.9077 141.212C36.1621 140.305 34.4201 139.293 33.3863 137.707C32.3524 136.122 34.1071 134.08 35.396 135.037C35.6709 135.192 37.9339 135.382 38.044 136.16C38.1585 137.111 38.528 137.435 38.8953 137.671C39.355 137.987 39.6167 137.62 40.1798 138.453C40.4614 138.87 40.2528 141.327 40.5343 141.744C40.8159 142.16 40.3081 143.504 38.7072 144.489C37.1063 145.473 36.4928 146.214 35.6945 146.794C34.8963 147.373 33.1062 148.022 32.0065 147.401C30.9068 146.78 30.0732 145.966 30.1501 145.437C30.2292 144.995 30.3963 144.46 29.7629 144.417C29.1295 144.374 28.0912 142.615 28.058 141.308C27.9546 140.792 28.6317 139 30.0633 138.463Z" fill="#1CBFFC"/>
<path d="M30.8973 132.122C31.2712 132.619 31.1987 133.322 30.7678 134.138C30.5105 134.679 30.2445 134.872 30.2467 134.959C30.3391 135.04 30.3413 135.127 30.2555 135.308C30.1808 135.924 30.0138 136.459 29.9325 136.813C29.9347 136.9 29.8467 136.994 29.8489 137.081C29.8511 137.168 29.8533 137.255 29.8556 137.342C29.3433 138.512 28.8023 138.55 28.6944 137.86C28.6944 137.86 28.6944 137.86 28.6922 137.773C28.492 137.001 28.9273 136.36 28.9096 135.664C28.8809 134.531 28.7752 133.928 28.7598 133.318C28.7487 132.883 28.8256 132.354 28.9091 132.087C29.2477 131.19 30.3363 131.376 30.8973 132.122Z" fill="#1CBFFC"/>
<path d="M104.389 125.054C112.632 115.462 104.368 110.797 108.115 105.359C111.553 100.438 121.113 106.199 113.074 117.264C110.949 120.225 107.576 123.34 104.389 125.054Z" fill="#1CBFFC"/>
<path d="M241.986 141.894C250.23 132.302 241.966 127.637 245.713 122.198C249.151 117.278 258.71 123.039 250.672 134.104C248.546 137.064 245.174 140.18 241.986 141.894Z" fill="#1CBFFC"/>
<path d="M192.39 103.238C179.024 91.4173 171.307 101.851 163.637 96.3712C156.702 91.35 166.17 79.3181 181.733 91.0138C185.9 94.1096 190.172 98.8653 192.39 103.238Z" fill="#1CBFFC"/>
<path d="M38.5882 104.69C21.2761 100.396 19.254 113.219 9.92179 111.911C1.45279 110.669 4.28878 95.6186 23.4917 98.7846C28.6161 99.6009 34.601 101.84 38.5882 104.69Z" fill="#1CBFFC"/>
<path d="M8.75427 166.029C6.47082 180.104 16.8203 180.873 16.3914 188.394C15.9584 195.224 3.78034 193.953 5.04113 178.445C5.3548 174.309 6.7457 169.393 8.75427 166.029Z" fill="#1CBFFC"/>
<path d="M287.558 217.928C287.749 218.289 287.94 219.552 285.647 220.274C283.353 220.996 282.589 220.815 282.207 220.815C282.016 220.815 282.016 221.176 280.869 221.537C279.723 221.717 278.194 222.078 277.621 222.078C277.621 222.078 277.047 222.439 276.474 222.439C275.901 222.439 273.799 222.98 273.416 222.98C272.843 222.98 272.461 222.439 272.461 222.078C272.461 221.717 272.843 221.176 274.372 220.815C275.901 220.454 276.856 219.913 276.856 220.093C277.047 220.274 276.856 220.093 277.621 219.733C278.194 219.372 280.869 218.47 281.442 218.65C281.634 218.65 281.825 218.109 283.736 217.928C285.838 217.387 287.367 217.026 287.558 217.928Z" fill="#1CBFFC"/>
<path d="M282.018 209.087C282.209 209.448 281.636 210.53 280.871 211.072C279.916 211.613 279.725 212.154 279.151 211.613C279.151 211.613 279.342 211.974 278.769 212.515C278.196 213.056 276.476 213.959 276.094 214.319C275.712 214.68 275.329 214.68 274.756 214.5C274.756 214.5 274.756 215.041 274.374 215.402C273.992 215.763 272.845 216.846 272.654 217.206C272.463 217.387 271.507 217.387 271.125 217.206C270.743 217.026 270.743 216.304 270.934 216.124C270.934 215.943 271.89 214.68 272.463 214.319C272.845 213.959 273.609 213.417 273.801 213.237C273.992 213.056 275.52 211.793 276.094 211.432C276.667 211.072 277.431 210.711 277.431 210.711C277.431 210.711 277.814 210.53 278.005 210.169C278.196 209.809 279.916 208.545 280.68 208.545C281.444 208.185 281.827 208.545 282.018 209.087Z" fill="#1CBFFC"/>
<path d="M273.037 202.41C273.419 202.59 274.183 203.312 273.61 204.395C273.037 205.477 271.317 207.101 271.126 206.921C271.126 206.921 271.317 207.643 270.362 208.725C269.024 210.349 268.833 210.169 268.642 210.349C268.642 210.349 268.642 211.251 268.259 211.793C267.877 212.334 267.113 213.417 266.348 213.597C265.584 213.777 265.202 213.597 265.011 212.875C264.82 212.154 266.157 210.349 266.348 209.808C266.54 209.627 266.731 209.447 266.731 209.447C266.731 209.447 266.731 209.267 267.113 208.184C267.686 207.282 268.259 206.38 268.259 206.199C268.642 205.658 269.215 205.297 269.215 205.297C269.215 205.297 270.17 203.312 271.317 202.59C273.037 202.229 273.037 202.41 273.037 202.41Z" fill="#1CBFFC"/>
<path d="M260.999 210.892C260.999 210.892 260.808 211.433 260.425 211.974C260.234 212.516 259.279 213.237 259.088 213.418C258.897 213.598 258.132 213.237 258.323 212.516C258.706 210.17 259.088 209.809 259.088 209.809C259.088 209.809 258.897 209.448 259.661 207.463C259.852 206.922 260.234 206.561 260.234 206.561C260.234 206.561 260.425 206.2 260.808 205.479C260.999 204.937 261.954 203.674 262.91 203.313C263.865 202.952 264.821 202.592 265.012 203.494C265.203 204.216 264.056 205.479 263.674 206.02C263.292 206.561 262.719 207.103 262.719 207.103C262.719 207.103 262.719 207.463 262.336 208.005C262.145 208.546 261.381 209.99 261.381 209.99C261.381 209.99 261.381 210.17 260.999 210.892Z" fill="#1CBFFC"/>
<path d="M265.201 230.559C265.392 230.017 267.303 228.574 265.966 226.77C265.392 226.048 264.246 224.785 263.29 224.424C262.717 224.243 260.806 225.506 259.468 225.687C257.748 225.867 256.029 225.326 256.029 224.424C256.22 223.702 256.22 222.8 256.793 221.898C257.748 220.454 259.468 219.011 260.424 219.913C261.953 221.176 263.672 223.883 266.348 225.506C269.023 227.13 272.463 224.604 270.743 222.619C270.361 222.259 270.17 218.83 268.832 218.469C267.303 218.109 266.73 217.567 266.157 217.026C265.583 216.304 266.157 215.943 264.819 215.041C264.246 214.68 260.042 214.68 259.277 214.319C258.513 213.958 256.22 214.5 254.691 217.026C253.162 219.552 251.824 220.274 250.869 221.537C249.913 222.619 248.767 225.326 249.913 227.13C250.869 228.935 252.398 230.198 253.162 230.198C253.926 230.017 254.691 229.837 254.882 230.92C255.073 232.002 257.94 233.626 260.042 233.807C261.188 233.626 264.246 232.724 265.201 230.559Z" fill="#1CBFFC"/>
<path d="M275.712 229.657C274.948 229.116 273.61 229.116 272.273 229.657C271.317 230.018 271.126 230.559 270.935 230.379C270.744 230.198 270.553 230.198 270.362 230.379C269.406 230.559 268.451 230.559 267.877 230.92C267.686 230.92 267.495 231.1 267.304 231.1C267.113 231.1 266.922 231.1 266.922 231.1C265.011 231.822 265.011 232.724 266.157 232.905C267.495 233.266 268.642 232.544 269.788 232.724C271.699 232.905 272.655 233.085 273.61 233.085C274.375 233.266 275.139 232.905 275.712 232.905C277.432 232.183 277.05 230.74 275.712 229.657Z" fill="#1CBFFC"/>
<path d="M76.9215 234.885C76.8756 235.046 76.5683 235.483 75.6548 235.112C74.7413 234.741 74.5588 234.489 74.4414 234.39C74.3827 234.34 74.2781 234.451 73.8213 234.266C73.4169 234.025 72.8427 233.741 72.6666 233.593C72.6666 233.593 72.3859 233.556 72.2098 233.408C72.0337 233.259 71.2312 232.883 71.1138 232.784C70.9377 232.636 70.9772 232.371 71.0817 232.26C71.1863 232.149 71.4605 232.082 72.0347 232.366C72.6089 232.65 73.0592 232.73 73.0069 232.786C73.0133 232.891 73.0069 232.786 73.3463 232.872C73.6269 232.91 74.7102 233.324 74.834 233.527C74.8927 233.577 75.1082 233.46 75.7475 233.898C76.55 234.275 77.1242 234.559 76.9215 234.885Z" fill="#1CBFFC"/>
<path d="M77.7765 230.741C77.7306 230.901 77.2408 231.086 76.8492 231.054C76.3988 230.974 76.1833 231.091 76.164 230.776C76.164 230.776 76.1181 230.937 75.7852 230.955C75.4523 230.973 74.6625 230.806 74.4406 230.818C74.2186 230.83 74.1012 230.731 73.9774 230.528C73.9774 230.528 73.8206 230.694 73.5986 230.706C73.3766 230.718 72.7107 230.755 72.5475 230.816C72.4365 230.822 72.143 230.575 72.0779 230.421C72.0128 230.267 72.2219 230.045 72.3329 230.039C72.3852 229.984 73.0446 229.843 73.3253 229.88C73.5473 229.868 73.9389 229.899 74.0499 229.893C74.1609 229.887 74.9964 229.894 75.2771 229.931C75.5578 229.968 75.8971 230.055 75.8971 230.055C75.8971 230.055 76.0668 230.098 76.2301 230.037C76.3933 229.975 77.2876 230.032 77.5224 230.229C77.8618 230.316 77.8746 230.525 77.7765 230.741Z" fill="#1CBFFC"/>
<path d="M76.9502 226.369C77.0154 226.523 77.041 226.942 76.5512 227.127C76.0614 227.311 75.0626 227.366 75.0562 227.261C75.0562 227.261 74.9057 227.532 74.2985 227.618C73.4171 227.771 73.4107 227.666 73.2997 227.672C73.2997 227.672 73.0383 227.949 72.764 228.017C72.4898 228.084 71.9413 228.22 71.6542 228.077C71.3671 227.935 71.302 227.781 71.4525 227.51C71.6029 227.239 72.5366 227.03 72.7522 226.913C72.8631 226.907 72.9741 226.901 72.9741 226.901C72.9741 226.901 73.0264 226.846 73.4575 226.612C73.895 226.483 74.3325 226.354 74.3848 226.299C74.6591 226.231 74.9397 226.268 74.9397 226.268C74.9397 226.268 75.8083 225.905 76.3697 225.98C77.0025 226.313 76.9502 226.369 76.9502 226.369Z" fill="#1CBFFC"/>
<path d="M70.7952 225.864C70.7952 225.864 70.5796 225.981 70.3054 226.048C70.0898 226.165 69.5872 226.14 69.4762 226.146C69.3652 226.152 69.235 225.844 69.5028 225.672C70.2999 225.05 70.5219 225.038 70.5219 225.038C70.5219 225.038 70.5677 224.878 71.3776 224.465C71.5932 224.348 71.8152 224.336 71.8152 224.336C71.8152 224.336 71.9784 224.275 72.305 224.152C72.5205 224.035 73.18 223.894 73.578 224.03C73.9761 224.166 74.3742 224.302 74.1715 224.628C74.021 224.899 73.3028 224.991 73.0286 225.059C72.7543 225.126 72.4214 225.144 72.4214 225.144C72.4214 225.144 72.3168 225.255 72.0426 225.323C71.827 225.44 71.174 225.686 71.174 225.686C71.174 225.686 71.1217 225.741 70.7952 225.864Z" fill="#1CBFFC"/>
<path d="M66.3899 232.991C66.6054 232.874 67.6107 232.924 67.7226 232.024C67.7557 231.655 67.7695 230.97 67.5805 230.613C67.4567 230.409 66.5037 230.303 66.0406 230.013C65.46 229.624 65.0885 229.014 65.35 228.737C65.6178 228.564 65.8792 228.287 66.3167 228.158C67.0285 227.962 67.975 227.962 68.0071 228.486C68.1107 229.269 67.8548 230.545 68.206 231.735C68.5573 232.925 70.3458 233.038 70.3926 231.984C70.3798 231.774 71.3145 230.672 71.0081 230.215C70.6431 229.709 70.6239 229.395 70.6046 229.081C70.6377 228.711 70.9183 228.748 70.7688 228.125C70.6973 227.866 69.4059 226.78 69.2757 226.472C69.1455 226.164 68.2842 225.737 67.0827 226.118C65.8811 226.5 65.2611 226.376 64.6016 226.517C63.9944 226.603 62.858 227.138 62.6873 227.988C62.458 228.789 62.5616 229.572 62.7964 229.77C63.0835 229.912 63.3706 230.054 63.1156 230.436C62.8606 230.818 63.2705 232.057 63.8639 232.656C64.2684 232.896 65.469 233.409 66.3899 232.991Z" fill="#1CBFFC"/>
<path d="M69.8786 235.429C69.8007 235.065 69.3898 234.72 68.8221 234.54C68.424 234.404 68.2085 234.521 68.202 234.417C68.1956 234.312 68.1369 234.262 68.0259 234.269C67.6802 234.077 67.3867 233.83 67.106 233.793C67.0473 233.744 66.9363 233.75 66.8776 233.7C66.8189 233.651 66.7602 233.602 66.7602 233.602C65.9641 233.33 65.7027 233.607 66.0026 233.958C66.3089 234.415 66.8702 234.489 67.1702 234.841C67.7049 235.39 67.9461 235.692 68.2396 235.939C68.4221 236.192 68.7615 236.279 68.9376 236.427C69.675 236.649 69.9758 236.107 69.8786 235.429Z" fill="#1CBFFC"/>
<path d="M158.924 211.05C159.209 210.88 160.244 210.64 161.023 212.283C161.802 213.927 161.711 214.507 161.741 214.791C161.756 214.932 162.056 214.904 162.445 215.726C162.685 216.562 163.104 217.667 163.149 218.092C163.149 218.092 163.493 218.488 163.538 218.913C163.583 219.338 164.197 220.854 164.226 221.137C164.271 221.562 163.851 221.888 163.551 221.916C163.251 221.944 162.771 221.703 162.352 220.598C161.932 219.493 161.408 218.827 161.558 218.813C161.693 218.657 161.558 218.813 161.198 218.274C160.854 217.878 159.895 215.965 160 215.526C159.985 215.384 159.52 215.285 159.222 213.883C158.608 212.367 158.188 211.262 158.924 211.05Z" fill="#1CBFFC"/>
<path d="M152.009 215.844C152.294 215.674 153.239 216.015 153.749 216.539C154.273 217.205 154.738 217.304 154.333 217.772C154.333 217.772 154.618 217.602 155.113 217.985C155.607 218.367 156.492 219.572 156.821 219.827C157.151 220.082 157.181 220.365 157.076 220.804C157.076 220.804 157.526 220.762 157.856 221.017C158.185 221.273 159.175 222.038 159.49 222.151C159.655 222.279 159.729 222.987 159.609 223.285C159.489 223.582 158.889 223.638 158.724 223.511C158.574 223.525 157.449 222.915 157.104 222.518C156.775 222.263 156.265 221.739 156.1 221.611C155.935 221.484 154.766 220.449 154.421 220.052C154.076 219.655 153.717 219.117 153.717 219.117C153.717 219.117 153.537 218.848 153.222 218.734C152.907 218.621 151.723 217.444 151.663 216.878C151.304 216.339 151.574 216.028 152.009 215.844Z" fill="#1CBFFC"/>
<path d="M147.155 223.022C147.275 222.724 147.815 222.102 148.76 222.442C149.705 222.783 151.189 223.931 151.054 224.087C151.054 224.087 151.639 223.889 152.614 224.512C154.068 225.377 153.933 225.533 154.098 225.661C154.098 225.661 154.848 225.59 155.328 225.831C155.808 226.072 156.767 226.555 156.977 227.107C157.186 227.66 157.066 227.957 156.481 228.155C155.896 228.353 154.292 227.502 153.827 227.403C153.662 227.275 153.497 227.147 153.497 227.147C153.497 227.147 153.347 227.161 152.417 226.963C151.622 226.608 150.827 226.253 150.677 226.267C150.198 226.026 149.853 225.63 149.853 225.63C149.853 225.63 148.128 225.076 147.439 224.283C147.005 223.036 147.155 223.022 147.155 223.022Z" fill="#1CBFFC"/>
<path d="M155.147 231.286C155.147 231.286 155.612 231.385 156.092 231.626C156.556 231.726 157.231 232.378 157.396 232.505C157.561 232.633 157.32 233.228 156.705 233.142C154.725 233.042 154.396 232.787 154.396 232.787C154.396 232.787 154.111 232.956 152.401 232.545C151.936 232.445 151.606 232.19 151.606 232.19C151.606 232.19 151.291 232.076 150.661 231.849C150.196 231.75 149.072 231.14 148.697 230.46C148.323 229.78 147.948 229.1 148.683 228.888C149.269 228.69 150.408 229.441 150.888 229.683C151.368 229.924 151.862 230.306 151.862 230.306C151.862 230.306 152.162 230.278 152.642 230.519C153.107 230.619 154.367 231.073 154.367 231.073C154.367 231.073 154.517 231.059 155.147 231.286Z" fill="#1CBFFC"/>
<path d="M171.168 226.635C170.703 226.536 169.354 225.232 167.958 226.364C167.403 226.845 166.442 227.794 166.217 228.53C166.111 228.969 167.311 230.287 167.565 231.264C167.849 232.525 167.533 233.842 166.783 233.913C166.168 233.827 165.418 233.897 164.623 233.543C163.349 232.947 162.014 231.785 162.69 231.006C163.621 229.775 165.737 228.289 166.879 226.179C168.02 224.07 165.652 221.717 164.136 223.146C163.865 223.458 161.03 223.867 160.834 224.886C160.654 226.048 160.248 226.515 159.843 226.982C159.287 227.463 158.943 227.066 158.297 228.128C158.042 228.581 158.369 231.698 158.129 232.292C157.888 232.887 158.517 234.545 160.737 235.481C162.956 236.417 163.66 237.352 164.785 237.962C165.759 238.586 168.099 239.225 169.51 238.234C170.935 237.385 171.866 236.154 171.807 235.587C171.597 235.035 171.388 234.482 172.273 234.256C173.158 234.03 174.285 231.779 174.271 230.206C174.031 229.371 173.043 227.175 171.168 226.635Z" fill="#1CBFFC"/>
<path d="M169.603 218.916C169.212 219.524 169.317 220.516 169.871 221.465C170.245 222.145 170.71 222.245 170.575 222.4C170.44 222.556 170.455 222.698 170.62 222.825C170.844 223.52 170.919 224.228 171.264 224.625C171.278 224.766 171.443 224.894 171.458 225.035C171.473 225.177 171.488 225.319 171.488 225.319C172.237 226.679 172.987 226.609 173.048 225.745C173.244 224.725 172.554 223.931 172.615 223.067C172.616 221.637 172.691 220.915 172.617 220.206C172.707 219.626 172.348 219.087 172.303 218.662C171.569 217.444 170.398 217.84 169.603 218.916Z" fill="#1CBFFC"/>
<path d="M238.476 250.479C228.023 247.012 225.724 231.322 218.55 228.441C213.436 226.233 208.5 231.134 208.868 235.743C209.737 247.013 225.196 252.837 238.476 250.479Z" fill="#1CBFFC"/>
<path d="M77.4864 175.042C69.2426 184.635 77.5069 189.299 73.76 194.738C70.3217 199.659 60.7624 193.897 68.801 182.832C70.9263 179.872 74.2991 176.757 77.4864 175.042Z" fill="#1CBFFC"/>
<path d="M115.852 205.561C108.304 214.344 115.871 218.615 112.44 223.594C109.292 228.1 100.54 222.824 107.9 212.694C109.846 209.983 112.934 207.131 115.852 205.561Z" fill="#1CBFFC"/>
<path d="M8.04936 232.064C22.3636 221.278 12.5423 212.563 19.3903 206.186C25.6522 200.429 36.8964 211.01 22.3959 223.867C18.551 227.314 12.9513 230.621 8.04936 232.064Z" fill="#1CBFFC"/>
<path d="M302.532 217.369C303.372 214.108 304.75 210.89 307.406 208.545C309.915 206.316 314.193 205.512 315.302 202.272C316.797 197.783 311.305 195.544 307.473 197.409C303.764 199.412 301.531 203.073 300.791 206.726C299.881 210.75 301.025 214.557 302.439 218.386" fill="#1CBFFC"/>
<path d="M176.21 179.211C173.726 183.18 171.624 186.428 164.744 187.872C159.967 188.955 152.705 186.97 149.266 190.759C143.15 197.616 158.056 205.374 169.331 192.924C172.771 189.135 174.873 184.444 176.21 179.211Z" fill="#1CBFFC"/>
<path d="M24.7652 295.713C24.383 295.894 22.6632 296.255 21.5166 293.548C20.37 290.842 20.5611 289.939 20.37 289.398C20.37 289.218 19.7967 289.037 19.2234 287.774C18.6501 286.511 18.0768 284.526 18.2679 283.805C18.2679 283.805 17.6946 283.263 17.6946 282.361C17.6946 281.639 16.9302 279.294 16.7391 278.572C16.7391 278.031 17.5035 277.309 17.8857 277.489C18.2679 277.489 19.0323 277.85 19.6056 279.654C20.1789 281.459 20.9433 282.542 20.7522 282.722C20.37 283.083 20.7522 282.902 21.3255 283.624C21.8988 284.346 23.4275 287.594 23.2364 288.135C23.2364 288.496 23.8097 288.496 24.5741 290.842C25.3385 293.548 25.7207 295.353 24.7652 295.713Z" fill="#1CBFFC"/>
<path d="M36.4241 288.316C35.8508 288.496 34.5131 287.955 33.5577 287.053C32.6022 285.97 32.0289 285.609 32.6022 284.888C32.6022 284.888 32.22 285.249 31.4556 284.527C30.6912 283.805 29.1624 281.82 28.7802 281.279C28.398 280.738 28.2069 280.377 28.398 279.835C28.398 279.835 27.8247 280.016 27.0604 279.475C26.4871 278.933 24.9583 277.851 24.5761 277.49C24.1939 277.129 24.1939 276.046 24.385 275.505C24.5761 274.964 25.5316 274.964 25.9138 275.144C26.296 275.144 27.8247 276.227 28.5891 276.948C28.9713 277.309 29.9268 278.392 30.1179 278.392C30.309 278.572 32.4111 280.377 32.7933 281.098C33.3666 281.82 33.7488 282.722 33.7488 282.722C33.7488 282.722 33.9399 283.083 34.5131 283.444C35.0864 283.805 36.8063 285.79 36.9974 286.692C37.5707 287.414 37.1885 287.955 36.4241 288.316Z" fill="#1CBFFC"/>
<path d="M44.8302 276.588C44.6391 276.949 43.6837 278.212 42.1549 277.49C40.435 276.949 38.3329 274.964 38.524 274.603C38.524 274.603 37.3774 274.964 36.0398 273.881C33.7466 272.438 33.9377 272.077 33.5555 271.896C33.5555 271.896 32.4089 272.077 31.6445 271.536C30.8801 271.175 29.3514 270.272 29.1603 269.37C28.9692 268.468 28.9692 267.927 29.9246 267.746C30.8801 267.746 33.5555 268.829 34.3199 269.19C34.7021 269.37 34.8932 269.551 34.8932 269.551C34.8932 269.551 35.2754 269.37 36.6131 270.092C37.9507 270.633 39.0973 271.355 39.2884 271.355C40.0528 271.896 40.6261 272.438 40.6261 272.438C40.6261 272.438 43.4926 273.34 44.448 274.783C45.2124 276.407 44.8302 276.588 44.8302 276.588Z" fill="#1CBFFC"/>
<path d="M5.27367 269.19C6.03806 269.371 8.14013 271.536 10.4333 269.912C11.3888 269.19 13.1087 267.566 13.4909 266.484C13.682 265.942 11.771 263.416 11.3888 261.792C11.0066 259.627 11.5799 257.462 12.9176 257.462C13.873 257.462 15.0196 257.462 16.3573 258.184C18.4594 259.266 20.3704 261.431 19.606 262.514C18.0772 264.499 14.4463 266.845 12.3443 270.273C10.2422 273.701 14.0641 277.671 16.7395 275.506C17.3128 275.145 22.0902 274.423 22.2813 272.799C22.4724 270.814 23.2368 270.092 24.0012 269.551C24.9567 268.829 25.53 269.551 26.6766 267.747C27.2499 266.845 26.6766 261.792 27.2499 260.89C27.8231 259.988 26.6766 257.281 23.2368 255.477C19.7971 253.673 18.4594 252.229 16.7395 251.146C15.0196 250.064 11.1977 248.981 8.90452 250.425C6.61135 251.868 4.89148 253.673 5.08257 254.755C5.27367 255.657 5.65587 256.74 4.31819 256.921C2.98051 257.101 0.878433 260.89 0.878433 263.597C0.687336 264.679 2.21612 268.288 5.27367 269.19Z" fill="#1CBFFC"/>
<path d="M7.3799 282.181C8.14429 281.098 7.95319 279.655 6.99771 278.031C6.42441 276.948 5.85112 276.587 5.85112 276.407C6.04222 276.227 6.04222 276.046 5.85112 275.685C5.66003 274.422 5.27783 273.34 5.08673 272.618C5.08673 272.437 4.89564 272.257 4.89564 272.076C4.89564 271.896 4.89564 271.716 4.89564 271.535C3.74906 269.189 2.60247 269.189 2.41138 270.633C2.41138 270.633 2.41138 270.633 2.41138 270.813C2.02918 272.437 2.98467 273.7 2.98467 275.144C2.98467 277.49 2.79357 278.753 2.79357 280.016C2.79357 280.918 2.98466 282.001 3.17576 282.542C3.94015 284.346 6.23332 283.805 7.3799 282.181Z" fill="#1CBFFC"/>
<path d="M136.69 296.409C136.817 296.258 137.487 295.776 138.558 296.733C139.629 297.69 139.738 298.117 139.935 298.316C139.974 298.394 140.26 298.364 140.777 298.803C141.293 299.242 141.963 299.995 142.033 300.344C142.033 300.344 142.397 300.47 142.588 300.861C142.741 301.174 143.57 302.047 143.806 302.324C143.921 302.558 143.743 303.016 143.539 303.01C143.373 303.082 142.965 303.07 142.334 302.396C141.702 301.722 141.141 301.398 141.186 301.283C141.275 301.054 141.147 301.205 140.746 301C140.344 300.796 138.992 299.677 138.96 299.406C138.884 299.249 138.635 299.358 137.806 298.485C136.901 297.456 136.352 296.746 136.69 296.409Z" fill="#1CBFFC"/>
<path d="M133.204 301.822C133.414 301.635 134.109 301.617 134.715 301.827C135.359 302.116 135.684 302.164 135.588 302.585C135.588 302.585 135.677 302.357 136.162 302.525C136.646 302.693 137.73 303.265 138.011 303.427C138.291 303.59 138.451 303.71 138.483 303.981C138.483 303.981 138.693 303.794 139.139 303.884C139.503 304.011 140.395 304.191 140.638 304.275C140.88 304.36 141.11 304.829 141.142 305.1C141.173 305.371 140.759 305.551 140.555 305.545C140.389 305.618 139.497 305.437 139.012 305.269C138.77 305.185 138.126 304.896 138.043 304.932C137.922 304.89 136.628 304.505 136.309 304.265C135.907 304.06 135.55 303.741 135.55 303.741C135.55 303.741 135.391 303.621 135.066 303.573C134.741 303.525 133.574 302.989 133.3 302.634C132.898 302.43 132.949 302.123 133.204 301.822Z" fill="#1CBFFC"/>
<path d="M132.041 308.497C132.047 308.304 132.194 307.576 133.01 307.6C133.87 307.509 135.203 307.972 135.196 308.165C135.196 308.165 135.617 307.792 136.427 308.008C137.727 308.2 137.721 308.393 137.925 308.399C137.925 308.399 138.384 308.104 138.83 308.194C139.238 308.206 140.092 308.308 140.367 308.663C140.641 309.018 140.756 309.253 140.38 309.512C139.965 309.692 138.576 309.729 138.168 309.717C137.964 309.711 137.842 309.669 137.842 309.669C137.842 309.669 137.715 309.819 136.982 309.759C136.287 309.778 135.637 309.682 135.554 309.718C135.108 309.628 134.744 309.501 134.744 309.501C134.744 309.501 133.31 309.652 132.589 309.207C131.914 308.647 132.041 308.497 132.041 308.497Z" fill="#1CBFFC"/>
<path d="M140.614 312.256C140.614 312.256 140.984 312.19 141.392 312.202C141.761 312.136 142.488 312.388 142.647 312.509C142.807 312.629 142.877 312.978 142.38 313.195C140.933 313.731 140.652 313.569 140.652 313.569C140.652 313.569 140.48 313.833 139.046 313.984C138.676 314.051 138.396 313.888 138.396 313.888C138.396 313.888 138.109 313.918 137.618 313.943C137.248 314.009 136.273 313.865 135.674 313.462C135.113 313.137 134.679 312.661 135.138 312.366C135.514 312.107 136.61 312.294 137.101 312.269C137.509 312.281 138.032 312.528 138.032 312.528C138.032 312.528 138.198 312.456 138.606 312.468C139.014 312.48 139.995 312.431 139.995 312.431C139.995 312.431 140.04 312.317 140.614 312.256Z" fill="#1CBFFC"/>
<path d="M150.768 304.224C150.398 304.29 149.027 303.749 148.377 304.887C148.116 305.38 147.715 306.41 147.779 306.951C147.811 307.222 149.175 307.956 149.685 308.588C150.31 309.455 150.521 310.502 149.941 310.755C149.527 310.936 149.029 311.153 148.296 311.093C147.155 311.021 145.867 310.443 145.969 309.829C146.211 308.679 147.288 306.976 147.472 305.091C147.656 303.207 145.157 302.209 144.456 303.654C144.284 303.919 142.366 305.135 142.627 305.875C142.966 306.772 142.787 307.23 142.571 307.609C142.309 308.103 141.908 307.898 141.793 308.898C141.736 309.397 143.056 311.479 142.999 311.979C142.942 312.479 144.013 313.436 145.887 313.567C147.762 313.699 148.648 314.072 149.623 314.216C150.599 314.36 152.486 314.107 153.174 313.047C153.862 311.988 154.225 310.88 153.912 310.447C153.638 310.092 153.243 309.695 153.785 309.363C154.326 309.032 154.434 306.991 153.86 305.818C153.713 305.312 152.285 304.037 150.768 304.224Z" fill="#1CBFFC"/>
<path d="M147.102 298.988C147 299.602 147.389 300.192 148.148 300.715C148.626 301.076 148.952 301.124 148.99 301.203C148.945 301.317 148.984 301.395 149.143 301.516C149.494 302.027 149.889 302.424 150.125 302.701C150.163 302.779 150.284 302.822 150.323 302.9C150.361 302.978 150.399 303.056 150.438 303.135C151.432 303.935 151.929 303.718 151.706 303.056C151.706 303.056 151.706 303.056 151.668 302.978C151.489 302.201 150.807 301.834 150.501 301.208C150.003 300.191 149.818 299.607 149.55 299.06C149.359 298.668 149.046 298.235 148.849 298.037C148.134 297.399 147.255 298.067 147.102 298.988Z" fill="#1CBFFC"/>
<path d="M281.051 300.017C281.234 299.943 282.05 299.825 282.557 301.17C283.065 302.514 282.964 302.943 283.048 303.211C283.045 303.298 283.314 303.404 283.569 304.032C283.824 304.661 284.07 305.638 283.971 305.98C283.971 305.98 284.235 306.26 284.224 306.695C284.215 307.044 284.547 308.201 284.628 308.556C284.621 308.817 284.252 309.14 284.074 309.04C283.893 309.028 283.537 308.828 283.289 307.939C283.04 307.049 282.693 306.501 282.785 306.42C282.97 306.259 282.788 306.333 282.526 305.966C282.264 305.599 281.583 303.98 281.68 303.725C281.684 303.551 281.413 303.532 281.082 302.375C280.754 301.043 280.596 300.16 281.051 300.017Z" fill="#1CBFFC"/>
<path d="M275.459 303.202C275.732 303.134 276.356 303.44 276.796 303.907C277.234 304.461 277.5 304.654 277.22 304.983C277.22 304.983 277.405 304.822 277.757 305.195C278.109 305.569 278.806 306.577 278.979 306.851C279.153 307.125 279.239 307.306 279.142 307.561C279.142 307.561 279.415 307.493 279.769 307.779C280.033 308.059 280.741 308.632 280.917 308.819C281.093 309.006 281.079 309.528 280.982 309.783C280.886 310.038 280.435 310.007 280.257 309.907C280.076 309.894 279.368 309.321 279.016 308.948C278.841 308.761 278.403 308.207 278.313 308.201C278.225 308.107 277.255 307.167 277.084 306.806C276.822 306.439 276.653 305.991 276.653 305.991C276.653 305.991 276.567 305.81 276.301 305.617C276.035 305.424 275.248 304.409 275.169 303.967C274.907 303.6 275.094 303.351 275.459 303.202Z" fill="#1CBFFC"/>
<path d="M271.348 308.584C271.442 308.416 271.909 307.838 272.621 308.237C273.426 308.555 274.394 309.582 274.299 309.75C274.299 309.75 274.844 309.614 275.462 310.181C276.527 310.953 276.432 311.121 276.61 311.221C276.61 311.221 277.153 311.171 277.507 311.458C277.864 311.657 278.574 312.143 278.653 312.585C278.732 313.027 278.726 313.288 278.272 313.343C277.822 313.312 276.573 312.701 276.216 312.502C276.038 312.402 275.95 312.309 275.95 312.309C275.95 312.309 275.768 312.383 275.145 311.99C274.521 311.685 273.989 311.299 273.898 311.292C273.544 311.006 273.281 310.726 273.281 310.726C273.281 310.726 271.939 310.196 271.506 309.467C271.165 308.658 271.348 308.584 271.348 308.584Z" fill="#1CBFFC"/>
<path d="M277.212 315.887C277.212 315.887 277.571 315.999 277.927 316.199C278.285 316.311 278.813 316.872 278.899 317.052C278.985 317.233 278.886 317.575 278.345 317.537C276.814 317.342 276.64 317.068 276.64 317.068C276.64 317.068 276.365 317.224 275.024 316.694C274.665 316.581 274.492 316.307 274.492 316.307C274.492 316.307 274.223 316.201 273.777 315.996C273.419 315.883 272.62 315.304 272.275 314.669C271.928 314.121 271.763 313.499 272.306 313.45C272.759 313.394 273.645 314.067 274.092 314.273C274.448 314.472 274.798 314.933 274.798 314.933C274.798 314.933 274.978 314.946 275.334 315.145C275.69 315.344 276.583 315.756 276.583 315.756C276.583 315.756 276.676 315.675 277.212 315.887Z" fill="#1CBFFC"/>
<path d="M289.925 313.463C289.566 313.351 288.601 312.236 287.499 312.945C287.04 313.261 286.208 313.988 286.015 314.498C285.918 314.753 286.788 316.036 286.949 316.832C287.103 317.89 286.806 318.916 286.174 318.872C285.724 318.84 285.183 318.802 284.56 318.41C283.582 317.818 282.707 316.71 283.081 316.212C283.826 315.305 285.568 314.293 286.602 312.707C287.636 311.122 285.881 309.08 284.592 310.037C284.317 310.192 282.054 310.382 281.944 311.16C281.83 312.111 281.46 312.435 281.093 312.671C280.633 312.987 280.372 312.62 279.808 313.453C279.527 313.87 279.736 316.327 279.454 316.744C279.172 317.16 279.68 318.504 281.281 319.489C282.882 320.473 283.495 321.214 284.294 321.794C285.092 322.373 286.882 323.022 287.982 322.401C289.081 321.78 289.915 320.966 289.838 320.437C289.759 319.995 289.592 319.46 290.225 319.417C290.859 319.374 291.897 317.615 291.93 316.308C292.034 315.792 291.357 314 289.925 313.463Z" fill="#1CBFFC"/>
<path d="M289.091 307.122C288.717 307.619 288.79 308.322 289.22 309.138C289.478 309.679 289.744 309.872 289.742 309.959C289.649 310.04 289.647 310.127 289.733 310.308C289.807 310.924 289.975 311.459 290.056 311.813C290.054 311.9 290.142 311.994 290.139 312.081C290.137 312.168 290.135 312.255 290.133 312.342C290.645 313.512 291.186 313.55 291.294 312.86C291.294 312.86 291.294 312.86 291.296 312.773C291.496 312.001 291.061 311.36 291.079 310.664C291.107 309.531 291.213 308.928 291.229 308.318C291.24 307.883 291.163 307.354 291.079 307.087C290.741 306.19 289.652 306.376 289.091 307.122Z" fill="#1CBFFC"/>
<path d="M215.608 300.053C207.364 290.461 215.628 285.796 211.881 280.358C208.443 275.437 198.883 281.198 206.922 292.263C209.047 295.224 212.42 298.339 215.608 300.053Z" fill="#1CBFFC"/>
<path d="M78.006 316.893C69.7621 307.301 78.0264 302.636 74.2796 297.198C70.8412 292.277 61.2819 298.038 69.3205 309.103C71.4458 312.063 74.8186 315.179 78.006 316.893Z" fill="#1CBFFC"/>
<path d="M127.594 278.237C140.96 266.416 148.677 276.85 156.348 271.37C163.283 266.349 153.815 254.317 138.251 266.013C134.085 269.109 129.813 273.864 127.594 278.237Z" fill="#1CBFFC"/>
<path d="M281.396 279.689C298.708 275.395 300.73 288.218 310.063 286.91C318.532 285.668 315.696 270.618 296.493 273.784C291.368 274.6 285.383 276.839 281.396 279.689Z" fill="#1CBFFC"/>
<path d="M312.726 344.923C313.829 362.726 300.852 362.404 300.457 371.819C300.152 380.374 315.467 380.296 315.814 360.837C315.934 355.649 314.81 349.359 312.726 344.923Z" fill="#1CBFFC"/>
<path d="M32.4066 390.929C32.2155 391.29 32.0244 392.553 34.3176 393.274C36.6109 393.996 37.3753 393.816 37.7575 393.816C37.9486 393.816 37.9486 394.177 39.0953 394.537C40.2419 394.718 41.7707 395.079 42.3441 395.079C42.3441 395.079 42.9174 395.44 43.4907 395.44C44.064 395.44 46.1662 395.981 46.5484 395.981C47.1217 395.981 47.5039 395.44 47.5039 395.079C47.5039 394.718 47.1217 394.177 45.5929 393.816C44.064 393.455 43.1085 392.913 43.1085 393.094C42.9174 393.274 43.1085 393.094 42.3441 392.733C41.7707 392.372 39.0953 391.47 38.522 391.65C38.3308 391.65 38.1397 391.109 36.2287 390.929C34.1265 390.387 32.5977 390.026 32.4066 390.929Z" fill="#1CBFFC"/>
<path d="M37.9505 382.088C37.7594 382.449 38.3327 383.532 39.0971 384.073C40.0527 384.614 40.2438 385.156 40.8171 384.614C40.8171 384.614 40.626 384.975 41.1993 385.516C41.7726 386.058 43.4926 386.96 43.8748 387.321C44.257 387.682 44.6392 387.682 45.2125 387.501C45.2125 387.501 45.2125 388.043 45.5947 388.404C45.9769 388.764 47.1236 389.847 47.3147 390.208C47.5058 390.388 48.4613 390.388 48.8435 390.208C49.2257 390.027 49.2257 389.306 49.0346 389.125C49.0346 388.945 48.0791 387.682 47.5058 387.321C47.1236 386.96 46.3592 386.419 46.168 386.238C45.9769 386.058 44.4481 384.795 43.8748 384.434C43.3015 384.073 42.537 383.712 42.537 383.712C42.537 383.712 42.1548 383.532 41.9637 383.171C41.7726 382.81 40.0527 381.547 39.2883 381.547C38.5238 381.186 38.1416 381.547 37.9505 382.088Z" fill="#1CBFFC"/>
<path d="M46.9315 375.41C46.5493 375.591 45.7849 376.312 46.3582 377.395C46.9315 378.478 48.6515 380.102 48.8426 379.921C48.8426 379.921 48.6515 380.643 49.607 381.726C50.9447 383.35 51.1358 383.169 51.3269 383.35C51.3269 383.35 51.3269 384.252 51.7091 384.793C52.0914 385.334 52.8558 386.417 53.6202 386.598C54.3846 386.778 54.7668 386.598 54.9579 385.876C55.149 385.154 53.8113 383.35 53.6202 382.808C53.4291 382.628 53.238 382.447 53.238 382.447C53.238 382.447 53.238 382.267 52.8558 381.184C52.2825 380.282 51.7091 379.38 51.7091 379.199C51.3269 378.658 50.7536 378.297 50.7536 378.297C50.7536 378.297 49.7981 376.312 48.6515 375.591C46.9315 375.23 46.9315 375.41 46.9315 375.41Z" fill="#1CBFFC"/>
<path d="M58.9699 383.892C58.9699 383.892 59.161 384.434 59.5432 384.975C59.7343 385.516 60.6898 386.238 60.8809 386.418C61.072 386.599 61.8365 386.238 61.6454 385.516C61.2632 383.17 60.8809 382.81 60.8809 382.81C60.8809 382.81 61.0721 382.449 60.3076 380.464C60.1165 379.923 59.7343 379.562 59.7343 379.562C59.7343 379.562 59.5432 379.201 59.161 378.479C58.9699 377.938 58.0144 376.675 57.0588 376.314C56.1033 375.953 55.1478 375.592 54.9567 376.494C54.7656 377.216 55.9122 378.479 56.2944 379.02C56.6766 379.562 57.2499 380.103 57.2499 380.103C57.2499 380.103 57.2499 380.464 57.6322 381.005C57.8233 381.546 58.5877 382.99 58.5877 382.99C58.5877 382.99 58.5877 383.17 58.9699 383.892Z" fill="#1CBFFC"/>
<path d="M54.7668 403.56C54.5757 403.019 52.6647 401.575 54.0024 399.771C54.5757 399.049 55.7224 397.786 56.6779 397.425C57.2512 397.245 59.1623 398.508 60.5 398.688C62.2199 398.869 63.9399 398.327 63.9399 397.425C63.7488 396.703 63.7488 395.801 63.1755 394.899C62.22 393.456 60.5 392.012 59.5445 392.914C58.0156 394.177 56.2957 396.884 53.6202 398.508C50.9447 400.132 47.5048 397.606 49.2248 395.621C49.607 395.26 49.7981 391.832 51.1358 391.471C52.6647 391.11 53.238 390.568 53.8113 390.027C54.3846 389.305 53.8113 388.945 55.149 388.042C55.7224 387.681 59.9267 387.681 60.6911 387.321C61.4555 386.96 63.7488 387.501 65.2776 390.027C66.8065 392.553 68.1442 393.275 69.0997 394.538C70.0553 395.621 71.2019 398.327 70.0553 400.132C69.0997 401.936 67.5709 403.199 66.8065 403.199C66.0421 403.019 65.2776 402.838 65.0865 403.921C64.8954 405.004 62.0288 406.628 59.9267 406.808C58.78 406.628 55.7224 405.725 54.7668 403.56Z" fill="#1CBFFC"/>
<path d="M44.2559 402.657C45.0204 402.116 46.3581 402.116 47.6959 402.657C48.6514 403.018 48.8425 403.56 49.0336 403.379C49.2247 403.199 49.4158 403.199 49.6069 403.379C50.5624 403.56 51.518 403.56 52.0913 403.92C52.2824 403.92 52.4735 404.101 52.6646 404.101C52.8557 404.101 53.0468 404.101 53.0468 404.101C54.9579 404.823 54.9579 405.725 53.8112 405.905C52.4735 406.266 51.3268 405.544 50.1802 405.725C48.2692 405.905 47.3136 406.086 46.3581 406.086C45.5937 406.266 44.8293 405.905 44.2559 405.905C42.536 405.184 42.9182 403.74 44.2559 402.657Z" fill="#1CBFFC"/>
<path d="M243.051 407.887C243.097 408.047 243.404 408.484 244.318 408.114C245.231 407.743 245.414 407.49 245.531 407.391C245.59 407.342 245.694 407.453 246.151 407.267C246.556 407.027 247.13 406.743 247.306 406.594C247.306 406.594 247.587 406.557 247.763 406.409C247.939 406.261 248.741 405.884 248.859 405.785C249.035 405.637 248.995 405.372 248.891 405.261C248.786 405.151 248.512 405.083 247.938 405.367C247.364 405.651 246.913 405.732 246.966 405.787C246.959 405.892 246.966 405.787 246.626 405.874C246.346 405.911 245.262 406.325 245.139 406.529C245.08 406.578 244.864 406.461 244.225 406.899C243.422 407.276 242.848 407.56 243.051 407.887Z" fill="#1CBFFC"/>
<path d="M242.196 403.741C242.242 403.902 242.732 404.086 243.123 404.055C243.574 403.974 243.789 404.091 243.808 403.777C243.808 403.777 243.854 403.937 244.187 403.955C244.52 403.973 245.31 403.806 245.532 403.818C245.754 403.83 245.871 403.732 245.995 403.528C245.995 403.528 246.152 403.694 246.374 403.707C246.596 403.719 247.262 403.755 247.425 403.817C247.536 403.823 247.83 403.576 247.895 403.422C247.96 403.267 247.751 403.046 247.64 403.04C247.587 402.984 246.928 402.843 246.647 402.88C246.425 402.868 246.034 402.899 245.923 402.893C245.812 402.887 244.976 402.894 244.695 402.931C244.415 402.969 244.075 403.055 244.075 403.055C244.075 403.055 243.906 403.099 243.742 403.037C243.579 402.976 242.685 403.032 242.45 403.23C242.111 403.316 242.098 403.526 242.196 403.741Z" fill="#1CBFFC"/>
<path d="M243.022 399.37C242.957 399.525 242.931 399.944 243.421 400.128C243.911 400.313 244.91 400.367 244.916 400.262C244.916 400.262 245.067 400.533 245.674 400.619C246.555 400.772 246.562 400.668 246.673 400.674C246.673 400.674 246.934 400.951 247.209 401.018C247.483 401.086 248.031 401.221 248.318 401.079C248.606 400.937 248.671 400.783 248.52 400.512C248.37 400.241 247.436 400.032 247.22 399.915C247.109 399.909 246.998 399.903 246.998 399.903C246.998 399.903 246.946 399.847 246.515 399.614C246.078 399.485 245.64 399.356 245.588 399.3C245.313 399.233 245.033 399.27 245.033 399.27C245.033 399.27 244.164 398.907 243.603 398.981C242.97 399.315 243.022 399.37 243.022 399.37Z" fill="#1CBFFC"/>
<path d="M249.177 398.865C249.177 398.865 249.393 398.982 249.667 399.05C249.883 399.167 250.385 399.142 250.496 399.148C250.607 399.154 250.738 398.845 250.47 398.673C249.673 398.051 249.451 398.039 249.451 398.039C249.451 398.039 249.405 397.879 248.595 397.467C248.379 397.35 248.157 397.338 248.157 397.338C248.157 397.338 247.994 397.276 247.668 397.153C247.452 397.036 246.793 396.895 246.394 397.031C245.996 397.167 245.598 397.303 245.801 397.63C245.951 397.901 246.67 397.993 246.944 398.06C247.218 398.128 247.551 398.146 247.551 398.146C247.551 398.146 247.656 398.257 247.93 398.324C248.146 398.441 248.799 398.687 248.799 398.687C248.799 398.687 248.851 398.742 249.177 398.865Z" fill="#1CBFFC"/>
<path d="M253.583 405.992C253.367 405.875 252.362 405.926 252.25 405.026C252.217 404.656 252.203 403.972 252.392 403.614C252.516 403.411 253.469 403.305 253.932 403.015C254.512 402.626 254.884 402.015 254.623 401.738C254.355 401.566 254.093 401.289 253.656 401.16C252.944 400.963 251.997 400.964 251.965 401.488C251.862 402.271 252.118 403.547 251.766 404.737C251.415 405.927 249.626 406.039 249.58 404.985C249.592 404.776 248.658 403.673 248.964 403.217C249.329 402.711 249.348 402.397 249.368 402.082C249.335 401.712 249.054 401.75 249.203 401.127C249.275 400.868 250.566 399.782 250.697 399.473C250.827 399.165 251.688 398.739 252.89 399.12C254.091 399.501 254.711 399.377 255.371 399.518C255.978 399.604 257.115 400.139 257.285 400.99C257.515 401.791 257.411 402.574 257.176 402.771C256.889 402.913 256.602 403.055 256.857 403.437C257.112 403.819 256.702 405.059 256.109 405.657C255.704 405.898 254.503 406.411 253.583 405.992Z" fill="#1CBFFC"/>
<path d="M250.094 408.431C250.172 408.067 250.583 407.721 251.15 407.542C251.549 407.406 251.764 407.523 251.771 407.418C251.777 407.313 251.836 407.264 251.947 407.27C252.292 407.079 252.586 406.832 252.867 406.794C252.925 406.745 253.036 406.751 253.095 406.702C253.154 406.652 253.212 406.603 253.212 406.603C254.009 406.331 254.27 406.608 253.97 406.96C253.664 407.416 253.102 407.491 252.802 407.842C252.268 408.392 252.026 408.694 251.733 408.941C251.55 409.194 251.211 409.28 251.035 409.428C250.298 409.651 249.997 409.109 250.094 408.431Z" fill="#1CBFFC"/>
<path d="M161.073 384.05C160.788 383.88 159.752 383.64 158.974 385.284C158.195 386.927 158.285 387.508 158.255 387.791C158.24 387.933 157.94 387.905 157.551 388.726C157.312 389.562 156.892 390.667 156.848 391.092C156.848 391.092 156.503 391.489 156.458 391.914C156.414 392.339 155.8 393.855 155.77 394.138C155.725 394.563 156.145 394.888 156.445 394.917C156.745 394.945 157.225 394.704 157.645 393.599C158.064 392.493 158.588 391.827 158.438 391.813C158.303 391.658 158.438 391.813 158.798 391.275C159.143 390.878 160.101 388.965 159.996 388.526C160.011 388.385 160.476 388.285 160.775 386.883C161.389 385.367 161.808 384.262 161.073 384.05Z" fill="#1CBFFC"/>
<path d="M167.991 388.844C167.706 388.675 166.761 389.015 166.252 389.539C165.727 390.205 165.262 390.305 165.667 390.772C165.667 390.772 165.382 390.602 164.887 390.985C164.393 391.368 163.509 392.572 163.179 392.827C162.849 393.083 162.819 393.366 162.924 393.805C162.924 393.805 162.474 393.763 162.145 394.018C161.815 394.273 160.825 395.038 160.51 395.152C160.345 395.28 160.271 395.988 160.391 396.285C160.511 396.583 161.111 396.639 161.276 396.511C161.426 396.525 162.551 395.915 162.896 395.519C163.226 395.264 163.735 394.739 163.9 394.612C164.065 394.484 165.234 393.449 165.579 393.052C165.924 392.656 166.283 392.117 166.283 392.117C166.283 392.117 166.463 391.848 166.778 391.734C167.093 391.621 168.277 390.445 168.337 389.878C168.697 389.34 168.426 389.028 167.991 388.844Z" fill="#1CBFFC"/>
<path d="M172.842 396.022C172.722 395.725 172.181 395.102 171.236 395.443C170.291 395.783 168.807 396.931 168.942 397.087C168.942 397.087 168.357 396.889 167.383 397.513C165.928 398.378 166.063 398.534 165.898 398.661C165.898 398.661 165.148 398.591 164.668 398.832C164.189 399.073 163.229 399.555 163.019 400.108C162.81 400.66 162.93 400.958 163.515 401.155C164.1 401.353 165.705 400.503 166.17 400.403C166.335 400.275 166.499 400.148 166.499 400.148C166.499 400.148 166.649 400.162 167.579 399.963C168.374 399.608 169.169 399.254 169.319 399.268C169.799 399.027 170.144 398.63 170.144 398.63C170.144 398.63 171.868 398.077 172.558 397.283C172.992 396.036 172.842 396.022 172.842 396.022Z" fill="#1CBFFC"/>
<path d="M164.849 404.285C164.849 404.285 164.384 404.385 163.905 404.626C163.44 404.725 162.765 405.377 162.6 405.505C162.435 405.632 162.676 406.227 163.291 406.142C165.271 406.041 165.601 405.786 165.601 405.786C165.601 405.786 165.886 405.956 167.596 405.544C168.06 405.445 168.39 405.189 168.39 405.189C168.39 405.189 168.705 405.076 169.335 404.849C169.8 404.749 170.925 404.14 171.299 403.46C171.674 402.78 172.048 402.099 171.313 401.887C170.728 401.69 169.588 402.441 169.109 402.682C168.629 402.923 168.134 403.306 168.134 403.306C168.134 403.306 167.834 403.278 167.354 403.519C166.889 403.618 165.629 404.072 165.629 404.072C165.629 404.072 165.479 404.058 164.849 404.285Z" fill="#1CBFFC"/>
<path d="M148.828 399.636C149.293 399.536 150.642 398.232 152.038 399.364C152.593 399.846 153.554 400.794 153.78 401.53C153.885 401.969 152.686 403.287 152.432 404.265C152.147 405.526 152.463 406.843 153.214 406.913C153.829 406.828 154.579 406.898 155.373 406.543C156.648 405.948 157.982 404.785 157.307 404.007C156.376 402.775 154.26 401.289 153.118 399.18C151.976 397.07 154.345 394.717 155.861 396.147C156.131 396.458 158.967 396.867 159.162 397.887C159.343 399.048 159.749 399.515 160.154 399.982C160.709 400.464 161.054 400.067 161.7 401.129C161.955 401.582 161.627 404.698 161.868 405.293C162.108 405.887 161.48 407.545 159.26 408.481C157.041 409.417 156.336 410.353 155.212 410.962C154.237 411.586 151.897 412.225 150.487 411.235C149.061 410.386 148.13 409.154 148.189 408.587C148.399 408.035 148.609 407.482 147.723 407.256C146.838 407.03 145.712 404.779 145.725 403.207C145.965 402.371 146.953 400.175 148.828 399.636Z" fill="#1CBFFC"/>
<path d="M150.394 391.917C150.784 392.526 150.68 393.517 150.125 394.467C149.751 395.147 149.286 395.246 149.421 395.402C149.556 395.558 149.541 395.699 149.376 395.827C149.152 396.521 149.077 397.229 148.733 397.626C148.718 397.768 148.553 397.895 148.538 398.037C148.523 398.179 148.508 398.32 148.508 398.32C147.759 399.68 147.009 399.61 146.948 398.746C146.753 397.726 147.442 396.933 147.381 396.069C147.38 394.638 147.305 393.916 147.379 393.208C147.289 392.627 147.649 392.089 147.693 391.664C148.427 390.445 149.598 390.841 150.394 391.917Z" fill="#1CBFFC"/>
<path d="M81.4994 423.48C91.9522 420.013 94.2521 404.322 101.426 401.441C106.54 399.233 111.477 404.134 111.109 408.743C110.239 420.014 94.7795 425.838 81.4994 423.48Z" fill="#1CBFFC"/>
<path d="M242.501 348.043C250.745 357.635 242.481 362.3 246.228 367.739C249.666 372.66 259.226 366.898 251.187 355.833C249.062 352.873 245.689 349.757 242.501 348.043Z" fill="#1CBFFC"/>
<path d="M204.135 378.562C211.684 387.344 204.117 391.615 207.547 396.595C210.696 401.1 219.448 395.825 212.088 385.694C210.142 382.984 207.054 380.131 204.135 378.562Z" fill="#1CBFFC"/>
<path d="M311.936 405.064C297.621 394.278 307.443 385.564 300.595 379.186C294.333 373.43 283.088 384.011 297.589 396.868C301.434 400.315 307.034 403.621 311.936 405.064Z" fill="#1CBFFC"/>
<path d="M17.4493 390.369C16.6091 387.107 15.2303 383.89 12.5749 381.545C10.0657 379.316 5.78766 378.511 4.67818 375.272C3.18341 370.783 8.67551 368.543 12.5078 370.408C16.2171 372.412 18.4501 376.072 19.1905 379.726C20.1003 383.75 18.9558 387.557 17.5421 391.386" fill="#1CBFFC"/>
<path d="M143.773 352.21C146.257 356.18 148.359 359.428 155.239 360.871C160.017 361.954 167.279 359.969 170.719 363.758C176.834 370.615 161.928 378.374 150.653 365.924C147.213 362.134 145.111 357.443 143.773 352.21Z" fill="#1CBFFC"/>
<path d="M295.223 468.712C295.605 468.892 297.325 469.253 298.472 466.547C299.619 463.84 299.427 462.938 299.619 462.397C299.619 462.216 300.192 462.036 300.765 460.773C301.338 459.51 301.912 457.525 301.721 456.803C301.721 456.803 302.294 456.262 302.294 455.359C302.294 454.638 303.058 452.292 303.25 451.57C303.25 451.029 302.485 450.307 302.103 450.488C301.721 450.488 300.956 450.848 300.383 452.653C299.81 454.457 299.045 455.54 299.236 455.72C299.619 456.081 299.236 455.901 298.663 456.623C298.09 457.344 296.561 460.592 296.752 461.134C296.752 461.494 296.179 461.494 295.414 463.84C294.65 466.547 294.268 468.351 295.223 468.712Z" fill="#1CBFFC"/>
<path d="M283.576 461.315C284.149 461.495 285.487 460.954 286.443 460.051C287.398 458.969 287.971 458.608 287.398 457.886C287.398 457.886 287.78 458.247 288.545 457.525C289.309 456.804 290.838 454.819 291.22 454.277C291.602 453.736 291.793 453.375 291.602 452.834C291.602 452.834 292.176 453.014 292.94 452.473C293.513 451.932 295.042 450.849 295.424 450.488C295.807 450.127 295.807 449.045 295.616 448.503C295.424 447.962 294.469 447.962 294.087 448.142C293.705 448.142 292.176 449.225 291.411 449.947C291.029 450.308 290.074 451.39 289.882 451.39C289.691 451.571 287.589 453.375 287.207 454.097C286.634 454.819 286.251 455.721 286.251 455.721C286.251 455.721 286.06 456.082 285.487 456.443C284.914 456.804 283.194 458.788 283.003 459.691C282.429 460.412 282.811 460.954 283.576 461.315Z" fill="#1CBFFC"/>
<path d="M275.166 449.585C275.357 449.946 276.312 451.209 277.841 450.488C279.561 449.946 281.663 447.961 281.472 447.601C281.472 447.601 282.619 447.961 283.957 446.879C286.25 445.435 286.059 445.074 286.441 444.894C286.441 444.894 287.588 445.074 288.352 444.533C289.117 444.172 290.645 443.27 290.837 442.368C291.028 441.466 291.028 440.924 290.072 440.744C289.117 440.744 286.441 441.826 285.677 442.187C285.294 442.368 285.103 442.548 285.103 442.548C285.103 442.548 284.721 442.368 283.383 443.09C282.046 443.631 280.899 444.353 280.708 444.353C279.944 444.894 279.37 445.435 279.37 445.435C279.37 445.435 276.504 446.337 275.548 447.781C274.784 449.405 275.166 449.585 275.166 449.585Z" fill="#1CBFFC"/>
<path d="M314.712 442.188C313.947 442.368 311.845 444.533 309.552 442.91C308.596 442.188 306.876 440.564 306.494 439.481C306.303 438.94 308.214 436.414 308.596 434.79C308.979 432.624 308.405 430.459 307.067 430.459C306.112 430.459 304.965 430.459 303.628 431.181C301.525 432.264 299.614 434.429 300.379 435.511C301.908 437.496 305.539 439.842 307.641 443.27C309.743 446.699 305.921 450.668 303.245 448.503C302.672 448.142 297.894 447.421 297.703 445.797C297.512 443.812 296.748 443.09 295.983 442.549C295.028 441.827 294.454 442.549 293.308 440.744C292.735 439.842 293.308 434.79 292.735 433.888C292.161 432.985 293.308 430.279 296.748 428.474C300.188 426.67 301.525 425.226 303.245 424.144C304.965 423.061 308.787 421.978 311.081 423.422C313.374 424.866 315.094 426.67 314.903 427.753C314.712 428.655 314.329 429.737 315.667 429.918C317.005 430.098 319.107 433.888 319.107 436.594C319.298 437.677 317.769 441.286 314.712 442.188Z" fill="#1CBFFC"/>
<path d="M312.608 455.179C311.844 454.096 312.035 452.652 312.991 451.028C313.564 449.946 314.137 449.585 314.137 449.404C313.946 449.224 313.946 449.044 314.137 448.683C314.328 447.42 314.711 446.337 314.902 445.615C314.902 445.435 315.093 445.254 315.093 445.074C315.093 444.893 315.093 444.713 315.093 444.533C316.239 442.187 317.386 442.187 317.577 443.63C317.577 443.63 317.577 443.63 317.577 443.811C317.959 445.435 317.004 446.698 317.004 448.141C317.004 450.487 317.195 451.75 317.195 453.013C317.195 453.915 317.004 454.998 316.813 455.539C316.048 457.344 313.755 456.802 312.608 455.179Z" fill="#1CBFFC"/>
<path d="M183.326 469.416C183.198 469.266 182.529 468.784 181.458 469.741C180.386 470.697 180.278 471.125 180.08 471.323C180.042 471.401 179.755 471.371 179.238 471.811C178.722 472.25 178.052 473.002 177.982 473.351C177.982 473.351 177.619 473.477 177.427 473.869C177.274 474.182 176.445 475.054 176.209 475.331C176.094 475.566 176.273 476.023 176.477 476.017C176.642 476.09 177.05 476.078 177.682 475.404C178.313 474.73 178.874 474.405 178.83 474.291C178.74 474.062 178.868 474.212 179.27 474.008C179.671 473.803 181.023 472.684 181.055 472.413C181.132 472.257 181.38 472.365 182.209 471.492C183.115 470.463 183.663 469.753 183.326 469.416Z" fill="#1CBFFC"/>
<path d="M186.812 474.83C186.602 474.643 185.907 474.625 185.301 474.835C184.657 475.124 184.332 475.172 184.427 475.594C184.427 475.594 184.338 475.365 183.854 475.533C183.369 475.702 182.285 476.273 182.005 476.436C181.724 476.598 181.565 476.718 181.533 476.989C181.533 476.989 181.322 476.803 180.876 476.893C180.513 477.019 179.62 477.199 179.378 477.284C179.135 477.368 178.906 477.837 178.874 478.108C178.842 478.379 179.256 478.56 179.46 478.554C179.626 478.626 180.518 478.446 181.003 478.277C181.245 478.193 181.889 477.904 181.972 477.941C182.093 477.898 183.388 477.514 183.706 477.273C184.108 477.068 184.465 476.749 184.465 476.749C184.465 476.749 184.625 476.629 184.95 476.581C185.275 476.533 186.442 475.998 186.716 475.643C187.118 475.438 187.067 475.131 186.812 474.83Z" fill="#1CBFFC"/>
<path d="M187.975 481.505C187.968 481.313 187.822 480.584 187.006 480.608C186.145 480.517 184.813 480.981 184.819 481.173C184.819 481.173 184.398 480.8 183.589 481.016C182.288 481.208 182.294 481.401 182.09 481.407C182.09 481.407 181.631 481.112 181.185 481.202C180.777 481.214 179.923 481.316 179.649 481.671C179.374 482.026 179.26 482.261 179.636 482.52C180.05 482.701 181.44 482.737 181.848 482.725C182.052 482.719 182.173 482.677 182.173 482.677C182.173 482.677 182.3 482.828 183.034 482.768C183.728 482.786 184.379 482.69 184.462 482.726C184.908 482.636 185.271 482.51 185.271 482.51C185.271 482.51 186.706 482.661 187.426 482.215C188.102 481.656 187.975 481.505 187.975 481.505Z" fill="#1CBFFC"/>
<path d="M179.394 485.264C179.394 485.264 179.024 485.197 178.616 485.209C178.246 485.143 177.519 485.395 177.36 485.516C177.201 485.636 177.13 485.985 177.628 486.202C179.075 486.738 179.355 486.576 179.355 486.576C179.355 486.576 179.527 486.841 180.962 486.992C181.331 487.058 181.612 486.896 181.612 486.896C181.612 486.896 181.899 486.926 182.39 486.95C182.759 487.016 183.735 486.872 184.334 486.469C184.895 486.144 185.329 485.669 184.87 485.374C184.494 485.115 183.397 485.301 182.906 485.277C182.498 485.289 181.976 485.535 181.976 485.535C181.976 485.535 181.81 485.463 181.402 485.475C180.994 485.487 180.012 485.438 180.012 485.438C180.012 485.438 179.968 485.324 179.394 485.264Z" fill="#1CBFFC"/>
<path d="M169.248 477.231C169.617 477.297 170.988 476.756 171.638 477.894C171.899 478.387 172.301 479.417 172.237 479.959C172.205 480.23 170.84 480.964 170.33 481.595C169.705 482.462 169.494 483.509 170.074 483.762C170.489 483.943 170.986 484.16 171.719 484.1C172.86 484.028 174.148 483.451 174.046 482.837C173.804 481.687 172.728 479.983 172.543 478.099C172.359 476.215 174.858 475.216 175.559 476.661C175.731 476.926 177.65 478.142 177.388 478.883C177.05 479.78 177.228 480.237 177.445 480.616C177.706 481.11 178.108 480.906 178.222 481.905C178.28 482.405 176.959 484.487 177.016 484.987C177.074 485.486 176.002 486.443 174.128 486.575C172.254 486.707 171.367 487.08 170.392 487.224C169.417 487.368 167.53 487.115 166.841 486.055C166.153 484.995 165.79 483.887 166.103 483.454C166.377 483.099 166.772 482.702 166.231 482.371C165.689 482.039 165.581 479.999 166.155 478.825C166.302 478.32 167.73 477.044 169.248 477.231Z" fill="#1CBFFC"/>
<path d="M172.913 471.995C173.015 472.609 172.626 473.199 171.867 473.723C171.389 474.084 171.064 474.132 171.026 474.21C171.07 474.324 171.032 474.403 170.873 474.523C170.522 475.035 170.126 475.432 169.89 475.709C169.852 475.787 169.731 475.829 169.693 475.907C169.654 475.985 169.616 476.064 169.578 476.142C168.583 476.942 168.086 476.725 168.309 476.063C168.309 476.063 168.309 476.063 168.348 475.985C168.526 475.209 169.209 474.842 169.515 474.216C170.012 473.198 170.197 472.615 170.465 472.067C170.657 471.676 170.969 471.242 171.167 471.044C171.881 470.406 172.761 471.074 172.913 471.995Z" fill="#1CBFFC"/>
<path d="M38.9177 473.014C38.7351 472.94 37.9191 472.822 37.4113 474.167C36.9034 475.511 37.0047 475.94 36.9211 476.208C36.9233 476.295 36.655 476.401 36.4 477.029C36.145 477.658 35.8988 478.635 35.9978 478.977C35.9978 478.977 35.7339 479.257 35.745 479.693C35.7538 480.041 35.4219 481.198 35.3406 481.553C35.3472 481.814 35.7167 482.137 35.8949 482.038C36.0752 482.025 36.4315 481.826 36.6799 480.936C36.9283 480.046 37.2757 479.498 37.1833 479.417C36.9985 479.256 37.1811 479.33 37.4427 478.963C37.7044 478.596 38.386 476.978 38.2892 476.723C38.2847 476.548 38.5553 476.529 38.8872 475.372C39.2147 474.04 39.3729 473.157 38.9177 473.014Z" fill="#1CBFFC"/>
<path d="M44.5137 476.201C44.241 476.132 43.6164 476.438 43.1766 476.905C42.739 477.459 42.473 477.652 42.7523 477.981C42.7523 477.981 42.5675 477.82 42.2157 478.193C41.8639 478.567 41.1668 479.576 40.9931 479.849C40.8194 480.123 40.7337 480.304 40.8305 480.559C40.8305 480.559 40.5577 480.491 40.2037 480.777C39.9398 481.057 39.2317 481.63 39.0558 481.817C38.8799 482.004 38.8931 482.527 38.9899 482.782C39.0868 483.036 39.5376 483.005 39.7157 482.905C39.8961 482.893 40.6042 482.32 40.956 481.946C41.1319 481.759 41.5695 481.205 41.6597 481.199C41.7477 481.105 42.7174 480.165 42.8889 479.804C43.1506 479.437 43.3199 478.989 43.3199 478.989C43.3199 478.989 43.4056 478.808 43.6717 478.615C43.9378 478.422 44.725 477.407 44.8041 476.965C45.0658 476.598 44.8788 476.349 44.5137 476.201Z" fill="#1CBFFC"/>
<path d="M48.6249 481.582C48.5303 481.414 48.064 480.836 47.3514 481.235C46.5465 481.553 45.579 482.58 45.6736 482.748C45.6736 482.748 45.1281 482.612 44.5102 483.179C43.4458 483.951 43.5404 484.119 43.3623 484.219C43.3623 484.219 42.819 484.169 42.465 484.456C42.1087 484.655 41.3984 485.141 41.3193 485.583C41.2402 486.025 41.2468 486.286 41.6999 486.342C42.1508 486.31 43.3999 485.699 43.7562 485.5C43.9343 485.4 44.0222 485.307 44.0222 485.307C44.0222 485.307 44.2048 485.381 44.8272 484.989C45.4517 484.683 45.9839 484.297 46.0741 484.291C46.4281 484.004 46.692 483.724 46.692 483.724C46.692 483.724 48.0335 483.194 48.4667 482.465C48.8075 481.656 48.6249 481.582 48.6249 481.582Z" fill="#1CBFFC"/>
<path d="M42.7602 488.885C42.7602 488.885 42.4017 488.998 42.0455 489.197C41.687 489.309 41.1592 489.87 41.0735 490.05C40.9877 490.231 41.0868 490.573 41.6278 490.535C43.1585 490.34 43.3322 490.067 43.3322 490.067C43.3322 490.067 43.6071 490.222 44.9487 489.692C45.3071 489.579 45.4808 489.305 45.4808 489.305C45.4808 489.305 45.7491 489.199 46.1956 488.994C46.5541 488.881 47.3523 488.302 47.6975 487.667C48.0449 487.119 48.2098 486.497 47.6666 486.448C47.2135 486.392 46.3273 487.065 45.8808 487.271C45.5246 487.47 45.1749 487.931 45.1749 487.931C45.1749 487.931 44.9946 487.944 44.6383 488.143C44.2821 488.342 43.3892 488.754 43.3892 488.754C43.3892 488.754 43.2968 488.673 42.7602 488.885Z" fill="#1CBFFC"/>
<path d="M30.0473 486.461C30.4057 486.349 31.3711 485.235 32.473 485.943C32.9327 486.259 33.7642 486.986 33.9578 487.496C34.0546 487.751 33.1839 489.034 33.0234 489.83C32.8696 490.888 33.1667 491.914 33.7979 491.87C34.2487 491.838 34.7898 491.8 35.4121 491.408C36.3907 490.816 37.2659 489.708 36.8919 489.21C36.1462 488.303 34.4042 487.291 33.3703 485.705C32.3364 484.12 34.0912 482.078 35.3801 483.035C35.6551 483.19 37.9182 483.38 38.0283 484.158C38.1428 485.11 38.5123 485.433 38.8796 485.669C39.3393 485.986 39.601 485.618 40.1642 486.451C40.4457 486.868 40.2371 489.325 40.5187 489.742C40.8003 490.158 40.2924 491.502 38.6915 492.487C37.0905 493.471 36.477 494.212 35.6787 494.792C34.8804 495.371 33.0903 496.02 31.9905 495.399C30.8908 494.778 30.0571 493.964 30.134 493.435C30.2131 492.993 30.3802 492.458 29.7468 492.415C29.1134 492.372 28.075 490.613 28.0419 489.306C27.9384 488.79 28.6156 486.998 30.0473 486.461Z" fill="#1CBFFC"/>
<path d="M30.8816 480.119C31.2556 480.616 31.1831 481.319 30.7521 482.135C30.4949 482.676 30.2288 482.869 30.231 482.956C30.3234 483.037 30.3256 483.124 30.2399 483.305C30.1652 483.921 29.9981 484.456 29.9168 484.811C29.919 484.898 29.831 484.991 29.8332 485.078C29.8355 485.165 29.8377 485.252 29.8399 485.339C29.3276 486.509 28.7866 486.547 28.6787 485.857C28.6787 485.857 28.6787 485.857 28.6765 485.77C28.4762 484.999 28.9116 484.357 28.8939 483.661C28.8652 482.529 28.7595 481.925 28.744 481.316C28.733 480.88 28.8099 480.351 28.8934 480.084C29.232 479.188 30.3207 479.373 30.8816 480.119Z" fill="#1CBFFC"/>
<path d="M104.372 473.054C112.616 463.461 104.352 458.797 108.099 453.358C111.537 448.437 121.097 454.199 113.058 465.264C110.933 468.224 107.56 471.34 104.372 473.054Z" fill="#1CBFFC"/>
<path d="M241.986 489.894C250.23 480.301 241.965 475.637 245.712 470.198C249.151 465.277 258.71 471.039 250.671 482.104C248.546 485.064 245.173 488.179 241.986 489.894Z" fill="#1CBFFC"/>
<path d="M192.387 451.237C179.02 439.417 171.303 449.85 163.632 444.371C156.697 439.35 166.165 427.318 181.73 439.014C185.896 442.109 190.168 446.865 192.387 451.237Z" fill="#1CBFFC"/>
<path d="M38.5818 452.689C21.2686 448.396 19.2462 461.218 9.91336 459.91C1.44381 458.669 4.28018 443.618 23.4843 446.784C28.6091 447.6 34.5944 449.839 38.5818 452.689Z" fill="#1CBFFC"/>
</svg>
