<svg width="120" height="120" viewBox="0 0 120 120" fill="none" xmlns="http://www.w3.org/2000/svg">
<g filter="url(#filter0_d_1_1756)">
<circle cx="60" cy="60" r="36" fill="#FAFAFA"/>
<circle cx="60" cy="60" r="35.5" stroke="#CFFAFE"/>
</g>
<path d="M53.4623 41.2424C53.028 41.2424 51.5513 41.4709 51.8119 43.756C51.9856 45.9649 52.4199 46.5742 52.5937 47.0312C52.6805 47.1836 52.2462 47.4121 52.4199 48.5546C52.5068 49.621 52.7674 51.1444 53.1149 51.6014C53.1149 51.6014 52.9411 52.1346 53.2017 52.7439C53.4623 53.2771 53.7229 55.1814 53.8967 55.6384C54.0704 56.0954 54.9391 56.2477 55.1997 56.0954C55.4603 55.943 55.9815 55.486 55.7209 54.0388C55.5472 52.5916 55.7209 51.6014 55.4603 51.5252C55.1128 51.3729 55.3734 51.4491 55.5471 50.7635C55.634 50.078 55.5472 47.3359 55.2865 47.0312C55.1128 46.8027 55.634 46.5742 55.1997 44.67C54.7653 42.6134 54.5047 41.1662 53.4623 41.2424Z" fill="#0EA5E9"/>
<path d="M65.1056 42.7661C64.5844 42.7661 63.8026 43.604 63.4551 44.5942C63.1945 45.5844 62.7602 46.1176 63.542 46.3461C63.542 46.3461 63.1076 46.2699 62.7601 46.9554C62.4995 47.6409 62.0652 49.5452 61.8915 50.0784C61.7177 50.6115 61.7177 50.9162 62.1521 51.2209C62.1521 51.2209 61.6309 51.3732 61.3703 51.9064C61.1097 52.4396 60.4147 53.7345 60.241 54.1153C60.0673 54.42 60.4147 55.1817 60.8491 55.5626C61.1965 55.9434 61.8915 55.5626 62.1521 55.4102C62.4127 55.2579 63.1945 54.0392 63.542 53.3536C63.7157 52.9728 64.0632 51.9826 64.15 51.8303C64.2369 51.6779 65.1056 49.7737 65.1924 49.0882C65.2793 48.4788 65.3662 47.7171 65.3662 47.7171C65.3662 47.7171 65.3662 47.3363 65.7136 46.9554C66.0611 46.5746 66.6692 44.5942 66.4086 43.9087C66.2348 43.0708 65.8005 42.7661 65.1056 42.7661Z" fill="#0EA5E9"/>
<path d="M75.6973 48.2497C75.3498 48.0973 74.3074 47.488 73.265 48.4782C72.2226 49.3922 71.3539 51.4488 71.6145 51.6011C71.6145 51.6011 70.7458 51.7535 69.964 52.896C68.7479 54.6479 69.0085 54.8764 68.8347 55.1049C68.8347 55.1049 67.8792 55.3334 67.4449 55.9428C66.9237 56.476 66.1419 57.5423 66.3156 58.2279C66.4893 58.9134 66.7499 59.3704 67.5317 59.0657C68.3135 58.8372 69.8771 57.1615 70.3115 56.7045C70.4852 56.476 70.4852 56.2475 70.4852 56.2475C70.4852 56.2475 70.8327 56.2475 71.6145 55.4096C72.3963 54.5717 73.0912 53.81 73.1781 53.6577C73.5256 53.1245 73.7862 52.5152 73.7862 52.5152C73.7862 52.5152 75.6104 50.9156 75.871 49.6207C76.0447 48.3258 75.6973 48.2497 75.6973 48.2497Z" fill="#0EA5E9"/>
<path d="M71.4437 62.1133C71.4437 62.1133 71.0094 62.5703 70.4882 62.9511C70.0539 63.332 69.5327 64.3222 69.5327 64.703C69.4458 65.0077 69.967 65.4647 70.8357 65.0839C73.1811 63.9413 73.3548 63.4843 73.3548 63.4843C73.3548 63.4843 73.9629 63.5605 75.7002 62.1133C76.2214 61.6563 76.3952 61.2754 76.3952 61.2754C76.3952 61.2754 76.7426 60.8946 77.2638 60.4376C77.785 59.9805 78.6537 58.7618 78.7406 57.7716C78.8275 56.7814 78.6537 55.7912 77.785 55.9436C76.9164 56.0959 75.9608 57.6193 75.5265 58.0763C75.0922 58.5333 74.8316 59.3712 74.8316 59.3712C74.8316 59.3712 74.571 59.5235 74.0498 59.9805C73.5285 60.4376 72.3993 61.5801 72.3993 61.5801C72.3993 61.5801 72.1387 61.5801 71.4437 62.1133Z" fill="#0EA5E9"/>
<path d="M48.8581 65.7692C49.3793 65.3883 50.1611 63.2556 52.4197 63.6364C53.3752 63.7888 55.2863 64.3981 55.9812 65.1598C56.3287 65.5407 55.8075 67.8257 56.155 69.0445C56.6762 70.644 57.9792 72.0151 58.9347 71.558C59.6296 71.1772 60.5852 70.8725 61.2801 69.9585C62.4963 68.5113 63.1912 66.4547 61.9751 65.9215C60.1508 65.0837 56.5024 64.4743 53.6358 62.7224C50.7692 60.9705 52.1591 57.0097 54.9388 57.6952C55.46 57.8476 59.2822 56.8574 60.064 57.8476C60.9327 59.1425 61.8882 59.4471 62.67 59.5995C63.6255 59.828 63.7993 59.1425 65.3629 60.1327C66.0578 60.5897 67.5346 64.2458 68.3164 64.7028C69.0982 65.1598 69.2719 67.4449 67.274 69.73C65.276 72.0151 64.9285 73.5384 64.0599 74.7572C63.1912 76.052 60.7589 77.9563 58.5004 77.7278C56.2418 77.4231 54.2439 76.7376 53.9833 75.9759C53.8095 75.2142 53.7227 74.4525 52.5934 74.681C51.4641 74.9095 48.5106 72.9291 47.4682 71.101C47.0339 70.3393 46.8602 67.2926 48.8581 65.7692Z" fill="#0EA5E9"/>
<path d="M45.5579 56.0183C46.5134 56.4753 46.9477 57.6179 46.8609 58.9889C46.774 59.9029 46.5134 60.36 46.6871 60.5123C46.8609 60.6646 46.9477 60.7408 47.0346 60.9693C47.2952 61.8833 47.4689 62.7212 47.5558 63.4067C47.5558 63.5591 47.5558 63.7114 47.5558 63.9399C47.5558 64.0923 47.7295 64.2446 47.7295 64.3208C47.8164 66.3773 46.774 66.6058 46.1659 65.6918C46.1659 65.6918 46.1659 65.6156 46.0791 65.6156C45.2104 64.5493 45.471 63.3306 44.8629 62.3404C43.9942 60.6646 43.3862 59.8268 42.865 59.0651C42.5175 58.5319 42.3438 57.6179 42.2569 57.1609C42.17 55.5613 43.9942 55.2566 45.5579 56.0183Z" fill="#0EA5E9"/>
<defs>
<filter id="filter0_d_1_1756" x="0" y="0" width="120" height="120" filterUnits="userSpaceOnUse" color-interpolation-filters="sRGB">
<feFlood flood-opacity="0" result="BackgroundImageFix"/>
<feColorMatrix in="SourceAlpha" type="matrix" values="0 0 0 0 0 0 0 0 0 0 0 0 0 0 0 0 0 0 127 0" result="hardAlpha"/>
<feMorphology radius="5" operator="dilate" in="SourceAlpha" result="effect1_dropShadow_1_1756"/>
<feOffset/>
<feGaussianBlur stdDeviation="9.5"/>
<feComposite in2="hardAlpha" operator="out"/>
<feColorMatrix type="matrix" values="0 0 0 0 0 0 0 0 0 0.658993 0 0 0 0 0.954167 0 0 0 0.2 0"/>
<feBlend mode="normal" in2="BackgroundImageFix" result="effect1_dropShadow_1_1756"/>
<feBlend mode="normal" in="SourceGraphic" in2="effect1_dropShadow_1_1756" result="shape"/>
</filter>
</defs>
</svg>
