<svg width="120" height="120" viewBox="0 0 120 120" fill="none" xmlns="http://www.w3.org/2000/svg">
<g filter="url(#filter0_d_1_1720)">
<circle cx="60" cy="60" r="36" fill="#FAFAFA"/>
<circle cx="60" cy="60" r="35.5" stroke="#FFCFD6"/>
</g>
<path d="M53.4623 41.2421C53.028 41.2421 51.5513 41.4706 51.8119 43.7557C51.9856 45.9646 52.4199 46.574 52.5937 47.031C52.6805 47.1833 52.2462 47.4118 52.4199 48.5544C52.5068 49.6207 52.7674 51.1441 53.1149 51.6012C53.1149 51.6012 52.9411 52.1343 53.2017 52.7437C53.4623 53.2769 53.7229 55.1811 53.8967 55.6381C54.0704 56.0951 54.9391 56.2475 55.1997 56.0951C55.4603 55.9428 55.9815 55.4858 55.7209 54.0386C55.5472 52.5914 55.7209 51.6012 55.4603 51.525C55.1128 51.3726 55.3734 51.4488 55.5471 50.7633C55.634 50.0778 55.5472 47.3357 55.2865 47.031C55.1128 46.8025 55.634 46.574 55.1997 44.6697C54.7653 42.6132 54.5047 41.166 53.4623 41.2421Z" fill="#E11D48"/>
<path d="M65.1056 42.7661C64.5844 42.7661 63.8026 43.604 63.4551 44.5942C63.1945 45.5844 62.7602 46.1176 63.542 46.3461C63.542 46.3461 63.1076 46.2699 62.7601 46.9554C62.4995 47.6409 62.0652 49.5452 61.8915 50.0784C61.7177 50.6116 61.7177 50.9162 62.1521 51.2209C62.1521 51.2209 61.6309 51.3732 61.3703 51.9064C61.1097 52.4396 60.4147 53.7345 60.241 54.1153C60.0673 54.42 60.4147 55.1817 60.8491 55.5626C61.1965 55.9434 61.8915 55.5626 62.1521 55.4102C62.4127 55.2579 63.1945 54.0392 63.542 53.3536C63.7157 52.9728 64.0632 51.9826 64.15 51.8303C64.2369 51.6779 65.1056 49.7737 65.1924 49.0882C65.2793 48.4788 65.3662 47.7171 65.3662 47.7171C65.3662 47.7171 65.3662 47.3363 65.7136 46.9554C66.0611 46.5746 66.6692 44.5942 66.4086 43.9087C66.2348 43.0708 65.8005 42.7661 65.1056 42.7661Z" fill="#E11D48"/>
<path d="M75.6973 48.2494C75.3498 48.0971 74.3074 47.4877 73.265 48.4779C72.2226 49.392 71.3539 51.4485 71.6145 51.6009C71.6145 51.6009 70.7458 51.7532 69.964 52.8958C68.7479 54.6477 69.0085 54.8762 68.8347 55.1047C68.8347 55.1047 67.8792 55.3332 67.4449 55.9425C66.9237 56.4757 66.1419 57.5421 66.3156 58.2276C66.4893 58.9131 66.7499 59.3701 67.5317 59.0655C68.3135 58.837 69.8771 57.1612 70.3115 56.7042C70.4852 56.4757 70.4852 56.2472 70.4852 56.2472C70.4852 56.2472 70.8327 56.2472 71.6145 55.4093C72.3963 54.5715 73.0912 53.8098 73.1781 53.6575C73.5256 53.1243 73.7862 52.5149 73.7862 52.5149C73.7862 52.5149 75.6104 50.9154 75.871 49.6205C76.0447 48.3256 75.6973 48.2494 75.6973 48.2494Z" fill="#E11D48"/>
<path d="M71.4438 62.113C71.4438 62.113 71.0095 62.5701 70.4883 62.9509C70.0539 63.3317 69.5327 64.3219 69.5327 64.7028C69.4459 65.0075 69.9671 65.4645 70.8357 65.0836C73.1811 63.9411 73.3549 63.4841 73.3549 63.4841C73.3549 63.4841 73.963 63.5603 75.7003 62.113C76.2215 61.656 76.3952 61.2752 76.3952 61.2752C76.3952 61.2752 76.7427 60.8943 77.2639 60.4373C77.7851 59.9803 78.6538 58.7616 78.7406 57.7714C78.8275 56.7812 78.6538 55.791 77.7851 55.9433C76.9164 56.0957 75.9609 57.619 75.5266 58.0761C75.0922 58.5331 74.8316 59.3709 74.8316 59.3709C74.8316 59.3709 74.571 59.5233 74.0498 59.9803C73.5286 60.4373 72.3993 61.5799 72.3993 61.5799C72.3993 61.5799 72.1387 61.5799 71.4438 62.113Z" fill="#E11D48"/>
<path d="M48.8582 65.7689C49.3794 65.3881 50.1612 63.2553 52.4197 63.6362C53.3753 63.7885 55.2863 64.3979 55.9813 65.1596C56.3287 65.5404 55.8076 67.8255 56.155 69.0442C56.6762 70.6438 57.9792 72.0148 58.9348 71.5578C59.6297 71.177 60.5852 70.8723 61.2802 69.9582C62.4963 68.511 63.1913 66.4545 61.9751 65.9213C60.1509 65.0834 56.5025 64.4741 53.6359 62.7222C50.7692 60.9703 52.1591 57.0095 54.9389 57.695C55.4601 57.8473 59.2822 56.8571 60.064 57.8473C60.9327 59.1422 61.8883 59.4469 62.6701 59.5992C63.6256 59.8277 63.7993 59.1422 65.3629 60.1324C66.0579 60.5894 67.5346 64.2455 68.3164 64.7026C69.0982 65.1596 69.272 67.4447 67.274 69.7297C65.2761 72.0148 64.9286 73.5382 64.0599 74.7569C63.1913 76.0518 60.759 77.956 58.5004 77.7275C56.2419 77.4228 54.2439 76.7373 53.9833 75.9756C53.8096 75.2139 53.7227 74.4522 52.5935 74.6807C51.4642 74.9092 48.5107 72.9288 47.4683 71.1008C47.034 70.3391 46.8602 67.2923 48.8582 65.7689Z" fill="#E11D48"/>
<path d="M45.5579 56.0181C46.5134 56.4751 46.9477 57.6176 46.8609 58.9887C46.774 59.9027 46.5134 60.3597 46.6871 60.5121C46.8609 60.6644 46.9477 60.7406 47.0346 60.9691C47.2952 61.8831 47.4689 62.721 47.5558 63.4065C47.5558 63.5588 47.5558 63.7112 47.5558 63.9397C47.5558 64.092 47.7295 64.2444 47.7295 64.3205C47.8164 66.3771 46.774 66.6056 46.1659 65.6916C46.1659 65.6916 46.1659 65.6154 46.0791 65.6154C45.2104 64.549 45.471 63.3303 44.8629 62.3401C43.9942 60.6644 43.3862 59.8265 42.865 59.0648C42.5175 58.5317 42.3438 57.6176 42.2569 57.1606C42.17 55.5611 43.9942 55.2564 45.5579 56.0181Z" fill="#E11D48"/>
<defs>
<filter id="filter0_d_1_1720" x="0" y="0" width="120" height="120" filterUnits="userSpaceOnUse" color-interpolation-filters="sRGB">
<feFlood flood-opacity="0" result="BackgroundImageFix"/>
<feColorMatrix in="SourceAlpha" type="matrix" values="0 0 0 0 0 0 0 0 0 0 0 0 0 0 0 0 0 0 127 0" result="hardAlpha"/>
<feMorphology radius="5" operator="dilate" in="SourceAlpha" result="effect1_dropShadow_1_1720"/>
<feOffset/>
<feGaussianBlur stdDeviation="9.5"/>
<feComposite in2="hardAlpha" operator="out"/>
<feColorMatrix type="matrix" values="0 0 0 0 0.890196 0 0 0 0 0.439216 0 0 0 0 0.545098 0 0 0 0.2 0"/>
<feBlend mode="normal" in2="BackgroundImageFix" result="effect1_dropShadow_1_1720"/>
<feBlend mode="normal" in="SourceGraphic" in2="effect1_dropShadow_1_1720" result="shape"/>
</filter>
</defs>
</svg>
