<svg width="320" height="361" viewBox="0 0 320 361" fill="none" xmlns="http://www.w3.org/2000/svg">
<g filter="url(#filter0_bdii_1_3007)">
<mask id="path-1-inside-1_1_3007" fill="white">
<path d="M285 164.5C285 233.259 229.259 289 160.5 289C91.7405 289 36 233.259 36 164.5C36 95.7405 91.7405 40 160.5 40C229.259 40 285 95.7405 285 164.5ZM41.1394 164.5C41.1394 230.421 94.5789 283.861 160.5 283.861C226.421 283.861 279.861 230.421 279.861 164.5C279.861 98.5789 226.421 45.1394 160.5 45.1394C94.5789 45.1394 41.1394 98.5789 41.1394 164.5Z"/>
</mask>
<path d="M285 164.5C285 233.259 229.259 289 160.5 289C91.7405 289 36 233.259 36 164.5C36 95.7405 91.7405 40 160.5 40C229.259 40 285 95.7405 285 164.5ZM41.1394 164.5C41.1394 230.421 94.5789 283.861 160.5 283.861C226.421 283.861 279.861 230.421 279.861 164.5C279.861 98.5789 226.421 45.1394 160.5 45.1394C94.5789 45.1394 41.1394 98.5789 41.1394 164.5Z" fill="#FDFDFD" fill-opacity="0.5" shape-rendering="crispEdges"/>
<path d="M285 164.5C285 233.259 229.259 289 160.5 289C91.7405 289 36 233.259 36 164.5C36 95.7405 91.7405 40 160.5 40C229.259 40 285 95.7405 285 164.5ZM41.1394 164.5C41.1394 230.421 94.5789 283.861 160.5 283.861C226.421 283.861 279.861 230.421 279.861 164.5C279.861 98.5789 226.421 45.1394 160.5 45.1394C94.5789 45.1394 41.1394 98.5789 41.1394 164.5Z" stroke="white" stroke-width="2" shape-rendering="crispEdges" mask="url(#path-1-inside-1_1_3007)"/>
</g>
<defs>
<filter id="filter0_bdii_1_3007" x="-20" y="0" width="361" height="361" filterUnits="userSpaceOnUse" color-interpolation-filters="sRGB">
<feFlood flood-opacity="0" result="BackgroundImageFix"/>
<feGaussianBlur in="BackgroundImageFix" stdDeviation="4"/>
<feComposite in2="SourceAlpha" operator="in" result="effect1_backgroundBlur_1_3007"/>
<feColorMatrix in="SourceAlpha" type="matrix" values="0 0 0 0 0 0 0 0 0 0 0 0 0 0 0 0 0 0 127 0" result="hardAlpha"/>
<feOffset dy="16"/>
<feGaussianBlur stdDeviation="28"/>
<feComposite in2="hardAlpha" operator="out"/>
<feColorMatrix type="matrix" values="0 0 0 0 0 0 0 0 0 0 0 0 0 0 0 0 0 0 0.15 0"/>
<feBlend mode="normal" in2="effect1_backgroundBlur_1_3007" result="effect2_dropShadow_1_3007"/>
<feBlend mode="normal" in="SourceGraphic" in2="effect2_dropShadow_1_3007" result="shape"/>
<feColorMatrix in="SourceAlpha" type="matrix" values="0 0 0 0 0 0 0 0 0 0 0 0 0 0 0 0 0 0 127 0" result="hardAlpha"/>
<feOffset dx="5" dy="4"/>
<feGaussianBlur stdDeviation="6.5"/>
<feComposite in2="hardAlpha" operator="arithmetic" k2="-1" k3="1"/>
<feColorMatrix type="matrix" values="0 0 0 0 0.855469 0 0 0 0 0.912029 0 0 0 0 0.9375 0 0 0 1 0"/>
<feBlend mode="normal" in2="shape" result="effect3_innerShadow_1_3007"/>
<feColorMatrix in="SourceAlpha" type="matrix" values="0 0 0 0 0 0 0 0 0 0 0 0 0 0 0 0 0 0 127 0" result="hardAlpha"/>
<feOffset dx="-5" dy="-4"/>
<feGaussianBlur stdDeviation="6.5"/>
<feComposite in2="hardAlpha" operator="arithmetic" k2="-1" k3="1"/>
<feColorMatrix type="matrix" values="0 0 0 0 0.855469 0 0 0 0 0.912029 0 0 0 0 0.9375 0 0 0 1 0"/>
<feBlend mode="normal" in2="effect3_innerShadow_1_3007" result="effect4_innerShadow_1_3007"/>
</filter>
</defs>
</svg>
