<svg width="120" height="120" viewBox="0 0 120 120" fill="none" xmlns="http://www.w3.org/2000/svg">
<g filter="url(#filter0_d_1_1774)">
<circle cx="60" cy="60" r="36" fill="#FAFAFA"/>
<circle cx="60" cy="60" r="35.5" stroke="#FFEEC0"/>
</g>
<path d="M53.4623 42.2564C53.028 42.2564 51.5513 42.4849 51.8119 44.77C51.9856 46.9789 52.4199 47.5883 52.5937 48.0453C52.6805 48.1976 52.2462 48.4261 52.4199 49.5687C52.5068 50.635 52.7674 52.1584 53.1149 52.6154C53.1149 52.6154 52.9411 53.1486 53.2017 53.758C53.4623 54.2912 53.7229 56.1954 53.8967 56.6524C54.0704 57.1094 54.9391 57.2618 55.1997 57.1094C55.4603 56.9571 55.9815 56.5001 55.7209 55.0528C55.5472 53.6056 55.7209 52.6154 55.4603 52.5393C55.1128 52.3869 55.3734 52.4631 55.5471 51.7776C55.634 51.092 55.5472 48.35 55.2865 48.0453C55.1128 47.8168 55.634 47.5883 55.1997 45.684C54.7653 43.6275 54.5047 42.1802 53.4623 42.2564Z" fill="#FBBF24"/>
<path d="M65.1056 43.7803C64.5844 43.7803 63.8026 44.6181 63.4551 45.6083C63.1945 46.5985 62.7602 47.1317 63.542 47.3602C63.542 47.3602 63.1076 47.2841 62.7601 47.9696C62.4995 48.6551 62.0652 50.5593 61.8915 51.0925C61.7177 51.6257 61.7177 51.9304 62.1521 52.2351C62.1521 52.2351 61.6309 52.3874 61.3703 52.9206C61.1097 53.4538 60.4147 54.7487 60.241 55.1295C60.0673 55.4342 60.4147 56.1959 60.8491 56.5767C61.1965 56.9576 61.8915 56.5767 62.1521 56.4244C62.4127 56.272 63.1945 55.0533 63.542 54.3678C63.7157 53.987 64.0632 52.9968 64.15 52.8444C64.2369 52.6921 65.1056 50.7878 65.1924 50.1023C65.2793 49.493 65.3662 48.7313 65.3662 48.7313C65.3662 48.7313 65.3662 48.3504 65.7136 47.9696C66.0611 47.5887 66.6692 45.6083 66.4086 44.9228C66.2348 44.085 65.8005 43.7803 65.1056 43.7803Z" fill="#FBBF24"/>
<path d="M75.6973 49.2637C75.3498 49.1114 74.3074 48.502 73.265 49.4922C72.2226 50.4063 71.3539 52.4628 71.6145 52.6152C71.6145 52.6152 70.7458 52.7675 69.964 53.91C68.7479 55.6619 69.0085 55.8904 68.8347 56.119C68.8347 56.119 67.8792 56.3475 67.4449 56.9568C66.9237 57.49 66.1419 58.5564 66.3156 59.2419C66.4893 59.9274 66.7499 60.3844 67.5317 60.0798C68.3135 59.8512 69.8771 58.1755 70.3115 57.7185C70.4852 57.49 70.4852 57.2615 70.4852 57.2615C70.4852 57.2615 70.8327 57.2615 71.6145 56.4236C72.3963 55.5858 73.0912 54.8241 73.1781 54.6717C73.5256 54.1386 73.7862 53.5292 73.7862 53.5292C73.7862 53.5292 75.6104 51.9296 75.871 50.6348C76.0447 49.3399 75.6973 49.2637 75.6973 49.2637Z" fill="#FBBF24"/>
<path d="M71.4438 63.1272C71.4438 63.1272 71.0095 63.5842 70.4883 63.9651C70.0539 64.3459 69.5327 65.3361 69.5327 65.717C69.4459 66.0216 69.9671 66.4786 70.8357 66.0978C73.1811 64.9553 73.3549 64.4982 73.3549 64.4982C73.3549 64.4982 73.963 64.5744 75.7003 63.1272C76.2215 62.6702 76.3952 62.2893 76.3952 62.2893C76.3952 62.2893 76.7427 61.9085 77.2639 61.4515C77.7851 60.9945 78.6538 59.7757 78.7406 58.7855C78.8275 57.7953 78.6538 56.8051 77.7851 56.9575C76.9164 57.1098 75.9609 58.6332 75.5266 59.0902C75.0922 59.5472 74.8316 60.3851 74.8316 60.3851C74.8316 60.3851 74.571 60.5374 74.0498 60.9945C73.5286 61.4515 72.3993 62.594 72.3993 62.594C72.3993 62.594 72.1387 62.594 71.4438 63.1272Z" fill="#FBBF24"/>
<path d="M48.8582 66.7832C49.3794 66.4024 50.1612 64.2696 52.4197 64.6505C53.3753 64.8028 55.2863 65.4122 55.9813 66.1739C56.3287 66.5547 55.8076 68.8398 56.155 70.0585C56.6762 71.6581 57.9792 73.0291 58.9348 72.5721C59.6297 72.1912 60.5852 71.8866 61.2802 70.9725C62.4963 69.5253 63.1913 67.4687 61.9751 66.9356C60.1509 66.0977 56.5025 65.4883 53.6359 63.7364C50.7692 61.9846 52.1591 58.0237 54.9389 58.7093C55.4601 58.8616 59.2822 57.8714 60.064 58.8616C60.9327 60.1565 61.8883 60.4612 62.6701 60.6135C63.6256 60.842 63.7993 60.1565 65.3629 61.1467C66.0579 61.6037 67.5346 65.2598 68.3164 65.7168C69.0982 66.1739 69.272 68.4589 67.274 70.744C65.2761 73.0291 64.9286 74.5525 64.0599 75.7712C63.1913 77.0661 60.759 78.9703 58.5004 78.7418C56.2419 78.4371 54.2439 77.7516 53.9833 76.9899C53.8096 76.2282 53.7227 75.4665 52.5935 75.695C51.4642 75.9235 48.5107 73.9431 47.4683 72.1151C47.034 71.3534 46.8602 68.3066 48.8582 66.7832Z" fill="#FBBF24"/>
<path d="M45.5579 57.0322C46.5134 57.4892 46.9477 58.6318 46.8609 60.0028C46.774 60.9169 46.5134 61.3739 46.6871 61.5262C46.8609 61.6786 46.9477 61.7547 47.0346 61.9832C47.2952 62.8973 47.4689 63.7351 47.5558 64.4206C47.5558 64.573 47.5558 64.7253 47.5558 64.9538C47.5558 65.1062 47.7295 65.2585 47.7295 65.3347C47.8164 67.3913 46.774 67.6198 46.1659 66.7057C46.1659 66.7057 46.1659 66.6296 46.0791 66.6296C45.2104 65.5632 45.471 64.3445 44.8629 63.3543C43.9942 61.6786 43.3862 60.8407 42.865 60.079C42.5175 59.5458 42.3438 58.6318 42.2569 58.1748C42.17 56.5752 43.9942 56.2705 45.5579 57.0322Z" fill="#FBBF24"/>
<defs>
<filter id="filter0_d_1_1774" x="0" y="0" width="120" height="120" filterUnits="userSpaceOnUse" color-interpolation-filters="sRGB">
<feFlood flood-opacity="0" result="BackgroundImageFix"/>
<feColorMatrix in="SourceAlpha" type="matrix" values="0 0 0 0 0 0 0 0 0 0 0 0 0 0 0 0 0 0 127 0" result="hardAlpha"/>
<feMorphology radius="5" operator="dilate" in="SourceAlpha" result="effect1_dropShadow_1_1774"/>
<feOffset/>
<feGaussianBlur stdDeviation="9.5"/>
<feComposite in2="hardAlpha" operator="out"/>
<feColorMatrix type="matrix" values="0 0 0 0 0.929412 0 0 0 0 0.796078 0 0 0 0 0.419608 0 0 0 0.2 0"/>
<feBlend mode="normal" in2="BackgroundImageFix" result="effect1_dropShadow_1_1774"/>
<feBlend mode="normal" in="SourceGraphic" in2="effect1_dropShadow_1_1774" result="shape"/>
</filter>
</defs>
</svg>
