<svg width="16" height="16" viewBox="0 0 16 16" fill="none" xmlns="http://www.w3.org/2000/svg">
<circle cx="8" cy="8" r="8" fill="#FAFAFA"/>
<path d="M7.85319 3.06396C7.86191 3.04649 7.87063 2.98533 7.76596 2.95038C7.66128 2.91544 7.62639 2.92417 7.60894 2.92417C7.60022 2.92417 7.60022 2.9067 7.54788 2.88923C7.49554 2.88049 7.42576 2.86302 7.39959 2.86302C7.39959 2.86302 7.37342 2.84555 7.34725 2.84555C7.32108 2.84555 7.22512 2.81934 7.20768 2.81934C7.18151 2.81934 7.16406 2.84555 7.16406 2.86302C7.16406 2.88049 7.18151 2.9067 7.25129 2.92417C7.32108 2.94165 7.36469 2.96786 7.36469 2.95912C7.37342 2.95038 7.36469 2.95912 7.39959 2.97659C7.42576 2.99407 7.54788 3.03775 7.57405 3.02901C7.58277 3.02901 7.59149 3.05522 7.67873 3.06396C7.77468 3.09017 7.84447 3.10764 7.85319 3.06396Z" fill="#00AEEF"/>
<path d="M7.59761 3.49149C7.60633 3.47402 7.58016 3.4216 7.54527 3.39539C7.50165 3.36918 7.49293 3.34297 7.46676 3.36918C7.46676 3.36918 7.47548 3.35171 7.44932 3.3255C7.42315 3.29929 7.34464 3.25561 7.32719 3.23813C7.30975 3.22066 7.2923 3.22066 7.26613 3.2294C7.26613 3.2294 7.26613 3.20319 7.24868 3.18571C7.23124 3.16824 7.1789 3.11582 7.17018 3.09835C7.16145 3.08961 7.11784 3.08961 7.10039 3.09835C7.08294 3.10709 7.08294 3.14203 7.09167 3.15077C7.09167 3.1595 7.13528 3.22066 7.16145 3.23813C7.1789 3.25561 7.21379 3.28182 7.22251 3.29055C7.23124 3.29929 7.30102 3.36044 7.32719 3.37792C7.35336 3.39539 7.38825 3.41286 7.38825 3.41286C7.38825 3.41286 7.4057 3.4216 7.41442 3.43907C7.42315 3.45655 7.50165 3.5177 7.53655 3.5177C7.57144 3.53517 7.58889 3.5177 7.59761 3.49149Z" fill="#00AEEF"/>
<path d="M7.18753 3.81532C7.20498 3.80659 7.23987 3.77164 7.2137 3.71922C7.18753 3.6668 7.10903 3.58817 7.1003 3.59691C7.1003 3.59691 7.10903 3.56196 7.06541 3.50954C7.00435 3.43092 6.99563 3.43965 6.9869 3.43092C6.9869 3.43092 6.9869 3.38723 6.96946 3.36102C6.95201 3.33481 6.91712 3.2824 6.88222 3.27366C6.84733 3.26492 6.82989 3.27366 6.82116 3.3086C6.81244 3.34355 6.8735 3.43092 6.88222 3.45713C6.89095 3.46586 6.89967 3.4746 6.89967 3.4746C6.89967 3.4746 6.89967 3.48334 6.91712 3.53575C6.94329 3.57944 6.96946 3.62312 6.96946 3.63186C6.9869 3.65807 7.01307 3.67554 7.01307 3.67554C7.01307 3.67554 7.05669 3.77164 7.10903 3.80659C7.18753 3.82406 7.18753 3.81532 7.18753 3.81532Z" fill="#00AEEF"/>
<path d="M6.63914 3.40481C6.63914 3.40481 6.63041 3.3786 6.61297 3.35239C6.60424 3.32618 6.56063 3.29124 6.55191 3.2825C6.54318 3.27376 6.50829 3.29124 6.51701 3.32618C6.53446 3.43976 6.55191 3.45723 6.55191 3.45723C6.55191 3.45723 6.54318 3.4747 6.57807 3.5708C6.5868 3.59701 6.60424 3.61449 6.60424 3.61449C6.60424 3.61449 6.61297 3.63196 6.63041 3.66691C6.63914 3.69312 6.68275 3.75427 6.72637 3.77174C6.76998 3.78922 6.8136 3.80669 6.82232 3.76301C6.83105 3.72806 6.77871 3.66691 6.76126 3.6407C6.74381 3.61449 6.71764 3.58828 6.71764 3.58828C6.71764 3.58828 6.71764 3.5708 6.7002 3.5446C6.69148 3.51839 6.65658 3.44849 6.65658 3.44849C6.65658 3.44849 6.65658 3.43976 6.63914 3.40481Z" fill="#00AEEF"/>
<path d="M6.82913 2.45218C6.83785 2.47839 6.92508 2.54828 6.86402 2.63565C6.83785 2.67059 6.78551 2.73175 6.7419 2.74922C6.71573 2.75796 6.6285 2.6968 6.56744 2.68806C6.48893 2.67933 6.41042 2.70554 6.41042 2.74922C6.41914 2.78417 6.41914 2.82785 6.44531 2.87153C6.48893 2.94142 6.56744 3.01132 6.61105 2.96763C6.68084 2.90648 6.75934 2.77543 6.88147 2.6968C7.00359 2.61817 7.16061 2.74048 7.0821 2.83659C7.06465 2.85406 7.05593 3.02005 6.99487 3.03753C6.92508 3.055 6.89891 3.08121 6.87274 3.10742C6.84658 3.14236 6.87274 3.15984 6.81168 3.20352C6.78551 3.22099 6.5936 3.22099 6.55871 3.23847C6.52382 3.25594 6.41914 3.22973 6.34936 3.10742C6.27957 2.98511 6.21851 2.95016 6.1749 2.889C6.13128 2.83659 6.07894 2.70554 6.13128 2.61817C6.1749 2.53081 6.24468 2.46965 6.27957 2.46965C6.31446 2.47839 6.34936 2.48713 6.35808 2.43471C6.3668 2.38229 6.49765 2.30366 6.59361 2.29492C6.64594 2.30366 6.78551 2.34734 6.82913 2.45218Z" fill="#00AEEF"/>
<path d="M7.31172 2.49559C7.27683 2.5218 7.21576 2.5218 7.1547 2.49559C7.11109 2.47812 7.10236 2.45191 7.09364 2.46064C7.08492 2.46938 7.07619 2.46938 7.06747 2.46064C7.02386 2.45191 6.98024 2.45191 6.95407 2.43443C6.94535 2.43443 6.93662 2.4257 6.9279 2.4257C6.91918 2.4257 6.91046 2.4257 6.91046 2.4257C6.82322 2.39075 6.82322 2.34707 6.87556 2.33833C6.93662 2.32086 6.98896 2.3558 7.0413 2.34707C7.12853 2.33833 7.17215 2.32959 7.21576 2.32959C7.25066 2.32086 7.28555 2.33833 7.31172 2.33833C7.39023 2.37328 7.37278 2.44317 7.31172 2.49559Z" fill="#00AEEF"/>
<path d="M1.2749 8.64665C1.29235 8.6117 1.37086 8.48066 1.59766 8.59423C1.82446 8.70781 1.8768 8.76896 1.91169 8.80391C1.92041 8.81264 1.96403 8.79517 2.07743 8.84759C2.19083 8.90001 2.33912 8.98737 2.37402 9.03979C2.37402 9.03979 2.43508 9.04853 2.48742 9.09221C2.53976 9.13589 2.72294 9.24073 2.76656 9.27568C2.81017 9.31062 2.79273 9.39799 2.76656 9.41546C2.74039 9.43294 2.67933 9.45915 2.53103 9.38052C2.38274 9.30189 2.26934 9.27568 2.26934 9.24947C2.26934 9.20579 2.26062 9.24073 2.19083 9.22326C2.12105 9.20579 1.83318 9.08348 1.80701 9.04853C1.78957 9.02232 1.74595 9.066 1.56277 8.94369C1.37958 8.83012 1.24001 8.74275 1.2749 8.64665Z" fill="#EB1D66"/>
<path d="M1.0247 9.79942C1.04215 9.75574 1.16427 9.71206 1.27767 9.72953C1.39107 9.747 1.46086 9.72953 1.46086 9.80816C1.46086 9.80816 1.46958 9.76448 1.55681 9.76448C1.64404 9.76448 1.8534 9.80816 1.91446 9.8169C1.97552 9.82563 2.01041 9.83437 2.02786 9.89552C2.02786 9.89552 2.06275 9.85184 2.12381 9.85184C2.1936 9.85184 2.35934 9.83437 2.40295 9.83437C2.44657 9.83437 2.50763 9.89552 2.5338 9.94794C2.55997 10.0004 2.49018 10.044 2.46401 10.0615C2.43784 10.079 2.28083 10.1052 2.1936 10.1052C2.14126 10.1052 2.02786 10.0965 2.01041 10.0965C1.98424 10.0965 1.75744 10.0965 1.68766 10.079C1.61787 10.0615 1.53936 10.0353 1.53936 10.0353C1.53936 10.0353 1.50447 10.0266 1.44341 10.0353C1.39107 10.0528 1.16427 10.0266 1.09448 9.97415C1.00725 9.913 0.99853 9.86058 1.0247 9.79942Z" fill="#EB1D66"/>
<path d="M1.21278 11.005C1.20406 10.9613 1.18661 10.8477 1.32618 10.7866C1.46575 10.7342 1.71 10.7254 1.71872 10.7691C1.71872 10.7691 1.76234 10.6905 1.91063 10.6643C2.13743 10.6293 2.15488 10.6555 2.18105 10.6555C2.18105 10.6555 2.24211 10.5857 2.32062 10.5594C2.39912 10.5332 2.53869 10.507 2.59976 10.5507C2.66082 10.5944 2.70443 10.6381 2.64337 10.6992C2.59103 10.7604 2.35551 10.8303 2.29445 10.8565C2.26828 10.8652 2.24211 10.8565 2.24211 10.8565C2.24211 10.8565 2.22466 10.8827 2.11126 10.9264C1.99786 10.9701 1.88446 10.9963 1.86701 10.9963C1.79723 11.005 1.72744 11.005 1.72744 11.005C1.72744 11.005 1.49192 11.1098 1.35235 11.0749C1.20406 11.04 1.21278 11.005 1.21278 11.005Z" fill="#EB1D66"/>
<path d="M2.82647 11.1894C2.82647 11.1894 2.88753 11.1632 2.94859 11.137C3.00965 11.1107 3.13177 11.1107 3.16667 11.1195C3.20156 11.1282 3.22773 11.1981 3.15794 11.2505C2.94859 11.4253 2.89625 11.4165 2.89625 11.4165C2.89625 11.4165 2.88753 11.4777 2.66073 11.5738C2.59966 11.6 2.54733 11.6 2.54733 11.6C2.54733 11.6 2.49499 11.6175 2.4252 11.6524C2.35542 11.6874 2.1984 11.7136 2.085 11.6786C1.98032 11.6437 1.87565 11.5913 1.92798 11.5126C1.98032 11.4427 2.16351 11.4165 2.24202 11.3903C2.30308 11.3728 2.40776 11.3816 2.40776 11.3816C2.40776 11.3816 2.43392 11.3641 2.49499 11.3292C2.56477 11.2942 2.72179 11.2418 2.72179 11.2418C2.72179 11.2418 2.74796 11.2243 2.82647 11.1894Z" fill="#EB1D66"/>
<path d="M4.04654 9.24021C3.98548 9.27516 3.73251 9.25769 3.68889 9.48484C3.67145 9.58094 3.66272 9.78188 3.72378 9.87798C3.74995 9.92166 4.01165 9.96535 4.12505 10.0527C4.27334 10.1663 4.3693 10.341 4.29079 10.4109C4.22973 10.4633 4.15994 10.5332 4.03782 10.5594C3.84591 10.6118 3.60166 10.5856 3.58421 10.4633C3.55804 10.2536 3.62783 9.89545 3.54932 9.55473C3.47081 9.214 2.99976 9.17906 2.9736 9.46736C2.96487 9.51978 2.72063 9.8343 2.80786 9.94787C2.91253 10.0877 2.91253 10.1838 2.90381 10.2624C2.89509 10.3585 2.80786 10.3498 2.8602 10.5332C2.87764 10.6118 3.21784 10.9089 3.23529 10.9963C3.25274 11.0836 3.48826 11.1972 3.80229 11.1098C4.11632 11.0225 4.28206 11.0487 4.4478 11.0225C4.61354 10.9963 4.91013 10.8565 4.96247 10.6293C5.01481 10.4109 5.01481 10.1925 4.94502 10.1401C4.87524 10.0877 4.788 10.0527 4.85779 9.95661C4.92757 9.86051 4.8229 9.50231 4.66588 9.33632C4.58737 9.26642 4.27334 9.12664 4.04654 9.24021Z" fill="#EB1D66"/>
<path d="M3.12535 8.53296C3.1428 8.63779 3.23876 8.73389 3.39577 8.77758C3.49173 8.81252 3.55279 8.80379 3.56151 8.82126C3.57023 8.83873 3.57896 8.85621 3.5964 8.87368C3.68363 8.93484 3.76214 8.98725 3.83193 9.0222C3.84937 9.03094 3.86682 9.03094 3.88427 9.04841C3.90171 9.05715 3.91044 9.07462 3.91916 9.07462C4.12851 9.16198 4.1983 9.08336 4.11979 8.98725C4.11979 8.98725 4.11979 8.97852 4.11107 8.97852C4.03256 8.85621 3.89299 8.82126 3.81448 8.73389C3.67491 8.57664 3.60513 8.48927 3.54406 8.41064C3.50045 8.34949 3.41322 8.29707 3.3696 8.2796C3.19514 8.20097 3.09919 8.35823 3.12535 8.53296Z" fill="#EB1D66"/>
<path d="M3.2954 2.36437C3.31285 2.35564 3.39136 2.33817 3.4437 2.46921C3.49604 2.60026 3.48731 2.64394 3.49604 2.67015C3.49604 2.67889 3.52221 2.68763 3.54837 2.74878C3.57454 2.80994 3.60071 2.90604 3.59199 2.94098C3.59199 2.94098 3.61816 2.96719 3.61816 3.01088C3.61816 3.04582 3.65305 3.1594 3.66178 3.19434C3.66178 3.22055 3.62688 3.2555 3.60944 3.24676C3.59199 3.24676 3.5571 3.22929 3.53093 3.14192C3.50476 3.05456 3.46987 3.00214 3.47859 2.9934C3.49604 2.97593 3.47859 2.98467 3.45242 2.94972C3.42625 2.91478 3.35647 2.75752 3.36519 2.73131C3.36519 2.71384 3.33902 2.71384 3.30413 2.60026C3.26924 2.46921 3.25179 2.38185 3.2954 2.36437Z" fill="#FEBF29"/>
<path d="M2.76143 2.72238C2.78759 2.71364 2.84866 2.73985 2.89227 2.78353C2.93589 2.83595 2.96206 2.85342 2.93589 2.88837C2.93589 2.88837 2.95333 2.8709 2.98823 2.90584C3.02312 2.94079 3.0929 3.03689 3.11035 3.0631C3.1278 3.08931 3.13652 3.10678 3.1278 3.13299C3.1278 3.13299 3.15397 3.12426 3.18886 3.15047C3.21503 3.17668 3.28481 3.22909 3.30226 3.24657C3.31971 3.26404 3.31971 3.31646 3.31098 3.34267C3.30226 3.36888 3.25864 3.36888 3.2412 3.36014C3.22375 3.36014 3.15397 3.30772 3.11907 3.27278C3.10163 3.2553 3.05801 3.20289 3.04929 3.20289C3.04057 3.19415 2.94461 3.10678 2.92717 3.07184C2.901 3.03689 2.88355 2.99321 2.88355 2.99321C2.88355 2.99321 2.87483 2.97574 2.84866 2.95826C2.82249 2.94079 2.74398 2.84469 2.73526 2.80101C2.70909 2.76606 2.72653 2.73985 2.76143 2.72238Z" fill="#FEBF29"/>
<path d="M2.37546 3.29061C2.38418 3.27314 2.42779 3.21198 2.49758 3.24693C2.57609 3.27314 2.67204 3.36924 2.66332 3.38671C2.66332 3.38671 2.71566 3.36924 2.77672 3.42166C2.8814 3.49155 2.87267 3.50903 2.89012 3.51776C2.89012 3.51776 2.94246 3.50903 2.97735 3.53524C3.01224 3.55271 3.08203 3.59639 3.09075 3.64007C3.09947 3.68376 3.09947 3.70997 3.05586 3.7187C3.01224 3.7187 2.89012 3.66628 2.85523 3.64881C2.83778 3.64007 2.82906 3.63134 2.82906 3.63134C2.82906 3.63134 2.81161 3.64007 2.75055 3.60513C2.68949 3.57892 2.63715 3.54397 2.62843 3.54397C2.59353 3.51776 2.56736 3.49155 2.56736 3.49155C2.56736 3.49155 2.43652 3.44787 2.3929 3.37798C2.35801 3.29935 2.37546 3.29061 2.37546 3.29061Z" fill="#FEBF29"/>
<path d="M2.96202 3.98103C2.96202 3.98103 2.99692 3.98977 3.03181 4.00724C3.0667 4.01598 3.11904 4.0684 3.12776 4.08587C3.13649 4.10334 3.12776 4.13829 3.07542 4.13829C2.92713 4.12955 2.90968 4.10334 2.90968 4.10334C2.90968 4.10334 2.88351 4.12082 2.75267 4.07713C2.71778 4.0684 2.70033 4.04219 2.70033 4.04219C2.70033 4.04219 2.67416 4.03345 2.63054 4.01598C2.59565 4.00724 2.51714 3.95482 2.48225 3.89367C2.44736 3.84125 2.42991 3.78009 2.48225 3.77136C2.52587 3.76262 2.6131 3.82378 2.65671 3.84125C2.69161 3.85872 2.7265 3.9024 2.7265 3.9024C2.7265 3.9024 2.74394 3.9024 2.77884 3.91988C2.81373 3.93735 2.90096 3.9723 2.90096 3.9723C2.90096 3.9723 2.90968 3.96356 2.96202 3.98103Z" fill="#FEBF29"/>
<path d="M4.17755 3.64813C4.14266 3.63939 4.04671 3.53455 3.94203 3.61318C3.89841 3.64813 3.81991 3.72675 3.80246 3.77917C3.79374 3.80538 3.88097 3.92769 3.89841 4.00632C3.91586 4.11116 3.88969 4.216 3.82863 4.216C3.78501 4.216 3.73267 4.216 3.67161 4.18105C3.57566 4.12863 3.48843 4.0238 3.52332 3.97138C3.5931 3.87527 3.75884 3.7617 3.8548 3.59571C3.95075 3.42971 3.77629 3.23751 3.65417 3.34235C3.628 3.35982 3.40992 3.39477 3.4012 3.4734C3.39247 3.5695 3.35758 3.60444 3.32269 3.63065C3.27907 3.6656 3.2529 3.63065 3.20056 3.71802C3.17439 3.7617 3.20056 4.00632 3.17439 4.05C3.14823 4.09369 3.20056 4.22474 3.35758 4.3121C3.5146 4.39947 3.57566 4.46936 3.65417 4.52178C3.73267 4.5742 3.90714 4.62661 4.01181 4.55672C4.11649 4.48683 4.195 4.39947 4.18628 4.34705C4.17755 4.30336 4.16011 4.25094 4.22117 4.24221C4.28223 4.23347 4.37819 4.05 4.37819 3.91896C4.38691 3.86654 4.31712 3.69181 4.17755 3.64813Z" fill="#FEBF29"/>
<path d="M4.08403 3.01931C4.04914 3.07173 4.05786 3.14162 4.10148 3.22025C4.12765 3.27267 4.15382 3.29014 4.15382 3.29888C4.14509 3.30762 4.14509 3.31635 4.15382 3.33383C4.16254 3.39498 4.17998 3.4474 4.18871 3.48235C4.18871 3.49108 4.19743 3.49982 4.19743 3.50856C4.19743 3.51729 4.19743 3.52603 4.19743 3.53477C4.24977 3.64834 4.30211 3.64834 4.31083 3.57845C4.31083 3.57845 4.31083 3.57845 4.31083 3.56971C4.32828 3.49108 4.28466 3.42993 4.28466 3.36003C4.28466 3.24646 4.29339 3.1853 4.29339 3.12415C4.29339 3.08047 4.28466 3.02805 4.27594 3.00184C4.24105 2.91447 4.13637 2.94068 4.08403 3.01931Z" fill="#FEBF29"/>
<path d="M12 2.614C12.0698 2.5179 12.1396 2.46548 12.253 2.43927C12.3925 2.41306 12.5844 2.39559 12.6804 2.28201C12.7589 2.18591 12.724 2.02865 12.5757 2.00244C12.4013 1.97623 12.0349 2.1597 12 2.614Z" fill="#FEBF29"/>
<path d="M2.59354 6.0783C2.10504 5.94725 1.59038 6.51512 1.24145 6.44523C0.988484 6.40155 0.936145 6.0783 1.07571 5.90357C1.41592 5.47548 2.15738 5.64147 2.59354 6.0783Z" fill="#00AEEF"/>
<path d="M5.3659 1.87569C5.50547 1.78832 5.6276 1.63106 5.68866 1.46507C5.73227 1.33402 5.75844 1.14182 5.63632 1.04572C5.54036 0.96709 5.3659 0.993299 5.29612 1.09814C5.22633 1.20298 5.27867 1.34276 5.31356 1.45633C5.35718 1.60485 5.40079 1.7359 5.3659 1.87569Z" fill="#FEBF29"/>
<path d="M5.07756 5.41412C5.31309 4.63657 5.85392 4.88993 6.01966 4.49679C6.16795 4.13859 5.52244 3.85902 5.19968 4.68025C5.11245 4.89867 5.06012 5.18697 5.07756 5.41412Z" fill="#EB1D66"/>
<path d="M6.96173 10.7867C6.83088 10.6906 6.68259 10.612 6.51685 10.6033C6.35983 10.5945 6.18537 10.6906 6.0458 10.6033C5.85389 10.4809 5.97602 10.2363 6.16793 10.1926C6.35983 10.1577 6.55174 10.2276 6.69131 10.3412C6.84833 10.4635 6.92684 10.6382 6.99662 10.8217" fill="#00AEEF"/>
<path d="M9.84174 2.14654C9.72834 1.95434 9.63238 1.79708 9.31835 1.72719C9.10027 1.67477 8.7688 1.77087 8.61178 1.5874C8.33264 1.25542 9.01304 0.879746 9.52771 1.48257C9.68472 1.66603 9.78068 1.89318 9.84174 2.14654Z" fill="#EB1D66"/>
<path d="M6.09185 12.4468C6.16164 12.4731 6.30993 12.4905 6.46695 12.5429C6.5629 12.5779 6.64141 12.6128 6.70247 12.6303L6.68503 12.6478C6.68503 12.6478 6.5629 13.1021 6.36227 13.2943L6.3361 13.3554C6.19653 13.3292 6.01335 13.1982 5.79527 13.0322C5.60336 12.8837 5.32422 12.4468 5.32422 12.4468C5.32422 12.4468 5.69059 12.2896 6.09185 12.4468Z" fill="#F9A01B"/>
<g opacity="0.2">
<path d="M6.27506 12.5162C6.33613 12.5424 6.4757 12.5512 6.60654 12.6036C6.69377 12.6298 6.76356 12.6647 6.8159 12.6822L6.79845 12.6997C6.79845 12.6997 6.69377 13.119 6.51059 13.2938L6.49314 13.3549C6.37102 13.3287 6.19656 13.2064 5.99592 13.0579C5.82146 12.9268 5.58594 12.5162 5.58594 12.5162C5.58594 12.5162 5.92614 12.3764 6.27506 12.5162Z" fill="white"/>
</g>
<path d="M8.92691 12.2018C8.77862 12.1843 8.63032 12.2018 8.52565 12.2105C8.43842 12.2193 8.24651 12.2542 8.22906 12.4028C8.20289 12.6386 8.38608 13.0143 8.60415 12.9269C8.82223 12.8396 9.06648 12.4989 9.1101 12.263" fill="#F9A01B"/>
<g opacity="0.2">
<path d="M9.01258 12.3512C8.88173 12.3338 8.75089 12.3512 8.65493 12.36C8.57642 12.3687 8.40196 12.4036 8.39324 12.5347C8.36707 12.7444 8.54153 13.0851 8.73344 13.0065C8.92535 12.9278 9.15215 12.6221 9.18704 12.4124" fill="white"/>
</g>
<path d="M10.1369 13.6346C9.95367 13.6696 9.71815 13.6172 9.56985 13.591C9.05519 13.5036 8.76733 13.093 8.76733 13.093C8.76733 13.093 8.51436 13.3289 8.33117 13.39C8.13926 13.4512 7.99097 13.3987 7.81651 13.4949L7.72055 13.6696C7.68566 13.8618 7.81651 14.2462 7.95608 14.386C8.09565 14.5258 8.38351 14.8141 8.5318 14.8141C8.61903 14.8141 9.10753 14.6044 9.20348 14.5607C9.94495 14.2462 10.2503 13.853 10.2503 13.8356C10.1979 14.0453 10.2939 14.1326 10.4247 14.185C10.573 14.2462 10.8522 14.2462 10.9743 14.1676C11.0964 14.0889 11.3843 13.888 11.5064 13.6521C11.6111 13.4337 11.6547 12.8309 11.7855 12.6387C11.2883 13.3376 10.669 13.5385 10.1369 13.6346Z" fill="#00AEEF"/>
<g opacity="0.4">
<path d="M10.3216 13.6442C10.1558 13.6704 9.94646 13.6267 9.82434 13.6005C9.37074 13.5218 9.10904 13.1637 9.10904 13.1637C9.10904 13.1637 8.89097 13.3733 8.7165 13.4257C8.55076 13.4782 8.41992 13.4345 8.2629 13.5218L8.17567 13.6791C8.1495 13.8451 8.2629 14.1858 8.38503 14.3081C8.50715 14.4304 8.76012 14.6925 8.89969 14.6925C8.9782 14.6925 9.41435 14.5091 9.49286 14.4741C10.1471 14.1946 10.4262 13.8451 10.4175 13.8276C10.3739 14.0111 10.4611 14.0897 10.5745 14.1421C10.7054 14.1946 10.9583 14.2033 11.063 14.1247C11.1764 14.0548 11.4294 13.88 11.5341 13.6704C11.63 13.4782 11.6649 12.9452 11.787 12.7705C11.3422 13.3821 10.7926 13.5655 10.3216 13.6442Z" fill="#AEC7BA"/>
</g>
<path d="M8.28142 9.22293C8.1244 9.27535 7.96739 9.32777 7.85398 9.44134C7.74058 9.55492 7.67952 9.85196 7.75803 9.99174C8.21163 10.1403 8.63907 10.3325 9.05778 10.5596C9.18862 10.6295 9.21479 10.7169 9.27585 10.8567C9.31947 10.9528 9.42415 11.1799 9.43287 11.2847C9.45032 11.5905 9.46776 11.774 9.43287 12.0798C9.39798 12.3943 9.19735 12.6651 9.00544 12.9097C9.55499 13.5562 10.6716 13.3902 11.2996 12.9447C11.4566 12.8311 11.7183 12.6913 11.7794 12.5079C11.823 12.3855 11.823 12.0186 11.8317 11.8876C11.8405 11.442 11.8405 10.979 11.7096 10.5509C11.6224 10.2626 11.4741 9.98301 11.5002 9.68596C11.5264 9.38892 11.7183 9.24914 11.8579 8.97831C12.1021 8.48906 12.137 8.46285 11.7532 8.01729C11.6834 7.93866 11.4654 7.88624 11.3694 7.92119C11.3083 7.93866 11.256 8.10466 11.2211 8.15707C10.9071 8.52401 10.8547 8.7861 10.5145 9.11809C10.1045 9.51123 9.45904 9.64228 8.93565 9.43261C8.7263 9.35398 8.52567 9.22293 8.29886 9.23167" fill="#EB1D66"/>
<g opacity="0.2">
<path d="M8.69389 9.49386C8.55432 9.53755 8.41475 9.58996 8.31007 9.68607C8.20539 9.78217 8.26645 9.93943 8.33624 10.0617C8.7375 10.1928 9.00792 10.3675 9.37429 10.5685C9.48769 10.6296 9.51386 10.8218 9.5662 10.9441C9.60109 11.0315 9.69705 11.2324 9.70577 11.3198C9.72322 11.5906 9.74066 11.7566 9.70577 12.0275C9.67088 12.307 9.49641 12.5429 9.32195 12.7613C9.81045 13.3292 10.8049 13.0758 11.3544 12.6827C11.494 12.5866 11.7208 12.342 11.7819 12.1847C11.8255 12.0711 11.8255 11.8615 11.8255 11.7479C11.8342 11.346 11.8342 11.0577 11.7208 10.6733C11.6423 10.4199 11.5115 10.1666 11.5376 9.90448C11.5638 9.64238 11.7295 9.51134 11.8517 9.27545C12.0697 8.84736 12.1046 8.81242 11.7557 8.41927C11.6946 8.34938 11.5027 8.3057 11.4155 8.33191C11.3632 8.34938 11.3195 8.48916 11.2847 8.54158C11.0055 8.87357 10.9619 9.10072 10.6566 9.39776C10.2989 9.74722 9.72321 9.8608 9.25217 9.67733C9.06898 9.60744 8.8858 9.48513 8.68516 9.5026" fill="#F09BA7"/>
</g>
<path d="M9.949 5.27409C10.5596 5.77207 11.1702 6.55836 11.1528 7.33591C11.1353 8.11346 10.5683 8.85606 9.80943 9.03079C9.31221 9.14436 8.79755 9.02205 8.3265 8.83859C7.96013 8.6988 7.48036 8.39302 7.20122 8.11346C6.92208 7.83389 6.73889 7.44074 6.77378 7.03887C6.82612 6.47099 7.29717 6.03417 7.80311 5.77207C8.44862 5.40514 9.20753 5.23914 9.949 5.27409Z" fill="#FFE1BD"/>
<path d="M10.6088 5.956C10.8879 6.40156 11.1671 6.85586 11.1845 7.39753C11.2107 8.01782 10.853 8.57696 10.3384 8.90021C9.50096 9.43313 8.48908 9.1623 7.68655 8.708C7.63421 8.67306 7.58187 8.75169 7.61677 8.79537C7.93952 9.15357 8.60248 9.31082 9.0648 9.34577C9.60564 9.38071 10.1639 9.24967 10.6001 8.90021C11.5683 8.12266 11.4375 6.78597 10.6175 5.94727C10.6088 5.94727 10.6001 5.956 10.6088 5.956Z" fill="black"/>
<path d="M8.86554 6.78502C8.6213 6.55787 8.08046 6.60155 8.01068 6.9947C8.00195 7.03838 8.01068 7.11701 8.07174 7.12574C8.15025 7.13448 8.16769 7.03838 8.19386 6.98596C8.31599 6.75007 8.59513 6.77628 8.80448 6.86365C8.85682 6.87238 8.90916 6.81997 8.86554 6.78502Z" fill="black"/>
<path d="M9.76287 6.61052C9.83265 6.54937 9.85882 6.47948 9.97222 6.462C10.0595 6.45327 10.1467 6.47948 10.2165 6.53189C10.3037 6.58431 10.3822 6.45327 10.295 6.39211C10.1816 6.32222 10.042 6.28727 9.90244 6.33969C9.79776 6.37464 9.67564 6.47074 9.69308 6.59305C9.70181 6.628 9.74542 6.628 9.76287 6.61052Z" fill="black"/>
<path d="M8.07422 7.58896C8.10911 7.65011 8.59761 8.41019 9.32162 8.42766C9.60949 8.4364 9.86246 8.32283 9.93224 8.28788C10.0631 8.22672 10.3073 8.11315 10.3335 7.92095C10.3422 7.85979 10.3248 7.80737 10.3073 7.76369C10.2637 7.62391 10.2027 7.41423 10.1678 7.11719" fill="white"/>
<path d="M10.1565 7.07382C9.84246 7.01267 9.51098 7.16119 9.22311 7.27476C9.05738 7.33592 8.89164 7.40581 8.7259 7.44949C8.51654 7.50191 8.30719 7.48444 8.10656 7.53686C8.08039 7.5456 8.07166 7.58928 8.09783 7.60675C8.36825 7.74654 8.71717 7.61549 8.98759 7.51939C9.38013 7.37087 9.76395 7.24856 10.1565 7.12624C10.1739 7.10877 10.1739 7.07382 10.1565 7.07382Z" fill="black"/>
<path d="M8.04411 7.59814C8.14006 7.86897 8.33197 8.1136 8.5675 8.27959C8.76813 8.41937 9.09088 8.5679 9.32641 8.44558C9.34385 8.43685 9.33513 8.41064 9.31768 8.4019C9.07344 8.31454 8.84664 8.33201 8.61984 8.18349C8.39303 8.02623 8.24474 7.79908 8.09645 7.58067C8.079 7.55446 8.03539 7.5632 8.04411 7.59814Z" fill="black"/>
<path d="M9.9303 8.29682C10.0263 8.26188 10.1397 8.25314 10.2269 8.19199C10.3141 8.13083 10.3752 8.04347 10.3839 7.93863C10.3926 7.86873 10.2967 7.86874 10.2705 7.92115C10.2356 8.00852 10.2007 8.06967 10.1222 8.12209C10.0524 8.17451 9.99137 8.22693 9.92158 8.27061C9.91286 8.28809 9.92158 8.29682 9.9303 8.29682Z" fill="black"/>
<path d="M10.3131 7.76373C10.3393 7.67637 10.3131 7.57153 10.2957 7.48416C10.2695 7.36185 10.2346 7.23954 10.2259 7.10849C10.2172 7.02113 10.0776 7.02113 10.0863 7.10849C10.0951 7.2308 10.1212 7.33564 10.1648 7.44922C10.1997 7.55405 10.2346 7.66763 10.287 7.76373C10.2957 7.7812 10.3131 7.7812 10.3131 7.76373Z" fill="black"/>
<path d="M10.1647 8.48926C10.0513 8.57662 9.91178 8.62904 9.77221 8.66399C9.68498 8.68146 9.53668 8.67272 9.48435 8.75135C9.47562 8.76009 9.48435 8.77756 9.48435 8.7863C9.56285 8.8824 9.77221 8.81251 9.85944 8.77756C9.99901 8.72514 10.1124 8.63778 10.1735 8.50673C10.1822 8.49799 10.1735 8.48926 10.1647 8.48926Z" fill="black"/>
<path d="M8.17902 7.50183C8.1354 7.4931 8.09178 7.4931 8.04817 7.51057C8.00455 7.52804 7.96094 7.56299 7.96094 7.61541C7.96094 7.65909 8.00455 7.6853 8.03945 7.65909C8.06562 7.64162 8.07434 7.61541 8.10051 7.60667C8.12668 7.59793 8.15285 7.5892 8.17902 7.58046C8.22263 7.57172 8.22263 7.51057 8.17902 7.50183Z" fill="black"/>
<path d="M10.5709 5.84187C10.4314 5.35262 9.94288 4.95948 9.47184 4.81096C9.44567 4.80222 9.43694 4.83717 9.45439 4.84591C9.66374 4.98569 9.88182 5.108 10.0737 5.274C10.2656 5.43999 10.4139 5.64093 10.5535 5.85061C10.5622 5.85934 10.5797 5.85934 10.5709 5.84187Z" fill="black"/>
<path d="M12.763 3.77568C12.7246 3.77568 12.5942 3.79873 12.6172 4.02921C12.6325 4.25201 12.6709 4.31347 12.6862 4.35956C12.6939 4.37493 12.6556 4.39798 12.6709 4.51322C12.6786 4.62077 12.7016 4.77443 12.7323 4.82052C12.7323 4.82052 12.7169 4.8743 12.7399 4.93576C12.763 4.98954 12.786 5.18161 12.8013 5.22771C12.8166 5.2738 12.8934 5.28917 12.9164 5.2738C12.9394 5.25844 12.9854 5.21234 12.9624 5.06637C12.9471 4.9204 12.9624 4.82052 12.9394 4.81284C12.9087 4.79748 12.9317 4.80516 12.9471 4.73601C12.9547 4.66687 12.9471 4.39029 12.924 4.35956C12.9087 4.33652 12.9547 4.31347 12.9164 4.1214C12.878 3.91397 12.855 3.768 12.763 3.77568Z" fill="#EC1E66"/>
<path d="M13.7935 3.92969C13.7474 3.92969 13.6784 4.0142 13.6477 4.11407C13.6247 4.21395 13.5864 4.26772 13.6554 4.29077C13.6554 4.29077 13.617 4.28309 13.5864 4.35223C13.5633 4.42138 13.525 4.61345 13.5096 4.66722C13.4943 4.721 13.4943 4.75173 13.5327 4.78246C13.5327 4.78246 13.4866 4.79783 13.4636 4.85161C13.4406 4.90539 13.3792 5.03599 13.3639 5.07441C13.3486 5.10514 13.3792 5.18196 13.4176 5.22038C13.4483 5.25879 13.5096 5.22038 13.5327 5.20501C13.5557 5.18965 13.6247 5.06672 13.6554 4.99758C13.6707 4.95917 13.7014 4.85929 13.7091 4.84393C13.7168 4.82856 13.7935 4.63649 13.8011 4.56735C13.8088 4.50589 13.8165 4.42906 13.8165 4.42906C13.8165 4.42906 13.8165 4.39065 13.8472 4.35223C13.8778 4.31382 13.9315 4.11407 13.9085 4.04493C13.8932 3.96042 13.8548 3.92969 13.7935 3.92969Z" fill="#EC1E66"/>
<path d="M14.7298 4.48299C14.6991 4.46762 14.6071 4.40616 14.515 4.50604C14.423 4.59823 14.3463 4.80566 14.3693 4.82103C14.3693 4.82103 14.2926 4.83639 14.2235 4.95163C14.1161 5.12833 14.1391 5.15138 14.1238 5.17443C14.1238 5.17443 14.0394 5.19748 14.0011 5.25894C13.955 5.31272 13.886 5.42027 13.9014 5.48942C13.9167 5.55856 13.9397 5.60466 14.0087 5.57393C14.0778 5.55088 14.2159 5.38186 14.2542 5.33576C14.2696 5.31272 14.2696 5.28967 14.2696 5.28967C14.2696 5.28967 14.3002 5.28967 14.3693 5.20516C14.4383 5.12065 14.4997 5.04382 14.5074 5.02846C14.538 4.97468 14.561 4.91322 14.561 4.91322C14.561 4.91322 14.7221 4.75188 14.7451 4.62128C14.7605 4.49067 14.7298 4.48299 14.7298 4.48299Z" fill="#EC1E66"/>
<path d="M14.3539 5.8807C14.3539 5.8807 14.3156 5.9268 14.2695 5.96521C14.2312 6.00363 14.1852 6.1035 14.1852 6.14192C14.1775 6.17265 14.2235 6.21874 14.3002 6.18033C14.5073 6.06509 14.5227 6.01899 14.5227 6.01899C14.5227 6.01899 14.5764 6.02668 14.7298 5.8807C14.7758 5.83461 14.7912 5.7962 14.7912 5.7962C14.7912 5.7962 14.8218 5.75778 14.8679 5.71169C14.9139 5.66559 14.9906 5.54267 14.9983 5.44279C15.0059 5.34292 14.9906 5.24304 14.9139 5.25841C14.8372 5.27377 14.7528 5.42743 14.7144 5.47352C14.6761 5.51962 14.6531 5.60413 14.6531 5.60413C14.6531 5.60413 14.6301 5.61949 14.584 5.66559C14.538 5.71169 14.4383 5.82693 14.4383 5.82693C14.4383 5.82693 14.4153 5.82693 14.3539 5.8807Z" fill="#EC1E66"/>
<path d="M12.36 6.24925C12.406 6.21084 12.475 5.99572 12.6745 6.03414C12.7589 6.0495 12.9276 6.11096 12.989 6.18779C13.0197 6.2262 12.9737 6.45668 13.0043 6.57961C13.0504 6.74094 13.1654 6.87923 13.2498 6.83314C13.3112 6.79472 13.3956 6.76399 13.4569 6.6718C13.5643 6.52583 13.6257 6.3184 13.5183 6.26462C13.3572 6.18011 13.035 6.11865 12.7819 5.94195C12.5287 5.76524 12.6515 5.36575 12.8969 5.43489C12.943 5.45025 13.2805 5.35038 13.3495 5.45025C13.4262 5.58086 13.5106 5.61159 13.5797 5.62696C13.664 5.65 13.6794 5.58086 13.8175 5.68073C13.8788 5.72683 14.0092 6.0956 14.0783 6.14169C14.1473 6.18779 14.1626 6.41827 13.9862 6.64875C13.8098 6.87923 13.7791 7.03288 13.7024 7.15581C13.6257 7.28641 13.4109 7.47848 13.2115 7.45543C13.012 7.4247 12.8356 7.35556 12.8126 7.27873C12.7972 7.2019 12.7896 7.12508 12.6898 7.14812C12.5901 7.17117 12.3293 6.97142 12.2372 6.78704C12.1989 6.71021 12.1836 6.40291 12.36 6.24925Z" fill="#EC1E66"/>
<path d="M12.0681 5.26575C12.1525 5.31185 12.1909 5.42709 12.1832 5.56537C12.1755 5.65757 12.1525 5.70366 12.1678 5.71903C12.1832 5.73439 12.1909 5.74207 12.1985 5.76512C12.2215 5.85731 12.2369 5.94182 12.2446 6.01097C12.2446 6.02633 12.2446 6.0417 12.2446 6.06475C12.2446 6.08011 12.2599 6.09548 12.2599 6.10316C12.2676 6.31059 12.1755 6.33364 12.1218 6.24145C12.1218 6.24145 12.1218 6.23377 12.1142 6.23377C12.0374 6.12621 12.0605 6.00329 12.0068 5.90341C11.93 5.73439 11.8764 5.64988 11.8303 5.57306C11.7996 5.51928 11.7843 5.42709 11.7766 5.38099C11.769 5.21965 11.93 5.18892 12.0681 5.26575Z" fill="#EC1E66"/>
<path d="M11.9754 9.39941C12.0061 8.88467 11.8527 8.37762 11.6762 7.90129C11.5152 7.4557 11.3387 6.91023 11.0472 6.53378C11.0242 6.51073 10.9935 6.53378 11.0012 6.56451C11.1009 7.03315 11.3924 7.48643 11.5612 7.93202C11.7376 8.40835 11.868 8.89236 11.9217 9.39173C11.9294 9.43783 11.9754 9.43783 11.9754 9.39941Z" fill="black"/>
<path d="M7.84788 9.2664C7.39428 9.02177 6.9494 8.75968 6.48707 8.51506C6.10325 8.32285 5.58859 7.97339 5.14371 7.99087C5.11754 7.99087 5.10882 8.02581 5.12626 8.04329C5.60604 8.27043 6.09453 8.4539 6.56558 8.69852C6.97557 8.91694 7.38555 9.15282 7.82171 9.31008C7.8566 9.33629 7.88277 9.28387 7.84788 9.2664Z" fill="black"/>
<path d="M8.27206 9.03046C8.03654 9.01298 7.77484 9.19645 7.63527 9.36244C7.48698 9.53717 7.32996 9.94779 7.60038 10.0876C7.61783 10.0963 7.63527 10.0876 7.63527 10.0701C7.66144 9.95653 7.61783 9.84295 7.63527 9.72938C7.65272 9.60706 7.7225 9.50223 7.80101 9.41486C7.93186 9.28381 8.10632 9.17898 8.28078 9.13529C8.34185 9.11782 8.3244 9.03046 8.27206 9.03046Z" fill="black"/>
<path d="M11.1761 7.93897C11.3505 7.92149 11.4901 7.9215 11.6471 8.00012C11.7256 8.04381 11.7954 8.08749 11.8565 8.15738C11.9001 8.20106 11.935 8.25348 11.9873 8.27096C12.0048 8.27969 12.0309 8.27096 12.0397 8.25348C12.092 8.07875 11.8041 7.91276 11.6733 7.86034C11.5163 7.79918 11.2633 7.73803 11.1586 7.90402C11.1499 7.92149 11.1674 7.93897 11.1761 7.93897Z" fill="black"/>
<path d="M9.0959 10.7955C9.33142 11.4595 9.28781 12.3332 8.74698 12.8049C8.72081 12.8224 8.73825 12.8748 8.77314 12.8748C9.13079 12.8399 9.27909 12.3681 9.3227 12.0623C9.39249 11.6255 9.33142 11.1799 9.13079 10.7868C9.11335 10.7606 9.08718 10.7781 9.0959 10.7955Z" fill="black"/>
<path d="M11.4471 9.60781C11.9443 10.5426 12.0141 11.4774 11.7786 12.4996C11.7698 12.5258 11.8135 12.552 11.8309 12.5171C12.3281 11.5735 12.0054 10.4378 11.4645 9.59034C11.4645 9.5816 11.4384 9.59034 11.4471 9.60781Z" fill="black"/>
<path d="M11.8451 12.499C11.4002 12.9358 10.8768 13.3465 10.2313 13.4076C9.98706 13.4338 9.74282 13.4164 9.50729 13.3377C9.16709 13.2329 9.04497 13.0145 8.78327 12.8048C8.76583 12.7961 8.73094 12.7961 8.73966 12.8223C8.80944 13.3989 9.65559 13.5649 10.1266 13.5387C10.8507 13.5037 11.4525 13.0844 11.8451 12.499C11.8538 12.5078 11.8451 12.499 11.8451 12.499Z" fill="black"/>
<path d="M12.0386 8.30538C12.1432 8.86452 11.7071 9.30134 11.5326 9.79059C11.5239 9.8168 11.5588 9.83427 11.5762 9.8168C11.8903 9.51102 12.309 8.73347 12.0386 8.30538C12.0386 8.29664 12.0386 8.29664 12.0386 8.30538Z" fill="black"/>
<path d="M7.63761 10.271C7.71612 10.3147 7.8208 10.3234 7.90803 10.3496C8.08249 10.402 8.24823 10.4632 8.41397 10.5418C8.63205 10.6379 8.87629 10.7952 9.11182 10.8214C9.13799 10.8214 9.14671 10.7952 9.12926 10.7777C8.93736 10.5767 8.60588 10.4719 8.35291 10.3758C8.161 10.2972 7.83824 10.1224 7.63761 10.2185C7.61144 10.2185 7.62016 10.2535 7.63761 10.271Z" fill="black"/>
<path d="M10.299 13.8447C9.90651 14.3776 9.15632 14.7446 8.5457 14.9106C8.51081 14.9193 8.51081 14.9717 8.5457 14.9804C8.89463 15.0766 9.31334 14.797 9.59247 14.6135C9.88906 14.4213 10.1856 14.1854 10.3165 13.8447C10.3078 13.8447 10.299 13.836 10.299 13.8447Z" fill="black"/>
<path d="M8.36698 14.7886C8.22741 14.6925 8.07912 14.6226 7.96572 14.4916C7.86976 14.378 7.79998 14.2557 7.74764 14.1246C7.70402 14.0198 7.66913 13.8975 7.66913 13.7839C7.66913 13.6529 7.73019 13.583 7.79125 13.4781C7.79998 13.4607 7.79125 13.4345 7.77381 13.4257C7.39871 13.3122 7.49467 13.9412 7.54701 14.1159C7.66041 14.4479 7.95699 14.9022 8.36698 14.841C8.38443 14.8498 8.38443 14.8061 8.36698 14.7886Z" fill="black"/>
<path d="M7.84166 13.4257C8.0074 13.4607 8.20804 13.3733 8.35633 13.3034C8.48718 13.2422 8.70525 13.1549 8.73142 12.9976C8.73142 12.9801 8.7227 12.9539 8.69653 12.9627C8.62675 12.9801 8.57441 13.0238 8.52207 13.0588C8.43484 13.1199 8.33888 13.1636 8.23421 13.1986C8.10336 13.251 7.9289 13.2859 7.82422 13.382C7.82422 13.4082 7.83294 13.4257 7.84166 13.4257Z" fill="black"/>
<path d="M11.8222 12.6475C11.735 12.8571 11.7176 13.0843 11.6565 13.3027C11.6303 13.4163 11.5954 13.5298 11.5344 13.626C11.482 13.7221 11.4384 13.7395 11.4297 13.8444C11.4297 13.8531 11.4384 13.8618 11.4471 13.8618C11.6303 13.8444 11.7001 13.5823 11.7437 13.4337C11.8135 13.1804 11.831 12.9096 11.8222 12.6475C11.831 12.6475 11.8222 12.6475 11.8222 12.6475Z" fill="black"/>
<path d="M11.3838 13.9323C11.0175 14.1857 10.5639 14.474 10.2062 14.0634C10.1626 14.011 10.0928 14.0809 10.119 14.1333C10.3632 14.6313 11.1745 14.2993 11.4013 13.9411C11.4013 13.9323 11.3926 13.9236 11.3838 13.9323Z" fill="black"/>
<path d="M7.75999 14.3605C7.62042 14.3256 7.48085 14.3518 7.34128 14.3256C7.17554 14.2906 7.02724 14.1945 6.8964 14.0897C6.66087 13.8887 6.59109 13.6528 6.45152 13.3908C6.43407 13.3645 6.39046 13.3645 6.38173 13.3995C6.31195 13.714 6.59981 14.0635 6.82661 14.2382C7.05341 14.4129 7.51574 14.6313 7.76871 14.3955C7.78615 14.3867 7.77743 14.3605 7.75999 14.3605Z" fill="black"/>
<path d="M6.4074 13.4426C6.55569 13.4339 6.67781 13.2417 6.73887 13.1106C6.81738 12.9534 6.84355 12.7787 6.79121 12.6039C6.78249 12.5865 6.75632 12.5865 6.7476 12.6039C6.69526 12.7524 6.67781 12.9097 6.60803 13.0582C6.58186 13.1194 6.53824 13.1805 6.49463 13.2417C6.45101 13.3028 6.39867 13.3291 6.38123 13.3989C6.3725 13.4252 6.38995 13.4426 6.4074 13.4426Z" fill="black"/>
<path d="M6.38875 13.4598C6.2928 13.39 6.16195 13.3725 6.05727 13.3113C5.93515 13.2502 5.83047 13.1715 5.7258 13.0842C5.6124 12.9793 5.50772 12.8745 5.42049 12.7434C5.34198 12.6211 5.29836 12.4814 5.21986 12.3678C5.20241 12.3416 5.15879 12.3503 5.15879 12.3853C5.1239 12.7172 5.45538 13.0842 5.69963 13.2764C5.8392 13.3812 6.23174 13.6695 6.38875 13.4773C6.39748 13.4686 6.38875 13.4686 6.38875 13.4598Z" fill="black"/>
<path d="M6.75415 12.6041C6.40523 12.1673 5.64632 12.1149 5.17527 12.342C5.14038 12.3595 5.15782 12.4119 5.19272 12.4119C5.74227 12.3421 6.24821 12.3508 6.74543 12.6129C6.75415 12.6216 6.76288 12.6129 6.75415 12.6041Z" fill="black"/>
<path d="M9.21206 12.2895C9.22078 11.8876 8.14784 11.9924 8.08678 12.3244C8.07805 12.3856 8.13911 12.4205 8.19145 12.3856C8.33102 12.2633 8.47932 12.2196 8.6625 12.2021C8.81079 12.1934 9.02887 12.1759 9.12483 12.3157C9.14227 12.3594 9.21206 12.3419 9.21206 12.2895Z" fill="black"/>
<path d="M8.08208 12.3855C8.03847 12.5165 8.1257 12.7087 8.18676 12.8223C8.25654 12.9621 8.36122 13.1106 8.51824 13.1456C8.58802 13.163 8.64036 13.0495 8.57058 13.0232C8.43101 12.9621 8.34377 12.8572 8.27399 12.7262C8.21293 12.6126 8.19548 12.4903 8.15187 12.3767C8.14314 12.3418 8.0908 12.3505 8.08208 12.3855Z" fill="black"/>
<path d="M8.53314 6.17347C8.41974 6.11231 8.27145 6.09484 8.1406 6.13852C8.03592 6.17347 7.89635 6.23462 7.87891 6.35694C7.87891 6.37441 7.90508 6.39188 7.9138 6.38315C8.00103 6.32199 8.06209 6.26083 8.17549 6.22589C8.28889 6.19968 8.40229 6.18221 8.50697 6.22589C8.54186 6.23462 8.55931 6.19094 8.53314 6.17347Z" fill="black"/>
<path d="M9.33652 5.98148C9.4063 5.90285 9.5197 5.85043 9.62438 5.82422C9.68544 5.80675 9.74651 5.80675 9.80757 5.81549C9.85118 5.82422 9.88608 5.8417 9.92969 5.8417C9.94714 5.8417 9.96458 5.82422 9.95586 5.80675C9.90352 5.68444 9.71161 5.70191 9.60694 5.71939C9.46737 5.7456 9.3278 5.82422 9.31035 5.96401C9.30163 5.98148 9.3278 5.99895 9.33652 5.98148Z" fill="black"/>
<path d="M7.41437 8.50698C7.3882 8.48951 7.37075 8.47204 7.35331 8.44583C7.32714 8.40215 7.24863 8.44583 7.2748 8.48951C7.30097 8.52446 7.32714 8.5594 7.37075 8.57688C7.42309 8.61182 7.46671 8.53319 7.41437 8.50698Z" fill="black"/>
<path d="M7.05879 8.36666C7.11112 8.36666 7.11112 8.2793 7.05879 8.2793C7.00645 8.2793 7.00645 8.36666 7.05879 8.36666Z" fill="black"/>
<path d="M8.99433 4.97745C8.70646 4.82019 8.39243 4.7503 8.06967 4.69788C7.94755 4.68041 7.82543 4.66294 7.69458 4.68915C7.4765 4.73283 7.32821 4.88135 7.07524 4.79398C6.99673 4.76777 6.96184 4.89009 7.04035 4.9163C7.29332 5.00366 7.4765 4.86388 7.72075 4.82019C8.08712 4.75904 8.59306 4.90756 8.91582 5.08229C9.00305 5.12597 9.06411 5.0124 8.99433 4.97745Z" fill="black"/>
<path d="M9.72706 4.99448C9.68345 4.89838 9.62239 4.8547 9.51771 4.82849C9.34325 4.79354 9.30835 4.87217 9.12517 4.66249C9.09028 4.62755 9.07283 4.56639 9.03794 4.53144C8.81114 4.27809 8.4971 4.54018 8.23541 4.39166C8.16562 4.34798 8.09584 4.46155 8.16562 4.50524C8.44476 4.67123 8.75007 4.40913 8.9856 4.69744C9.04666 4.76733 9.07283 4.8547 9.16006 4.90712C9.29963 4.98574 9.53515 4.88091 9.60494 5.05564C9.64856 5.143 9.75323 5.07311 9.72706 4.99448Z" fill="black"/>
<path d="M7.95199 5.23057C7.48094 5.14321 7.19308 5.5014 6.73947 5.46646C6.50395 5.44898 6.2597 5.42277 6.15503 5.67613C6.12013 5.75476 6.23353 5.81592 6.26843 5.74602C6.39927 5.43151 6.84415 5.67613 7.09712 5.5975C7.40243 5.5014 7.55072 5.29173 7.9171 5.36162C7.9956 5.37035 8.0305 5.23931 7.95199 5.23057Z" fill="black"/>
<path d="M7.11488 5.80669C6.96659 5.74554 6.79212 5.66691 6.62638 5.71933C6.43448 5.78048 6.39086 5.98142 6.23384 6.08626C5.9896 6.24352 5.41387 6.17363 5.5011 6.63666C5.51855 6.71529 5.64067 6.68034 5.62323 6.60172C5.60578 6.50561 5.80641 6.35709 5.88492 6.33088C5.93726 6.31341 6.00704 6.31341 6.05938 6.30467C6.15534 6.2872 6.25129 6.26973 6.3298 6.20857C6.39958 6.15615 6.42575 6.10373 6.46937 6.04258C6.61766 5.81543 6.77468 5.80669 7.03637 5.92027C7.1236 5.95521 7.19339 5.84164 7.11488 5.80669Z" fill="black"/>
<path d="M6.50657 6.567C6.31466 6.96888 5.55575 6.69804 5.51214 7.25718C5.50341 7.34455 5.63426 7.33581 5.64298 7.25718C5.66915 6.94267 6.08786 6.96888 6.30594 6.89025C6.44551 6.84656 6.55891 6.7592 6.61997 6.62815C6.65486 6.55826 6.54146 6.4971 6.50657 6.567Z" fill="black"/>
<path d="M6.41418 7.19573C6.27461 7.17826 6.15249 7.21321 6.03909 7.30931C5.87335 7.44909 5.69888 7.8335 5.42847 7.71119C5.34996 7.67624 5.2889 7.78982 5.35868 7.82476C5.50697 7.88592 5.64654 7.86845 5.77739 7.77234C5.9693 7.63256 6.10015 7.2831 6.37929 7.31805C6.46652 7.32678 6.50141 7.20447 6.41418 7.19573Z" fill="black"/>
<path d="M6.7003 7.79865C6.56073 7.89475 6.38626 7.91223 6.22925 7.8336C6.15074 7.79865 6.08968 7.91223 6.15946 7.94717C6.36009 8.04327 6.57817 8.03454 6.76136 7.91223C6.83114 7.85981 6.77008 7.74623 6.7003 7.79865Z" fill="black"/>
<path d="M3.95991 6.3136C3.97736 6.30486 4.04715 6.27865 4.09948 6.39222C4.15182 6.5058 4.17799 6.57569 4.20416 6.62811C4.23033 6.68053 4.28267 6.81158 4.28267 6.84652C4.28267 6.88147 4.32629 6.97757 4.33501 7.00378C4.34373 7.02999 4.30884 7.0562 4.29139 7.0562C4.27395 7.0562 4.24778 7.04746 4.21289 6.96883C4.17799 6.89894 4.15182 6.83779 4.13438 6.81158C4.10821 6.78537 4.01225 6.61937 3.98608 6.51454C3.94247 6.4097 3.9163 6.33981 3.95991 6.3136Z" fill="black"/>
<path d="M3.52544 6.66336C3.54289 6.65462 3.60395 6.6721 3.63884 6.70704C3.67374 6.75072 3.69991 6.77693 3.72607 6.80314C3.76097 6.82935 3.82203 6.90798 3.8482 6.92545C3.86564 6.94293 3.89181 6.97787 3.91798 7.00408C3.94415 7.02156 4.04883 7.13513 4.04011 7.16134C4.03138 7.18755 3.99649 7.18755 3.97905 7.18755C3.97032 7.18755 3.90054 7.1526 3.86564 7.11766C3.8482 7.10018 3.80458 7.06524 3.79586 7.0565C3.78714 7.04777 3.69991 6.97787 3.68246 6.95166C3.66501 6.92545 3.49927 6.77693 3.49055 6.74199C3.48183 6.70704 3.49927 6.68083 3.52544 6.66336Z" fill="black"/>
<path d="M3.23782 7.17882C3.24654 7.16134 3.27271 7.10893 3.3425 7.13514C3.41228 7.15261 3.53441 7.23124 3.59547 7.26618C3.69142 7.3186 3.74376 7.33607 3.77865 7.34481C3.81355 7.36228 3.87461 7.38849 3.88333 7.42344C3.89206 7.45839 3.70887 7.45839 3.6827 7.44965C3.66525 7.44091 3.64781 7.44091 3.59547 7.4147C3.54313 7.39723 3.49079 7.37102 3.48207 7.37102C3.4559 7.35355 3.30761 7.30113 3.26399 7.23997C3.22037 7.18755 3.23782 7.17882 3.23782 7.17882Z" fill="black"/>
<path d="M3.78625 7.72882C3.78625 7.72882 3.82114 7.73755 3.84731 7.74629C3.87348 7.75503 3.92582 7.78997 3.93454 7.80745C3.94326 7.82492 3.93454 7.85113 3.89093 7.85113C3.76008 7.85113 3.72519 7.85113 3.61179 7.82492C3.57689 7.81618 3.53328 7.78997 3.49838 7.78124C3.46349 7.7725 3.39371 7.73755 3.35882 7.69387C3.32392 7.65019 3.30648 7.59777 3.35009 7.58903C3.39371 7.5803 3.47222 7.62398 3.49838 7.64145C3.52455 7.65019 3.57689 7.68514 3.61179 7.69387C3.64668 7.70261 3.72519 7.72882 3.72519 7.72882C3.72519 7.72882 3.74263 7.72008 3.78625 7.72882Z" fill="black"/>
<path d="M4.81993 7.36197C4.78504 7.35323 4.69781 7.27461 4.61057 7.3445C4.57568 7.37071 4.51462 7.44934 4.5059 7.50176C4.5059 7.52796 4.46228 7.48428 4.53207 7.32702C4.60185 7.1785 4.43611 7.02125 4.34016 7.11735C4.32271 7.13482 4.13953 7.1785 4.1308 7.2484C4.1308 7.32702 4.09591 7.37071 4.06974 7.39692C4.03485 7.43186 4.00868 7.40565 3.97379 7.48428C3.95634 7.51923 3.99123 7.7289 3.97379 7.77259C3.95634 7.80753 4.00868 7.92111 4.15697 7.98226C4.30526 8.04342 4.3576 8.10457 4.42739 8.14826C4.49717 8.1832 4.65419 8.22689 4.7327 8.15699C4.81993 8.0871 4.88099 8.00847 4.87227 7.96479C4.86354 7.92111 4.8461 7.88616 4.89844 7.86869C4.95078 7.85122 5.02056 7.68522 5.01184 7.58038C5.02056 7.5367 4.94205 7.38818 4.81993 7.36197Z" fill="black"/>
<path d="M4.69831 6.82888C4.67214 6.87256 4.68087 6.93372 4.72448 7.00361C4.75065 7.04729 4.7681 7.09098 4.77682 7.09971C4.79427 7.15213 4.83788 7.26571 4.83788 7.27444C4.89022 7.37054 4.93384 7.36181 4.94256 7.30065C4.95128 7.23076 4.89895 6.96867 4.89895 6.91625C4.89895 6.8813 4.8815 6.83762 4.87278 6.81141C4.82044 6.72404 4.74193 6.75025 4.69831 6.82888Z" fill="black"/>
<path d="M9.30509 3.20323C9.29637 3.21196 9.25275 3.26438 9.33126 3.33427C9.40977 3.40417 9.46211 3.44785 9.497 3.48279C9.53189 3.51774 9.62785 3.59637 9.65402 3.6051C9.68019 3.61384 9.74997 3.675 9.76742 3.68373C9.78486 3.69247 9.81976 3.675 9.81976 3.66626C9.81976 3.65752 9.81976 3.62258 9.76742 3.5789C9.71508 3.53521 9.68019 3.49153 9.66274 3.46532C9.64529 3.43911 9.53189 3.3168 9.46211 3.26438C9.3836 3.2207 9.33126 3.17702 9.30509 3.20323Z" fill="black"/>
<path d="M9.71138 2.94181C9.69393 2.95929 9.69393 3.0117 9.7201 3.04665C9.74627 3.09033 9.76372 3.11654 9.77244 3.15149C9.78989 3.18643 9.8335 3.26506 9.84222 3.28254C9.85095 3.30875 9.87712 3.33496 9.88584 3.36117C9.89456 3.38737 9.96435 3.50095 9.98179 3.50095C10.008 3.50095 10.0167 3.466 10.0167 3.45727C10.0167 3.44853 10.008 3.37864 9.99052 3.34369C9.98179 3.32622 9.96435 3.28254 9.96435 3.2738C9.96435 3.26506 9.92946 3.1777 9.91201 3.15149C9.89456 3.12528 9.81606 2.95055 9.78989 2.93308C9.75499 2.9156 9.72882 2.9156 9.71138 2.94181Z" fill="black"/>
<path d="M10.2104 2.83665C10.193 2.83665 10.1406 2.84539 10.1406 2.90654C10.1406 2.9677 10.1668 3.09001 10.1755 3.15116C10.193 3.24727 10.193 3.29095 10.193 3.3259C10.193 3.36084 10.2017 3.422 10.2279 3.43947C10.254 3.45694 10.2715 3.46568 10.2889 3.43947C10.3064 3.40452 10.2976 3.30842 10.2976 3.28221C10.2976 3.26474 10.2976 3.24727 10.2976 3.19485C10.2976 3.14243 10.2889 3.09875 10.2889 3.09001C10.2802 3.0638 10.2802 2.92402 10.2453 2.8716C10.2191 2.82791 10.2104 2.83665 10.2104 2.83665Z" fill="black"/>
<path d="M10.5117 3.43979C10.5117 3.43979 10.5117 3.466 10.5117 3.49221C10.5117 3.51842 10.5291 3.57084 10.5378 3.57958C10.5466 3.59705 10.5727 3.59705 10.5902 3.55337C10.6251 3.44853 10.6338 3.41358 10.6425 3.31748C10.6425 3.29127 10.6338 3.24759 10.6338 3.21264C10.6338 3.1777 10.6251 3.11654 10.5989 3.07286C10.5727 3.03791 10.5291 3.00297 10.5117 3.03791C10.4942 3.06412 10.5117 3.14275 10.5117 3.1777C10.5117 3.20391 10.5291 3.25633 10.5204 3.28253C10.5117 3.32622 10.5117 3.40485 10.5117 3.43979Z" fill="black"/>
<path d="M9.93238 4.19918C9.93238 4.17297 9.89748 4.07687 9.97599 4.02445C10.0109 4.00698 10.1243 3.93709 9.98471 3.95456C9.84514 3.97203 9.75791 3.7973 9.86259 3.74489C9.88004 3.73615 9.96727 3.59636 10.0283 3.6051C10.0981 3.62257 10.133 3.61384 10.1592 3.59636C10.1941 3.57889 10.1766 3.54395 10.2551 3.54395C10.29 3.54395 10.4558 3.63131 10.4907 3.62257C10.5255 3.61384 10.6041 3.69247 10.6128 3.83225C10.6215 3.97203 10.6651 4.03319 10.6738 4.09435C10.6913 4.16424 10.6738 4.29529 10.5953 4.3477C10.5168 4.40012 10.4296 4.43507 10.4034 4.40886C10.3773 4.38265 10.2464 4.47875 10.0545 4.4176C10.0196 4.40886 9.92365 4.30402 9.93238 4.19918Z" fill="black"/>
<path d="M9.53123 3.94599C9.57485 3.93726 9.62719 3.96346 9.66208 4.01588C9.68825 4.05083 9.79292 4.12946 9.81909 4.15567C9.82782 4.15567 9.84526 4.18188 9.85399 4.18188C9.92377 4.25177 9.8976 4.28672 9.85399 4.26924C9.79292 4.26051 9.76676 4.20809 9.71442 4.19061C9.63591 4.15567 9.59229 4.14693 9.54868 4.12946C9.52251 4.12072 9.48762 4.09451 9.47017 4.07704C9.40911 4.02462 9.45272 3.96346 9.53123 3.94599Z" fill="black"/>
<path d="M14.7708 11.25L14.6836 11.2938L14.7534 11.285L14.7708 11.25Z" fill="#EB1B65"/>
<path d="M14.7026 11.4246L14.6328 11.3896L14.6415 11.4683C14.659 11.4508 14.6852 11.4246 14.7026 11.4246Z" fill="#EB1B65"/>
</svg>
