<svg width="24" height="23" viewBox="0 0 24 23" fill="none"
  xmlns="http://www.w3.org/2000/svg">
  <path d="M2.25597 2.19221L2.25679 2.19142C3.10604 1.3757 4.19727 0.94472 5.76561 0.723973C7.34887 0.501126 9.35348 0.5 11.9978 0.5C14.6421 0.5 16.6469 0.50112 18.2308 0.723477C19.7996 0.943722 20.8922 1.37375 21.7437 2.18774C22.5927 3.00135 23.0382 4.0406 23.267 5.53379C23.4987 7.04618 23.5 8.96202 23.5 11.4979C23.5 14.0338 23.4987 15.9496 23.267 17.462C23.0382 18.9553 22.5926 19.9946 21.7436 20.8082C20.8921 21.6242 19.7985 22.0553 18.229 22.276C16.6446 22.4989 14.64 22.5 11.9978 22.5C9.35567 22.5 7.35104 22.4989 5.76722 22.276C4.19821 22.0553 3.10596 21.6242 2.25679 20.8086L2.25638 20.8082C1.40746 19.9946 0.96184 18.9544 0.73304 17.4605C0.501327 15.9476 0.5 14.0317 0.5 11.4979C0.5 8.96411 0.501328 7.04827 0.733037 5.53587C0.961833 4.04249 1.40741 3.00356 2.25597 2.19221Z" stroke="#171717"/>
  <path d="M10.6035 17.8889V12.4596H8.66663V10.3021H10.6035V8.60216C10.6035 6.75525 11.8055 5.75 13.5606 5.75C14.4015 5.75 15.1237 5.80927 15.3333 5.83535V7.76525H14.1161C13.1616 7.76525 12.9772 8.192 12.9772 8.81554V10.3021H15.1313L14.8358 12.4596H12.9772V17.8889" fill="#171717"/>
</svg>
