<?xml version="1.0" encoding="utf-8"?>
<!-- Generator: Adobe Illustrator 27.0.1, SVG Export Plug-In . SVG Version: 6.00 Build 0)  -->
<svg version="1.1" id="Слой_1" xmlns="http://www.w3.org/2000/svg" xmlns:xlink="http://www.w3.org/1999/xlink" x="0px" y="0px"
	 viewBox="0 0 12 12" style="enable-background:new 0 0 12 12;" xml:space="preserve">
<path d="M5.748,1.295c-2.627,0-4.746,2.119-4.746,4.746s2.119,4.746,4.746,4.746s4.746-2.119,4.746-4.746S8.375,1.295,5.748,1.295z
	 M5.748,9.882c-2.113,0-3.841-1.723-3.841-3.841S3.629,2.2,5.748,2.2s3.841,1.723,3.841,3.841S7.861,9.882,5.748,9.882z M12,1.166
	c0,0.648-0.522,1.166-1.166,1.166c-0.648,0-1.166-0.522-1.166-1.166S10.19,0,10.834,0S12,0.522,12,1.166z"/>
</svg>
