<svg width="24" height="23" viewBox="0 0 24 23" fill="none"
  xmlns="http://www.w3.org/2000/svg">
  <path d="M2.25597 2.19221L2.25679 2.19142C3.10604 1.3757 4.19727 0.94472 5.76561 0.723973C7.34887 0.501126 9.35348 0.5 11.9978 0.5C14.6421 0.5 16.6469 0.50112 18.2308 0.723477C19.7996 0.943722 20.8922 1.37375 21.7437 2.18774C22.5927 3.00135 23.0382 4.0406 23.267 5.53379C23.4987 7.04618 23.5 8.96202 23.5 11.4979C23.5 14.0338 23.4987 15.9496 23.267 17.462C23.0382 18.9553 22.5926 19.9946 21.7436 20.8082C20.8921 21.6242 19.7985 22.0553 18.229 22.276C16.6446 22.4989 14.64 22.5 11.9978 22.5C9.35567 22.5 7.35104 22.4989 5.76722 22.276C4.19821 22.0553 3.10596 21.6242 2.25679 20.8086L2.25638 20.8082C1.40746 19.9946 0.96184 18.9544 0.73304 17.4605C0.501327 15.9476 0.5 14.0317 0.5 11.4979C0.5 8.96411 0.501328 7.04827 0.733037 5.53587C0.961833 4.04249 1.40741 3.00356 2.25597 2.19221Z" stroke="#171717"/>
  <path d="M17.962 6.73876L15.9499 15.9555C15.7981 16.606 15.4022 16.7679 14.8397 16.4614L11.7739 14.2671L10.2946 15.649C10.1309 15.808 9.994 15.941 9.67849 15.941L9.89875 12.9083L15.5808 7.92121C15.8279 7.70727 15.5272 7.58874 15.1968 7.80268L8.17241 12.0988L5.14833 11.1794C4.49053 10.98 4.47862 10.5405 5.28524 10.2341L17.1137 5.80784C17.6613 5.60835 18.1406 5.92637 17.962 6.73876Z" fill="#171717"/>
</svg>
